<svg width="337" height="124" viewBox="0 0 337 124" fill="none" xmlns="http://www.w3.org/2000/svg">
<path d="M101.599 27.9301H30.8792V41.5801C35.2992 41.6668 41.9292 41.7101 50.7692 41.7101C66.0226 41.7101 81.5359 41.4501 97.3092 40.9301V66.4101C81.5359 65.8035 64.8959 65.5001 47.3892 65.5001C40.1092 65.5001 34.6059 65.5435 30.8792 65.6301V98.0001H0.199219C0.892552 81.1868 1.23922 65.4568 1.23922 50.8101C1.23922 36.1635 0.892552 20.4335 0.199219 3.62014H101.599V27.9301Z" fill="#BC0011"/>
<path d="M186.331 98.0001C184.684 93.0601 182.474 86.8635 179.701 79.4101H138.231L131.731 98.0001H99.1008L135.501 3.62014H183.341L220.001 98.0001H186.331ZM172.291 59.1301C168.997 50.0301 165.617 40.9301 162.151 31.8301L159.031 23.3801C155.997 31.2668 151.534 43.1835 145.641 59.1301H172.291Z" fill="#BC0011"/>
<path d="M336.293 50.0301C336.293 77.0701 323.163 92.9735 296.903 97.7401C301.67 99.9935 307.173 102.16 313.413 104.24C307.606 109.18 299.98 115.767 290.533 124C280.826 116.547 272.55 108.097 265.703 98.6501C250.19 96.8301 238.75 91.7168 231.383 83.3101C224.103 74.9035 220.463 63.8101 220.463 50.0301C220.463 34.6035 225.1 22.5568 234.373 13.8901C243.733 5.22347 258.38 0.890137 278.313 0.890137C298.333 0.890137 312.98 5.22347 322.253 13.8901C331.613 22.5568 336.293 34.6035 336.293 50.0301ZM278.313 72.7801C287.933 72.7801 294.866 70.9601 299.113 67.3201C303.36 63.5935 305.483 57.8301 305.483 50.0301C305.483 42.4035 303.36 36.7268 299.113 33.0001C294.866 29.2735 287.933 27.4101 278.313 27.4101C268.78 27.4101 261.89 29.2735 257.643 33.0001C253.396 36.7268 251.273 42.4035 251.273 50.0301C251.273 57.7435 253.396 63.4635 257.643 67.1901C261.89 70.9168 268.78 72.7801 278.313 72.7801Z" fill="#BC0011"/>
</svg>
