<svg width="623" height="100" viewBox="0 0 623 100" fill="none" xmlns="http://www.w3.org/2000/svg">
<path d="M57.3992 99.3C37.8126 99.3 23.3826 95.14 14.1092 86.82C4.83589 78.5 0.199219 66.6267 0.199219 51.2C0.199219 35.6867 4.83589 23.4234 14.1092 14.41C23.3826 5.39668 37.8126 0.890015 57.3992 0.890015C84.7859 0.890015 103.116 10.2933 112.389 29.1C104.589 31.7867 95.4459 35.8167 84.9592 41.19C82.4459 36.3367 78.4592 32.74 72.9992 30.4C67.6259 28.06 62.1226 26.89 56.4892 26.89C48.1692 26.89 41.9726 29.1 37.8992 33.52C33.8259 37.8534 31.7892 43.2267 31.7892 49.64C31.7892 56.5734 33.9559 62.25 38.2892 66.67C42.7092 71.0034 49.4259 73.17 58.4392 73.17C65.6326 73.17 71.3526 72 75.5992 69.66C79.8459 67.2334 82.9659 63.42 84.9592 58.22C92.0659 62.0333 101.166 66.3234 112.259 71.09C107.926 81.5767 100.689 88.9 90.5492 93.06C80.4092 97.22 69.3592 99.3 57.3992 99.3Z" fill="#BC0011"/>
<path d="M164.696 99.3C149.876 99.3 138.956 95.92 131.936 89.16C125.003 82.3134 121.536 73.3434 121.536 62.25C121.536 51.4167 125.003 42.62 131.936 35.86C138.956 29.1 149.876 25.72 164.696 25.72C174.663 25.72 182.983 27.3667 189.656 30.66C196.416 33.8667 201.399 38.2433 204.606 43.79C207.813 49.25 209.416 55.4034 209.416 62.25C209.416 73.43 205.689 82.4 198.236 89.16C190.869 95.92 179.689 99.3 164.696 99.3ZM165.216 77.2C170.849 77.2 175.053 75.8567 177.826 73.17C180.599 70.4834 181.986 66.8867 181.986 62.38C181.986 58.1333 180.599 54.6667 177.826 51.98C175.053 49.2067 170.849 47.82 165.216 47.82C159.583 47.82 155.466 49.1634 152.866 51.85C150.266 54.5367 148.966 58.0467 148.966 62.38C148.966 66.8867 150.266 70.4834 152.866 73.17C155.466 75.8567 159.583 77.2 165.216 77.2Z" fill="#BC0011"/>
<path d="M269.259 98C269.779 85.26 270.039 73.5167 270.039 62.77C270.039 58.9567 269.085 55.9233 267.179 53.67C265.359 51.4167 263.019 50.29 260.159 50.29C257.299 50.29 254.872 51.59 252.879 54.19C250.885 56.7033 249.715 60.17 249.369 64.59C249.195 71.1767 249.109 75.8567 249.109 78.63C249.109 84.5234 249.282 90.98 249.629 98H218.559C219.252 85.52 219.599 73.7334 219.599 62.64C219.599 51.5467 219.252 39.6734 218.559 27.02C224.279 27.28 228.655 27.41 231.689 27.41C234.895 27.41 239.272 27.28 244.819 27.02L248.589 46.13C250.582 39.1967 253.702 34.0833 257.949 30.79C262.195 27.41 267.135 25.72 272.769 25.72C277.969 25.72 282.475 26.89 286.289 29.23C290.102 31.4834 292.962 34.56 294.869 38.46C296.862 42.36 297.859 46.7367 297.859 51.59V70.31C297.859 81.8367 298.075 91.0667 298.509 98H269.259Z" fill="#BC0011"/>
<path d="M367.839 50.29C359.866 49.77 352.586 49.38 345.999 49.12L345.869 62.9C345.869 67.58 346.866 71.2634 348.859 73.95C350.939 76.55 354.579 77.85 359.779 77.85C361.773 77.85 363.679 77.6767 365.499 77.33C365.153 80.5367 364.979 83.7867 364.979 87.08C364.979 88.64 365.066 92.1934 365.239 97.74C361.426 98.4334 358.219 98.8667 355.619 99.04C353.019 99.2133 349.639 99.3 345.479 99.3C335.339 99.3 328.146 96.8734 323.899 92.02C319.739 87.08 317.659 80.2334 317.659 71.48L317.789 49.51C313.716 49.6834 309.469 49.9433 305.049 50.29V27.28C309.556 27.28 313.369 25.85 316.489 22.99C319.609 20.13 321.473 16.7067 322.079 12.72H357.439C353.019 18.7867 348.123 23.64 342.749 27.28H367.839V50.29Z" fill="#BC0011"/>
<path d="M458.93 76.42C458.93 79.3667 459.276 81.4467 459.97 82.66C460.663 83.8734 462.05 84.74 464.13 85.26L463.61 97.48C460.836 97.9134 458.41 98.2167 456.33 98.39C454.336 98.5634 451.65 98.65 448.27 98.65C440.816 98.65 435.876 97.0034 433.45 93.71C431.023 90.33 429.81 86.04 429.81 80.84V77.59C427.296 84.6967 423.613 89.9834 418.76 93.45C413.993 96.9167 407.883 98.65 400.43 98.65C391.763 98.65 385.22 96.9167 380.8 93.45C376.466 89.9834 374.3 84.8267 374.3 77.98C374.3 72.3467 376.163 67.9267 379.89 64.72C383.616 61.5133 389.38 59.3034 397.18 58.09C390.593 53.41 384.006 49.3367 377.42 45.87C382.62 39.2834 388.556 34.3 395.23 30.92C401.903 27.4533 410.006 25.72 419.54 25.72C432.886 25.72 442.766 28.6233 449.18 34.43C455.68 40.15 458.93 48.99 458.93 60.95V76.42ZM422.27 48.6C417.85 48.6 413.95 49.3367 410.57 50.81C407.19 52.2834 404.156 54.4934 401.47 57.44C406.67 56.8334 413.17 56.53 420.97 56.53C424.176 56.53 426.43 56.14 427.73 55.36C429.03 54.58 429.68 53.5834 429.68 52.37C429.68 51.33 429.03 50.4634 427.73 49.77C426.43 48.99 424.61 48.6 422.27 48.6ZM408.62 77.46C413.473 77.46 417.85 76.55 421.75 74.73C425.65 72.8234 428.336 70.3533 429.81 67.32V63.94C427.73 64.98 425.433 65.8034 422.92 66.41C420.406 66.93 417.373 67.45 413.82 67.97L409.14 68.75C404.286 69.7033 401.86 71.35 401.86 73.69C401.86 76.2034 404.113 77.46 408.62 77.46Z" fill="#BC0011"/>
<path d="M498.347 62.51C498.52 66.93 499.907 70.4834 502.507 73.17C505.194 75.8567 509.137 77.2 514.337 77.2C517.197 77.2 519.754 76.68 522.007 75.64C524.26 74.5134 526.34 72.8667 528.247 70.7C535.614 73.56 544.237 76.03 554.117 78.11C551.257 84.7833 546.404 89.9834 539.557 93.71C532.797 97.4367 524 99.3 513.167 99.3C498.694 99.3 487.99 95.92 481.057 89.16C474.124 82.4 470.657 73.5167 470.657 62.51C470.657 51.5034 474.124 42.62 481.057 35.86C487.99 29.1 498.694 25.72 513.167 25.72C524 25.72 532.797 27.5833 539.557 31.31C546.404 35.0367 551.257 40.2367 554.117 46.91C546.404 48.5567 537.78 51.0267 528.247 54.32C526.34 52.1533 524.26 50.55 522.007 49.51C519.754 48.3834 517.197 47.82 514.337 47.82C509.137 47.82 505.194 49.1634 502.507 51.85C499.907 54.5367 498.52 58.09 498.347 62.51Z" fill="#BC0011"/>
<path d="M622.761 50.29C614.788 49.77 607.508 49.38 600.921 49.12L600.791 62.9C600.791 67.58 601.788 71.2634 603.781 73.95C605.861 76.55 609.501 77.85 614.701 77.85C616.694 77.85 618.601 77.6767 620.421 77.33C620.074 80.5367 619.901 83.7867 619.901 87.08C619.901 88.64 619.988 92.1934 620.161 97.74C616.348 98.4334 613.141 98.8667 610.541 99.04C607.941 99.2133 604.561 99.3 600.401 99.3C590.261 99.3 583.068 96.8734 578.821 92.02C574.661 87.08 572.581 80.2334 572.581 71.48L572.711 49.51C568.638 49.6834 564.391 49.9433 559.971 50.29V27.28C564.478 27.28 568.291 25.85 571.411 22.99C574.531 20.13 576.394 16.7067 577.001 12.72H612.361C607.941 18.7867 603.044 23.64 597.671 27.28H622.761V50.29Z" fill="#BC0011"/>
</svg>
