<svg width="28" height="52" viewBox="0 0 28 52" fill="none" xmlns="http://www.w3.org/2000/svg">
<path d="M22.6072 0H5.3534C2.40157 0 0 2.40137 0 5.3535V46.2455C0 49.1974 2.40157 51.599 5.3534 51.599H22.6072C25.5593 51.599 27.9607 49.1973 27.9607 46.2459V5.3535C27.9607 2.40137 25.5593 0 22.6072 0ZM13.9803 48.4368C12.7842 48.4368 11.8109 47.4635 11.8109 46.2674C11.8109 45.0711 12.7841 44.098 13.9803 44.098C15.1765 44.098 16.1497 45.0711 16.1497 46.2674C16.1497 47.4635 15.1765 48.4368 13.9803 48.4368ZM24.7914 6.77953V41.0602H3.16921V6.77953H24.7914Z" fill="#231815"/>
</svg>
