<svg width="1092" height="143" viewBox="0 0 1092 143" fill="none" xmlns="http://www.w3.org/2000/svg">
<path d="M59.22 13.75C76.4667 13.75 88.47 16.8267 95.23 22.98C101.99 29.0467 105.37 37.6267 105.37 48.72C105.37 56.3467 104.027 62.8467 101.34 68.22C98.6533 73.5067 93.93 77.6667 87.17 80.7C80.41 83.6467 71.0933 85.12 59.22 85.12H32.18V108H0.2C0.893333 91.1867 1.24 75.4567 1.24 60.81C1.24 46.1633 0.893333 30.4333 0.2 13.62L32.18 13.62V13.75L59.22 13.75ZM50.12 60.03C57.3133 60.03 62.6867 59.77 66.24 59.25C69.88 58.6433 72.3933 57.6033 73.78 56.13C75.2533 54.6567 75.99 52.49 75.99 49.63C75.99 46.77 75.2967 44.6467 73.91 43.26C72.61 41.7867 70.14 40.79 66.5 40.27C62.9467 39.75 57.4867 39.49 50.12 39.49L32.18 39.49V60.03L50.12 60.03ZM145.887 56.26C149.527 43.1733 158.584 36.63 173.057 36.63C175.571 36.63 177.997 36.8033 180.337 37.15L176.177 66.27C169.937 63.93 164.824 62.76 160.837 62.76C155.897 62.76 152.257 64.2333 149.917 67.18C147.577 70.1267 146.407 74.07 146.407 79.01V78.88L146.277 87.46C146.277 93.6133 146.451 100.46 146.797 108H115.727C116.421 95.52 116.767 83.7333 116.767 72.64C116.767 61.5467 116.421 49.6733 115.727 37.02C121.447 37.28 125.824 37.41 128.857 37.41C132.064 37.41 136.441 37.28 141.987 37.02L145.887 56.26ZM208.177 29.35C202.717 29.35 198.643 28.0067 195.957 25.32C193.357 22.6333 192.057 19.1233 192.057 14.79C192.057 10.5433 193.357 7.03333 195.957 4.26C198.643 1.48666 202.717 0.0999944 208.177 0.0999944C213.377 0.0999944 217.363 1.52999 220.137 4.38999C222.91 7.16333 224.297 10.63 224.297 14.79C224.297 19.1233 222.953 22.6333 220.267 25.32C217.58 28.0067 213.55 29.35 208.177 29.35ZM193.097 108C193.703 94.0467 194.007 82.52 194.007 73.42C194.007 62.5867 193.66 50.4533 192.967 37.02L224.167 37.02C223.473 49.9333 223.127 62.0667 223.127 73.42C223.127 82.9533 223.43 94.48 224.037 108H193.097ZM321.492 37.02C312.132 62.24 303.812 85.9 296.532 108H255.842C248.042 84.34 239.679 60.68 230.752 37.02H261.302L276.382 90.58L291.332 37.02L321.492 37.02ZM410.053 86.42C410.053 89.3667 410.4 91.4467 411.093 92.66C411.787 93.8733 413.173 94.74 415.253 95.26L414.733 107.48C411.96 107.913 409.533 108.217 407.453 108.39C405.46 108.563 402.773 108.65 399.393 108.65C391.94 108.65 387 107.003 384.573 103.71C382.147 100.33 380.933 96.04 380.933 90.84V87.59C378.42 94.6967 374.737 99.9833 369.883 103.45C365.117 106.917 359.007 108.65 351.553 108.65C342.887 108.65 336.343 106.917 331.923 103.45C327.59 99.9833 325.423 94.8267 325.423 87.98C325.423 82.3467 327.287 77.9267 331.013 74.72C334.74 71.5133 340.503 69.3033 348.303 68.09C341.717 63.41 335.13 59.3367 328.543 55.87C333.743 49.2833 339.68 44.3 346.353 40.92C353.027 37.4533 361.13 35.72 370.663 35.72C384.01 35.72 393.89 38.6233 400.303 44.43C406.803 50.15 410.053 58.99 410.053 70.95V86.42ZM373.393 58.6C368.973 58.6 365.073 59.3367 361.693 60.81C358.313 62.2833 355.28 64.4933 352.593 67.44C357.793 66.8333 364.293 66.53 372.093 66.53C375.3 66.53 377.553 66.14 378.853 65.36C380.153 64.58 380.803 63.5833 380.803 62.37C380.803 61.33 380.153 60.4633 378.853 59.77C377.553 58.99 375.733 58.6 373.393 58.6ZM359.743 87.46C364.597 87.46 368.973 86.55 372.873 84.73C376.773 82.8233 379.46 80.3533 380.933 77.32V73.94C378.853 74.98 376.557 75.8033 374.043 76.41C371.53 76.93 368.497 77.45 364.943 77.97L360.263 78.75C355.41 79.7033 352.983 81.35 352.983 83.69C352.983 86.2033 355.237 87.46 359.743 87.46ZM449.471 72.51C449.644 76.93 451.031 80.4833 453.631 83.17C456.318 85.8567 460.261 87.2 465.461 87.2C468.321 87.2 470.878 86.68 473.131 85.64C475.384 84.5133 477.464 82.8667 479.371 80.7C486.738 83.56 495.361 86.03 505.241 88.11C502.381 94.7833 497.528 99.9833 490.681 103.71C483.921 107.437 475.124 109.3 464.291 109.3C449.818 109.3 439.114 105.92 432.181 99.16C425.248 92.4 421.781 83.5167 421.781 72.51C421.781 61.5033 425.248 52.62 432.181 45.86C439.114 39.1 449.818 35.72 464.291 35.72C475.124 35.72 483.921 37.5833 490.681 41.31C497.528 45.0367 502.381 50.2367 505.241 56.91C497.528 58.5567 488.904 61.0267 479.371 64.32C477.464 62.1533 475.384 60.55 473.131 59.51C470.878 58.3833 468.321 57.82 465.461 57.82C460.261 57.82 456.318 59.1633 453.631 61.85C451.031 64.5367 449.644 68.09 449.471 72.51ZM592.791 37.02L589.801 44.56C581.567 66.4867 572.944 87.6333 563.931 108C559.251 118.4 552.491 126.72 543.651 132.96C534.811 139.287 523.717 142.32 510.371 142.06C508.724 134.867 507.337 129.233 506.211 125.16C505.171 121.173 503.784 117.143 502.051 113.07C506.817 114.197 511.281 114.76 515.441 114.76C522.201 114.76 527.574 113.33 531.561 110.47C528.441 101.197 524.757 91.23 520.511 80.57C516.264 69.91 510.111 55.3933 502.051 37.02H532.861C533.901 41.3533 535.331 46.38 537.151 52.1C538.971 57.82 540.791 63.3233 542.611 68.61C543.131 70.2567 543.954 72.77 545.081 76.15C546.294 79.4433 547.247 82.2167 547.941 84.47L551.321 74.2C557.821 55.3933 561.677 43 562.891 37.02H592.791ZM683.068 13.75C700.314 13.75 712.318 16.8267 719.078 22.98C725.838 29.0467 729.218 37.6267 729.218 48.72C729.218 56.3467 727.874 62.8467 725.188 68.22C722.501 73.5067 717.778 77.6667 711.018 80.7C704.258 83.6467 694.941 85.12 683.068 85.12H656.028V108H624.048C624.741 91.1867 625.088 75.4567 625.088 60.81C625.088 46.1633 624.741 30.4333 624.048 13.62H656.028V13.75L683.068 13.75ZM673.968 60.03C681.161 60.03 686.534 59.77 690.088 59.25C693.728 58.6433 696.241 57.6033 697.628 56.13C699.101 54.6567 699.838 52.49 699.838 49.63C699.838 46.77 699.144 44.6467 697.758 43.26C696.458 41.7867 693.988 40.79 690.348 40.27C686.794 39.75 681.334 39.49 673.968 39.49H656.028V60.03H673.968ZM781.435 109.3C766.615 109.3 755.695 105.92 748.675 99.16C741.742 92.3133 738.275 83.3433 738.275 72.25C738.275 61.4167 741.742 52.62 748.675 45.86C755.695 39.1 766.615 35.72 781.435 35.72C791.402 35.72 799.722 37.3667 806.395 40.66C813.155 43.8667 818.138 48.2433 821.345 53.79C824.552 59.25 826.155 65.4033 826.155 72.25C826.155 83.43 822.428 92.4 814.975 99.16C807.608 105.92 796.428 109.3 781.435 109.3ZM781.955 87.2C787.588 87.2 791.792 85.8567 794.565 83.17C797.338 80.4833 798.725 76.8867 798.725 72.38C798.725 68.1333 797.338 64.6667 794.565 61.98C791.792 59.2067 787.588 57.82 781.955 57.82C776.322 57.82 772.205 59.1633 769.605 61.85C767.005 64.5367 765.705 68.0467 765.705 72.38C765.705 76.8867 767.005 80.4833 769.605 83.17C772.205 85.8567 776.322 87.2 781.955 87.2ZM865.848 56C865.761 61.2 865.718 69.1733 865.718 79.92C865.718 92.8333 865.804 102.193 865.978 108H835.298L835.428 93.31C835.601 77.19 835.688 64.7533 835.688 56C835.688 47.68 835.601 35.8933 835.428 20.64L835.298 6.6H865.978C865.804 18.9067 865.718 28.96 865.718 36.76C865.718 45.4267 865.761 51.84 865.848 56ZM893.85 29.35C888.39 29.35 884.317 28.0067 881.63 25.32C879.03 22.6333 877.73 19.1233 877.73 14.79C877.73 10.5433 879.03 7.03333 881.63 4.26C884.317 1.48666 888.39 0.0999944 893.85 0.0999944C899.05 0.0999944 903.037 1.52999 905.81 4.38999C908.584 7.16333 909.97 10.63 909.97 14.79C909.97 19.1233 908.627 22.6333 905.94 25.32C903.254 28.0067 899.224 29.35 893.85 29.35ZM878.77 108C879.377 94.0467 879.68 82.52 879.68 73.42C879.68 62.5867 879.334 50.4533 878.64 37.02L909.84 37.02C909.147 49.9333 908.8 62.0667 908.8 73.42C908.8 82.9533 909.104 94.48 909.71 108H878.77ZM948.016 72.51C948.189 76.93 949.576 80.4833 952.176 83.17C954.862 85.8567 958.806 87.2 964.006 87.2C966.866 87.2 969.422 86.68 971.676 85.64C973.929 84.5133 976.009 82.8667 977.916 80.7C985.282 83.56 993.906 86.03 1003.79 88.11C1000.93 94.7833 996.072 99.9833 989.226 103.71C982.466 107.437 973.669 109.3 962.836 109.3C948.362 109.3 937.659 105.92 930.726 99.16C923.792 92.4 920.326 83.5167 920.326 72.51C920.326 61.5033 923.792 52.62 930.726 45.86C937.659 39.1 948.362 35.72 962.836 35.72C973.669 35.72 982.466 37.5833 989.226 41.31C996.072 45.0367 1000.93 50.2367 1003.79 56.91C996.072 58.5567 987.449 61.0267 977.916 64.32C976.009 62.1533 973.929 60.55 971.676 59.51C969.422 58.3833 966.866 57.82 964.006 57.82C958.806 57.82 954.862 59.1633 952.176 61.85C949.576 64.5367 948.189 68.09 948.016 72.51ZM1091.34 37.02L1088.35 44.56C1080.11 66.4867 1071.49 87.6333 1062.48 108C1057.8 118.4 1051.04 126.72 1042.2 132.96C1033.36 139.287 1022.26 142.32 1008.92 142.06C1007.27 134.867 1005.88 129.233 1004.76 125.16C1003.72 121.173 1002.33 117.143 1000.6 113.07C1005.36 114.197 1009.83 114.76 1013.99 114.76C1020.75 114.76 1026.12 113.33 1030.11 110.47C1026.99 101.197 1023.3 91.23 1019.06 80.57C1014.81 69.91 1008.66 55.3933 1000.6 37.02H1031.41C1032.45 41.3533 1033.88 46.38 1035.7 52.1C1037.52 57.82 1039.34 63.3233 1041.16 68.61C1041.68 70.2567 1042.5 72.77 1043.63 76.15C1044.84 79.4433 1045.79 82.2167 1046.49 84.47L1049.87 74.2C1056.37 55.3933 1060.22 43 1061.44 37.02L1091.34 37.02Z" fill="#BC0011"/>
</svg>
