<svg width="245" height="62" viewBox="0 0 245 62" fill="none" xmlns="http://www.w3.org/2000/svg">
<path d="M23.8449 34.3852C24.3198 35.4214 24.5788 36.3713 24.5788 37.3643C24.5788 39.6094 23.1972 41.9841 20.3908 44.4883C18.4047 46.3017 15.771 47.2084 12.4465 47.2084C9.12196 47.2084 4.54534 45.4382 2.64561 41.8546L8.08575 37.2779C9.03561 39.3072 10.5468 40.3434 12.576 40.3434C14.6053 40.3434 15.5551 39.5663 15.5551 38.0119C15.5551 36.4576 14.3462 35.7236 11.8852 34.9033C3.725 32.0537 -0.247157 26.6999 0.0118966 18.7988C0.0982479 14.4812 1.7821 10.8113 4.9771 7.83215C8.1721 4.85303 12.0147 3.42822 16.4618 3.60092C20.0454 3.68728 22.1178 3.77363 22.6359 3.85998L26.9535 25.5773C25.9173 24.9297 23.9744 24.5411 21.0384 24.4548C19.0092 24.4116 17.6707 24.4979 17.0231 24.757C15.9869 25.1456 15.5551 26.0523 15.6415 27.4771C15.7278 29.0314 16.8072 30.1108 18.7501 30.7584C21.3839 31.6651 23.0677 32.9172 23.8017 34.4284L23.8449 34.3852Z" fill="#231815"/>
<path d="M48.9299 46.3881C47.7641 46.5608 46.5552 46.6039 45.3031 46.5608C41.331 46.2585 37.9633 44.661 35.1568 41.8114C32.3504 38.9618 30.9688 35.6805 30.9688 31.881C30.9688 28.0816 30.9688 30.8016 31.0552 30.1972L32.4799 18.0216L27.5147 18.4102L26.7808 11.0272L33.3435 10.9408L34.466 1.7876L40.1652 2.08982L40.4674 10.8113L45.3463 10.725L46.2962 16.64L40.6833 17.115L40.9856 26.1818C40.8992 27.7362 41.331 29.0746 42.3672 30.2835C43.4034 31.4493 44.6987 32.1401 46.253 32.2696L48.8004 46.3017L48.9299 46.3881Z" fill="#231815"/>
<path d="M80.9662 33.306L60.1124 39.3074C61.2349 41.5093 63.0483 42.5887 65.5525 42.5887C68.0567 42.5887 67.7977 42.2865 68.7475 41.7252L74.1013 44.8339C71.2085 46.9063 67.9704 47.9425 64.3004 47.9425C60.6305 47.9425 57.1333 46.7768 54.111 44.4453C51.1318 42.1138 49.2321 39.0915 48.4118 35.3352C48.1527 34.1695 48.0232 33.0037 48.0232 31.7948C48.0232 28.0385 49.2321 24.6708 51.65 21.6917C54.0678 18.7126 57.1333 16.7697 60.9327 15.9062C62.1416 15.6471 63.3506 15.5176 64.5595 15.5176C68.3589 15.5176 71.7698 16.6833 74.7921 19.058C77.8144 21.3895 79.7141 24.4118 80.5345 28.1249C80.8367 29.5497 81.0094 31.2767 80.923 33.2628L80.9662 33.306ZM70.8199 31.3199C69.611 29.5065 67.884 28.5998 65.682 28.5998C63.4801 28.5998 62.4007 29.2474 61.1918 30.4995C59.9829 31.7516 59.4216 33.2628 59.5943 35.033L70.8199 31.3631V31.3199Z" fill="#231815"/>
<path d="M112.959 29.4634C112.959 32.0971 112.269 34.5581 110.844 36.8464C109.419 39.1347 107.476 40.9049 105.015 42.157C103.029 43.1069 100.957 43.5818 98.7547 43.5818C96.5527 43.5818 93.4441 42.8478 91.1557 41.3367L90.5945 61.1543H84.6794L78.678 17.2447L91.8897 15.3018V17.7196C94.178 16.3812 96.5959 15.7335 99.1432 15.7335C101.691 15.7335 104.195 16.4243 106.44 17.8059C108.685 19.1876 110.412 21.0873 111.578 23.5051C112.485 25.3617 112.916 27.3909 112.916 29.5065L112.959 29.4634ZM102.295 32.1834C102.295 31.3631 102.122 30.6291 101.734 29.9383C100.827 27.9954 99.3159 27.0455 97.114 27.0455C94.912 27.0455 95.5597 27.2182 94.8257 27.6068C92.8828 28.5567 91.8897 30.1542 91.8897 32.3561C91.8897 34.5581 92.0624 33.8673 92.451 34.6013C93.3577 36.4578 94.8688 37.4077 97.0708 37.4077C99.2728 37.4077 98.6251 37.235 99.3591 36.9328C101.302 35.9829 102.295 34.3854 102.295 32.1834Z" fill="#231815"/>
<path d="M151.343 17.4171L145.902 55.239L137.958 55.0663L138.908 42.7181L132.259 42.8908L131.309 54.9799L119.436 55.6276L117.752 16.0355L134.331 14.7402L133.036 31.7946L139.685 32.4423L140.894 16.4241L151.299 17.3739L151.343 17.4171Z" fill="#231815"/>
<path d="M169.865 50.4035L163.518 51.0511C163.216 52.4327 162.914 53.7712 162.655 54.9801L149.659 53.7712C151.99 43.4954 155.574 34.3853 160.409 26.3546C162.396 23.0301 164.554 20.0942 166.886 17.4604C170.772 19.4034 174.226 26.3115 177.248 38.2279C178.543 43.1931 179.666 48.9787 180.616 55.5414L170.21 55.2823C170.124 52.994 169.994 51.3533 169.908 50.4035H169.865ZM169.045 44.3589C168.57 41.7252 167.965 39.5232 167.274 37.7098C166.324 40.7753 165.634 42.9341 165.288 44.1862L169.045 44.3589Z" fill="#231815"/>
<path d="M193.611 55.4551V55.5414L186.228 56.4481L178.37 14.7404L191.323 12.9702L193.136 46.8199L207.859 41.5093L213.429 53.469L193.611 55.4983V55.4551Z" fill="#231815"/>
<path d="M228.584 54.2031C228.584 54.2463 222.626 54.2031 222.626 54.2031L220.985 23.9369L231.477 23.8506L229.188 47.9858L241.493 45.568L244.559 54.5485L228.584 54.1599V54.2031Z" fill="#231815"/>
<path d="M210.215 1.79421e-05L202.242 1.521L207.978 31.5903L215.951 30.0694L210.215 1.79421e-05Z" fill="#231815"/>
<path d="M230.527 23.8936H207.816V31.363H230.527V23.8936Z" fill="#231815"/>
</svg>
