<svg width="168" height="42" viewBox="0 0 168 42" fill="none" xmlns="http://www.w3.org/2000/svg">
<path d="M16.3635 23.6025C16.6859 24.2903 16.8579 24.9781 16.8579 25.6443C16.8579 27.1918 15.9122 28.8252 13.9993 30.5446C12.6453 31.7912 10.8185 32.4145 8.54024 32.4145C6.26203 32.4145 3.10263 31.1894 1.81307 28.7178L5.55278 25.5798C6.21905 26.9769 7.25069 27.6646 8.62621 27.6646C10.0017 27.6646 10.668 27.1273 10.668 26.0742C10.668 25.021 9.82979 24.5052 8.13188 23.9249C2.54382 21.9906 -0.164242 18.2939 0.00769883 12.8563C0.0721765 9.89029 1.21128 7.37566 3.42501 5.31238C5.63875 3.24909 8.26084 2.28193 11.2913 2.38939C13.7414 2.45387 15.1599 2.51834 15.5253 2.56133L18.4913 17.4772C17.8035 17.0258 16.428 16.7894 14.4077 16.7034C13.0107 16.6604 12.0865 16.7464 11.6567 16.9184C10.9689 17.1763 10.6465 17.7995 10.711 18.7882C10.7755 19.8628 11.5062 20.6151 12.8602 21.0449C14.6656 21.6682 15.8262 22.5064 16.3205 23.581L16.3635 23.6025Z" fill="#FFF9F9"/>
<path d="M33.6219 31.8555C32.8052 31.963 31.9885 32.006 31.1503 31.963C28.4422 31.7481 26.121 30.652 24.1867 28.7176C22.2524 26.7618 21.2852 24.5051 21.2852 21.883C21.2852 19.2609 21.2852 21.1308 21.3497 20.7224L22.3383 12.3403L18.921 12.6197L18.4267 7.54746L22.9401 7.48299L23.7139 1.20716L27.6255 1.42209L27.8404 7.41851L31.1933 7.35403L31.8595 11.4376L28.0124 11.76L28.2273 17.9928C28.1628 19.0675 28.4852 19.9917 29.1945 20.8084C29.9037 21.6251 30.8064 22.0764 31.8595 22.1839L33.6219 31.8126V31.8555Z" fill="#FFF9F9"/>
<path d="M55.6518 22.8932L41.3378 27.0197C42.1115 28.5242 43.3581 29.2765 45.0775 29.2765C46.7969 29.2765 46.625 29.083 47.2912 28.6747L50.9879 30.8239C49.0106 32.2639 46.7754 32.9732 44.2608 32.9732C41.7461 32.9732 39.3175 32.1779 37.2757 30.5875C35.2124 28.9971 33.9229 26.9123 33.3641 24.3332C33.1706 23.5165 33.0846 22.7212 33.0846 21.9045C33.0846 19.3254 33.9014 17.0257 35.5563 14.9624C37.2112 12.8991 39.339 11.5881 41.9396 10.9863C42.7778 10.7929 43.616 10.7069 44.4112 10.7069C47.0118 10.7069 49.3545 11.5236 51.4393 13.1356C53.5241 14.7475 54.8351 16.8323 55.3724 19.3684C55.5874 20.357 55.6733 21.5391 55.6518 22.8932ZM48.6453 21.5176C47.807 20.2711 46.625 19.6478 45.1205 19.6478C43.616 19.6478 42.8853 20.0776 42.047 20.9373C41.2088 21.797 40.8435 22.8287 40.9509 24.0538L48.6667 21.5176H48.6453Z" fill="#FFF9F9"/>
<path d="M77.6173 20.2496C77.6173 22.055 77.123 23.7314 76.1558 25.3219C75.1886 26.8908 73.8561 28.1159 72.1582 28.9541C70.8042 29.6204 69.3642 29.9428 67.8597 29.9428C66.3552 29.9428 64.2059 29.4269 62.637 28.3953L62.2501 42.0001H58.1665L54.04 11.8245L63.1313 10.492V12.1469C64.7003 11.2227 66.3767 10.7714 68.1176 10.7714C69.8585 10.7714 71.5779 11.2442 73.1468 12.2114C74.6943 13.1571 75.8764 14.4681 76.6931 16.123C77.3164 17.4126 77.6173 18.7881 77.6173 20.2496ZM70.2883 22.1195C70.2883 21.5607 70.1594 21.0448 69.9015 20.572C69.2782 19.261 68.2251 18.5947 66.7421 18.5947C65.2591 18.5947 65.6674 18.7236 65.1516 18.9816C63.7976 19.6478 63.1313 20.7225 63.1313 22.2269C63.1313 23.7314 63.2603 23.2586 63.5182 23.7744C64.1415 25.0639 65.1946 25.7087 66.6776 25.7087C68.1606 25.7087 67.7522 25.6013 68.268 25.3863C69.6221 24.7201 70.2883 23.6454 70.2883 22.141V22.1195Z" fill="#FFF9F9"/>
<path d="M103.989 11.9749L100.249 37.9809L94.7898 37.8734L95.456 29.3839L90.8781 29.4913L90.2119 37.809L82.0662 38.2603L80.9056 11.0507L92.2966 10.1695L91.4154 21.9045L95.9933 22.3558L96.8101 11.3301L103.967 11.9964L103.989 11.9749Z" fill="#FFF9F9"/>
<path d="M116.712 34.6066L112.371 35.0579C112.156 36.0036 111.941 36.9063 111.769 37.766L102.85 36.9493C104.462 29.8997 106.933 23.6239 110.222 18.1218C111.576 15.8436 113.059 13.8018 114.692 12.0179C117.379 13.3505 119.743 18.1003 121.806 26.289C122.687 29.7063 123.461 33.6609 124.127 38.1959L116.97 38.0239C116.906 36.455 116.82 35.3159 116.755 34.6711L116.712 34.6066ZM116.153 30.48C115.831 28.6747 115.423 27.1487 114.95 25.9021C114.284 27.9869 113.832 29.4914 113.574 30.3726L116.153 30.48Z" fill="#FFF9F9"/>
<path d="M133.047 38.0884V38.1314L127.974 38.7547L122.58 10.1051L131.478 8.88003L132.724 32.135L142.847 28.4812L146.651 36.7129L133.025 38.1099L133.047 38.0884Z" fill="#FFF9F9"/>
<path d="M157.032 37.2287V37.2717L152.927 37.2287L151.809 16.4454L159.009 16.4024L157.419 32.9731L165.866 31.3182L167.993 37.4866L157.011 37.2072L157.032 37.2287Z" fill="#FFF9F9"/>
<path d="M144.339 0L138.871 1.04307L142.813 21.7116L148.281 20.6685L144.339 0Z" fill="#FFF9F9"/>
<path d="M158.386 16.4024H142.783V21.5391H158.386V16.4024Z" fill="#FFF9F9"/>
</svg>
