<svg width="407" height="97" viewBox="0 0 407 97" fill="none" xmlns="http://www.w3.org/2000/svg">
<path d="M109.27 0.749997C108.663 15.3967 108.36 31.0833 108.36 47.81C108.36 64.6233 108.663 80.3533 109.27 95L62.73 95L31.27 24.02L33.61 95H0.2C0.893333 78.1867 1.24 62.4567 1.24 47.81C1.24 33.25 0.893333 17.5633 0.2 0.749997L48.04 0.749997L79.63 73.68L77.42 0.749997L109.27 0.749997ZM188.433 62.5H146.053C146.746 66.3133 148.436 69.4333 151.123 71.86C153.896 74.2 157.796 75.37 162.823 75.37C166.463 75.37 169.886 74.6767 173.093 73.29C176.3 71.8167 178.856 69.78 180.763 67.18C186.57 70.04 194.283 73.1167 203.903 76.41C201.216 82.4767 196.32 87.33 189.213 90.97C182.193 94.5233 173.006 96.3 161.653 96.3C146.92 96.3 136 92.92 128.893 86.16C121.873 79.3133 118.363 70.3433 118.363 59.25C118.363 48.4167 121.873 39.62 128.893 32.86C135.913 26.1 146.833 22.72 161.653 22.72C170.493 22.72 178.163 24.1933 184.663 27.14C191.163 30.0867 196.146 34.2033 199.613 39.49C203.08 44.69 204.813 50.67 204.813 57.43C204.813 59.6833 204.726 61.3733 204.553 62.5H188.433ZM163.473 42.35C159.14 42.35 155.586 43.1733 152.813 44.82C150.04 46.4667 148.09 48.72 146.963 51.58H177.643C176.603 48.8067 174.913 46.5967 172.573 44.95C170.233 43.2167 167.2 42.35 163.473 42.35ZM280.807 74.98L291.987 24.02L317.857 24.02L303.427 95H268.717L260.527 61.85L251.297 95H217.887L203.457 24.02L229.327 24.02L240.377 74.85L247.917 24.02H273.527L280.807 74.98ZM365.032 96.3C357.752 96.3 350.342 95.3033 342.802 93.31C335.348 91.23 328.328 88.11 321.742 83.95L335.392 65.36C339.378 68.22 344.188 70.4733 349.822 72.12C355.455 73.68 360.308 74.46 364.382 74.46C368.282 74.46 371.272 73.94 373.352 72.9C375.518 71.7733 376.602 70.3433 376.602 68.61C376.602 67.2233 376.082 66.14 375.042 65.36C374.002 64.58 372.572 64.19 370.752 64.19C369.625 64.19 368.325 64.2333 366.852 64.32C365.465 64.4067 364.338 64.4933 363.472 64.58C358.965 65.1 354.328 65.36 349.562 65.36C341.848 65.36 335.565 63.93 330.712 61.07C325.945 58.1233 323.562 53.3567 323.562 46.77C323.562 39.1433 327.158 33.25 334.352 29.09C341.545 24.8433 352.118 22.72 366.072 22.72C372.918 22.72 379.808 23.7167 386.742 25.71C393.762 27.6167 399.958 30.52 405.332 34.42L390.382 49.5C385.442 46.9 380.805 45.08 376.472 44.04C372.225 42.9133 367.935 42.35 363.602 42.35C360.568 42.35 357.968 42.9567 355.802 44.17C353.635 45.3833 352.552 46.77 352.552 48.33C352.552 49.5433 352.985 50.4967 353.852 51.19C354.805 51.8833 356.018 52.23 357.492 52.23C358.965 52.23 361.002 52.1 363.602 51.84C369.928 51.4067 374.652 51.19 377.772 51.19C386.785 51.19 393.762 52.7067 398.702 55.74C403.642 58.7733 406.112 63.41 406.112 69.65C406.112 79.01 402.472 85.8133 395.192 90.06C387.912 94.22 377.858 96.3 365.032 96.3Z" fill="#BC0011"/>
</svg>
