<svg width="2173" height="118" viewBox="0 0 2173 118" fill="none" xmlns="http://www.w3.org/2000/svg">
<path d="M2047 5.06396C2053.95 5.06396 2060.36 6.23482 2066.21 8.57652C2072.14 10.9182 2076.82 14.1747 2080.26 18.3458C2083.7 22.517 2085.42 27.3102 2085.42 32.7254C2085.42 37.1161 2084.36 40.8848 2082.24 44.0314C2080.11 47.1781 2077.41 49.7393 2074.11 51.7151L2068.3 55.0081C2065.15 56.7644 2063.06 57.9719 2062.04 58.6305C2060.36 59.655 2059.18 60.7892 2058.53 62.0333C2057.87 63.2773 2057.54 64.7409 2057.54 66.424H2032.4C2032.4 60.8624 2033.72 56.2156 2036.35 52.4835C2038.99 48.6782 2043.41 45.3852 2049.63 42.6044C2052.42 41.3604 2054.43 40.0066 2055.67 38.543C2056.99 37.0063 2057.65 35.2866 2057.65 33.384C2057.65 31.2618 2056.62 29.4323 2054.57 27.8956C2052.6 26.3588 2050.07 25.5905 2047 25.5905C2042.83 25.5905 2039.57 26.615 2037.23 28.664C2034.96 30.713 2033.83 33.6035 2033.83 37.3356C2033.83 38.7992 2034.05 40.4823 2034.49 42.3849C2028.63 40.7018 2019.89 39.8602 2008.25 39.8602C2008.18 39.2016 2008.14 38.2869 2008.14 37.1161C2008.14 30.9691 2009.75 25.4807 2012.97 20.6509C2016.27 15.748 2020.84 11.9427 2026.69 9.23512C2032.62 6.45434 2039.39 5.06396 2047 5.06396ZM2057.65 94.1951L2032.18 94.1951V74.6565L2057.65 74.6565V94.1951Z" fill="#E61010"/>
<path d="M1947.8 69.8267C1969.02 69.6804 1986.59 69.3145 2000.49 68.729C1999.54 72.4611 1998.95 76.0469 1998.73 79.4863C1998.52 82.9256 1998.41 87.0968 1998.41 91.9998L1921.02 91.9998C1921.6 77.8032 1921.9 64.5213 1921.9 52.1542C1921.9 39.787 1921.6 26.5052 1921.02 12.3086L1947.8 12.3086V69.8267Z" fill="#E61010"/>
<path d="M1861.73 69.8267C1882.95 69.6804 1900.51 69.3145 1914.41 68.729C1913.46 72.4611 1912.88 76.0469 1912.66 79.4863C1912.44 82.9256 1912.33 87.0968 1912.33 91.9998L1834.94 91.9998C1835.53 77.8032 1835.82 64.5213 1835.82 52.1542C1835.82 39.787 1835.53 26.5052 1834.94 12.3086L1861.73 12.3086V69.8267Z" fill="#E61010"/>
<path d="M1802.8 91.9998C1801.41 87.8286 1799.54 82.5963 1797.2 76.303L1762.19 76.303L1756.7 91.9998H1729.15L1759.88 12.3086L1800.27 12.3086L1831.23 91.9998H1802.8ZM1790.94 59.1793C1788.16 51.4956 1785.31 43.8118 1782.38 36.1281L1779.75 28.9932C1777.19 35.6525 1773.42 45.7145 1768.44 59.1793L1790.94 59.1793Z" fill="#E61010"/>
<path d="M1724.76 12.3086C1724.25 24.6757 1723.99 37.9576 1723.99 52.1542C1723.99 66.3508 1724.25 79.6326 1724.76 91.9998H1698.96V62.143L1658.57 62.143V91.9998H1632.77C1633.36 77.8032 1633.65 64.5213 1633.65 52.1542C1633.65 39.787 1633.36 26.5052 1632.77 12.3086L1658.57 12.3086V42.1653L1698.96 42.1653V12.3086L1724.76 12.3086Z" fill="#E61010"/>
<path d="M1600.13 30.9692C1604.89 30.9692 1609.17 32.323 1612.97 35.0306C1616.78 37.7382 1619.74 41.4337 1621.86 46.1171C1623.99 50.7274 1625.05 55.8133 1625.05 61.3748C1625.05 66.8632 1623.99 72.0588 1621.86 76.9618C1619.74 81.7916 1616.74 85.7066 1612.86 88.7069C1609.06 91.634 1604.7 93.0976 1599.8 93.0976C1594.09 93.0976 1589.19 91.9268 1585.09 89.5851C1581.07 87.1702 1578.07 83.4747 1576.09 78.4985C1576.09 82.6697 1576.24 89.3655 1576.53 98.586C1576.82 107.514 1576.97 113.807 1576.97 117.466H1552.16C1552.6 103.855 1552.82 89.6216 1552.82 74.7664C1552.82 59.9113 1552.6 45.6781 1552.16 32.0669H1573.24L1576.42 45.7878C1578.47 40.6654 1581.54 36.9333 1585.64 34.5916C1589.74 32.1767 1594.57 30.9692 1600.13 30.9692ZM1588.39 73.3395C1591.68 73.3395 1594.42 72.315 1596.62 70.266C1598.89 68.1438 1600.02 65.3996 1600.02 62.0334C1600.02 58.3013 1599 55.2644 1596.95 52.9227C1594.9 50.581 1592.12 49.4102 1588.6 49.4102C1584.58 49.4102 1581.54 50.3981 1579.49 52.3739C1577.45 54.2765 1576.42 57.4964 1576.42 62.0334C1576.42 64.5947 1577.08 66.7534 1578.4 68.5097C1579.71 70.1928 1581.29 71.4368 1583.12 72.2418C1584.95 72.9736 1586.7 73.3395 1588.39 73.3395Z" fill="#E61010"/>
<path d="M1530.69 64.5581H1494.91C1495.49 67.7779 1496.92 70.4123 1499.19 72.4613C1501.53 74.4371 1504.82 75.425 1509.07 75.425C1512.14 75.425 1515.03 74.8396 1517.74 73.6688C1520.45 72.4247 1522.6 70.7051 1524.21 68.5097C1529.12 70.9246 1535.63 73.5224 1543.75 76.3032C1541.48 81.4257 1537.35 85.5237 1531.35 88.5972C1525.42 91.5975 1517.67 93.0976 1508.08 93.0976C1495.64 93.0976 1486.42 90.2437 1480.42 84.5358C1474.49 78.7547 1471.53 71.1807 1471.53 61.8139C1471.53 52.6666 1474.49 45.239 1480.42 39.5311C1486.35 33.8232 1495.57 30.9692 1508.08 30.9692C1515.54 30.9692 1522.02 32.2133 1527.51 34.7013C1533 37.1894 1537.2 40.6654 1540.13 45.1292C1543.06 49.5199 1544.52 54.5692 1544.52 60.2771C1544.52 62.1798 1544.45 63.6068 1544.3 64.5581L1530.69 64.5581ZM1509.62 47.5441C1505.96 47.5441 1502.96 48.2393 1500.61 49.6297C1498.27 51.0201 1496.63 52.9227 1495.68 55.3376L1521.58 55.3376C1520.7 52.9959 1519.28 51.1299 1517.3 49.7395C1515.32 48.2759 1512.76 47.5441 1509.62 47.5441Z" fill="#E61010"/>
<path d="M1466.07 51.7155C1459.34 51.2764 1453.19 50.9471 1447.63 50.7276L1447.52 62.3629C1447.52 66.3145 1448.36 69.4246 1450.05 71.6931C1451.8 73.8885 1454.88 74.9862 1459.27 74.9862C1460.95 74.9862 1462.56 74.8398 1464.1 74.5471C1463.8 77.2547 1463.66 79.9989 1463.66 82.7797C1463.66 84.0969 1463.73 87.0972 1463.88 91.7806C1460.66 92.366 1457.95 92.7319 1455.75 92.8783C1453.56 93.0246 1450.7 93.0978 1447.19 93.0978C1438.63 93.0978 1432.56 91.0488 1428.97 86.9508C1425.46 82.7797 1423.7 76.9986 1423.7 69.6076L1423.81 51.0569C1420.37 51.2032 1416.79 51.4228 1413.05 51.7155V32.2866C1416.86 32.2866 1420.08 31.0792 1422.71 28.6643C1425.35 26.2494 1426.92 23.3589 1427.43 19.9927L1457.29 19.9927C1453.56 25.1152 1449.42 29.2131 1444.89 32.2866H1466.07V51.7155Z" fill="#E61010"/>
<path d="M1314.94 82.5598C1317.43 78.8277 1319.48 75.3517 1321.09 72.1319C1322.77 68.9121 1324.38 65.18 1325.92 60.9356C1331.11 63.9359 1337.15 66.2776 1344.03 67.9607C1350.91 69.6438 1357.31 70.4854 1363.24 70.4854C1369.31 70.4854 1373.59 69.9731 1376.08 68.9486C1378.57 67.851 1379.81 66.6801 1379.81 65.4361C1379.81 60.9722 1373.01 58.7403 1359.4 58.7403C1344.47 58.7403 1333.64 57.2035 1326.91 54.13C1320.17 50.9834 1316.81 45.9341 1316.81 38.9821C1316.81 29.103 1320.9 21.8218 1329.1 17.1384C1337.3 12.455 1347.94 10.1133 1361.04 10.1133C1368.65 10.1133 1376.45 11.1012 1384.42 13.077C1392.47 14.9796 1399.72 17.6141 1406.16 20.9803C1404.03 25.81 1401.8 31.7009 1399.46 38.6528C1399.02 40.1164 1398.66 41.2141 1398.36 41.9458C1394.63 38.9455 1389 36.4575 1381.46 34.4817C1373.92 32.4327 1367.26 31.4082 1361.48 31.4082C1354.53 31.4082 1349.85 31.8838 1347.43 32.8351C1345.02 33.7133 1343.81 35.0305 1343.81 36.7868C1343.81 38.5431 1345.46 39.97 1348.75 41.0677C1352.11 42.0922 1356.94 42.6044 1363.24 42.6044C1378.75 42.6044 1390.02 44.3973 1397.05 47.983C1404.07 51.4956 1407.58 56.9108 1407.58 64.2286C1407.58 74.4736 1403.85 81.8646 1396.39 86.4017C1388.92 90.8655 1377.62 93.0975 1362.47 93.0975C1354.35 93.0975 1346.08 92.2193 1337.66 90.4631C1329.25 88.6336 1321.67 85.9992 1314.94 82.5598Z" fill="#E61010"/>
<path d="M1259.45 91.9999C1259.89 81.2427 1260.11 71.3271 1260.11 62.253C1260.11 59.0331 1259.31 56.4719 1257.7 54.5692C1256.16 52.6666 1254.18 51.7153 1251.77 51.7153C1249.35 51.7153 1247.3 52.813 1245.62 55.0083C1243.94 57.1305 1242.95 60.0576 1242.66 63.7897C1242.51 69.3513 1242.44 73.3029 1242.44 75.6446C1242.44 80.6207 1242.58 86.0725 1242.88 91.9999H1216.64C1217.23 81.4623 1217.52 71.51 1217.52 62.1432C1217.52 52.7764 1217.23 42.7509 1216.64 32.0669C1221.47 32.2864 1225.17 32.3962 1227.73 32.3962C1230.44 32.3962 1234.13 32.2864 1238.82 32.0669L1242 48.2027C1243.68 42.3485 1246.32 38.0309 1249.9 35.2502C1253.49 32.3962 1257.66 30.9692 1262.42 30.9692C1266.81 30.9692 1270.61 31.9571 1273.83 33.933C1277.05 35.8356 1279.47 38.4334 1281.08 41.7264C1282.76 45.0195 1283.6 48.715 1283.6 52.813V68.6195C1283.6 78.3522 1283.78 86.1457 1284.15 91.9999L1259.45 91.9999Z" fill="#E61010"/>
<path d="M1193.19 25.5907C1188.58 25.5907 1185.14 24.4565 1182.87 22.1879C1180.68 19.9194 1179.58 16.9557 1179.58 13.2968C1179.58 9.71105 1180.68 6.74733 1182.87 4.40562C1185.14 2.06392 1188.58 0.893066 1193.19 0.893066C1197.58 0.893066 1200.95 2.1005 1203.29 4.51538C1205.63 6.85709 1206.8 9.78422 1206.8 13.2968C1206.8 16.9557 1205.67 19.9194 1203.4 22.1879C1201.13 24.4565 1197.73 25.5907 1193.19 25.5907ZM1180.46 92C1180.97 80.2183 1181.23 70.4856 1181.23 62.8019C1181.23 53.6546 1180.93 43.4097 1180.35 32.067H1206.69C1206.11 42.9706 1205.81 53.2156 1205.81 62.8019C1205.81 70.8515 1206.07 80.5842 1206.58 92H1180.46Z" fill="#E61010"/>
<path d="M1149.95 51.7155C1143.22 51.2764 1137.07 50.9471 1131.51 50.7276L1131.4 62.3629C1131.4 66.3145 1132.24 69.4246 1133.93 71.6931C1135.68 73.8885 1138.76 74.9862 1143.15 74.9862C1144.83 74.9862 1146.44 74.8398 1147.98 74.5471C1147.68 77.2547 1147.54 79.9989 1147.54 82.7797C1147.54 84.0969 1147.61 87.0972 1147.76 91.7806C1144.54 92.366 1141.83 92.7319 1139.64 92.8783C1137.44 93.0246 1134.59 93.0978 1131.07 93.0978C1122.51 93.0978 1116.44 91.0488 1112.85 86.9508C1109.34 82.7797 1107.58 76.9986 1107.58 69.6076L1107.69 51.0569C1104.25 51.2032 1100.67 51.4228 1096.94 51.7155V32.2866C1100.74 32.2866 1103.96 31.0792 1106.6 28.6643C1109.23 26.2494 1110.8 23.3589 1111.32 19.9927L1141.17 19.9927C1137.44 25.1152 1133.31 29.2131 1128.77 32.2866H1149.95V51.7155Z" fill="#E61010"/>
<path d="M1078.76 64.5581H1042.97C1043.56 67.7779 1044.99 70.4123 1047.25 72.4613C1049.6 74.4371 1052.89 75.425 1057.13 75.425C1060.21 75.425 1063.1 74.8396 1065.8 73.6688C1068.51 72.4247 1070.67 70.7051 1072.28 68.5097C1077.18 70.9246 1083.7 73.5224 1091.82 76.3032C1089.55 81.4257 1085.42 85.5237 1079.42 88.5972C1073.49 91.5975 1065.73 93.0976 1056.15 93.0976C1043.71 93.0976 1034.48 90.2437 1028.48 84.5358C1022.56 78.7547 1019.59 71.1807 1019.59 61.8139C1019.59 52.6666 1022.56 45.239 1028.48 39.5311C1034.41 33.8232 1043.63 30.9692 1056.15 30.9692C1063.61 30.9692 1070.09 32.2133 1075.57 34.7013C1081.06 37.1894 1085.27 40.6654 1088.2 45.1292C1091.12 49.5199 1092.59 54.5692 1092.59 60.2771C1092.59 62.1798 1092.51 63.6068 1092.37 64.5581L1078.76 64.5581ZM1057.68 47.5441C1054.02 47.5441 1051.02 48.2393 1048.68 49.6297C1046.34 51.0201 1044.69 52.9227 1043.74 55.3376L1069.65 55.3376C1068.77 52.9959 1067.34 51.1299 1065.37 49.7395C1063.39 48.2759 1060.83 47.5441 1057.68 47.5441Z" fill="#E61010"/>
<path d="M1011.75 48.093C1011.68 52.4837 1011.64 59.2161 1011.64 68.2902C1011.64 79.1938 1011.72 87.097 1011.86 92H985.959L986.069 79.5962C986.215 65.9851 986.288 55.484 986.288 48.093C986.288 41.0679 986.215 31.1156 986.069 18.2362L985.959 6.38135L1011.86 6.38135C1011.72 16.7727 1011.64 25.2613 1011.64 31.8474C1011.64 39.1652 1011.68 44.5804 1011.75 48.093Z" fill="#E61010"/>
<path d="M962.507 25.5907C957.896 25.5907 954.457 24.4565 952.189 22.1879C949.993 19.9194 948.896 16.9557 948.896 13.2968C948.896 9.71105 949.993 6.74733 952.189 4.40562C954.457 2.06392 957.896 0.893066 962.507 0.893066C966.897 0.893066 970.264 2.1005 972.605 4.51538C974.947 6.85709 976.118 9.78422 976.118 13.2968C976.118 16.9557 974.984 19.9194 972.715 22.1879C970.447 24.4565 967.044 25.5907 962.507 25.5907ZM949.774 92C950.286 80.2183 950.542 70.4856 950.542 62.8019C950.542 53.6546 950.249 43.4097 949.664 32.067H976.008C975.423 42.9706 975.13 53.2156 975.13 62.8019C975.13 70.8515 975.386 80.5842 975.898 92H949.774Z" fill="#E61010"/>
<path d="M902.319 93.0976C889.805 93.0976 880.585 90.2437 874.657 84.5358C868.803 78.7547 865.876 71.1807 865.876 61.8139C865.876 52.6666 868.803 45.239 874.657 39.5311C880.585 33.8232 889.805 30.9692 902.319 30.9692C910.734 30.9692 917.759 32.3596 923.394 35.1404C929.102 37.848 933.31 41.5435 936.017 46.2269C938.725 50.8371 940.079 56.0328 940.079 61.8139C940.079 71.2539 936.932 78.8278 930.639 84.5358C924.419 90.2437 914.979 93.0976 902.319 93.0976ZM902.758 74.4371C907.514 74.4371 911.064 73.3029 913.405 71.0343C915.747 68.7658 916.918 65.7289 916.918 61.9237C916.918 58.3379 915.747 55.4108 913.405 53.1423C911.064 50.8006 907.514 49.6297 902.758 49.6297C898.001 49.6297 894.525 50.764 892.33 53.0325C890.135 55.301 889.037 58.2647 889.037 61.9237C889.037 65.7289 890.135 68.7658 892.33 71.0343C894.525 73.3029 898.001 74.4371 902.758 74.4371Z" fill="#E61010"/>
<path d="M860.421 51.7155C853.689 51.2764 847.542 50.9471 841.98 50.7276L841.87 62.3629C841.87 66.3145 842.712 69.4246 844.395 71.6931C846.151 73.8885 849.225 74.9862 853.615 74.9862C855.299 74.9862 856.908 74.8398 858.445 74.5471C858.152 77.2547 858.006 79.9989 858.006 82.7797C858.006 84.0969 858.079 87.0972 858.226 91.7806C855.006 92.366 852.298 92.7319 850.103 92.8783C847.908 93.0246 845.054 93.0978 841.541 93.0978C832.979 93.0978 826.905 91.0488 823.32 86.9508C819.807 82.7797 818.051 76.9986 818.051 69.6076L818.161 51.0569C814.721 51.2032 811.135 51.4228 807.403 51.7155V32.2866C811.209 32.2866 814.428 31.0792 817.063 28.6643C819.697 26.2494 821.271 23.3589 821.783 19.9927L851.64 19.9927C847.908 25.1152 843.773 29.2131 839.236 32.2866H860.421V51.7155Z" fill="#E61010"/>
<path d="M767.25 64.5581H731.465C732.051 67.7779 733.478 70.4123 735.746 72.4613C738.088 74.4371 741.381 75.425 745.625 75.425C748.699 75.425 751.589 74.8396 754.297 73.6688C757.005 72.4247 759.163 70.7051 760.773 68.5097C765.676 70.9246 772.189 73.5224 780.312 76.3032C778.043 81.4257 773.909 85.5237 767.908 88.5972C761.981 91.5975 754.224 93.0976 744.638 93.0976C732.197 93.0976 722.977 90.2437 716.976 84.5358C711.049 78.7547 708.085 71.1807 708.085 61.8139C708.085 52.6666 711.049 45.239 716.976 39.5311C722.904 33.8232 732.124 30.9692 744.638 30.9692C752.102 30.9692 758.578 32.2133 764.066 34.7013C769.555 37.1894 773.763 40.6654 776.69 45.1292C779.617 49.5199 781.08 54.5692 781.08 60.2771C781.08 62.1798 781.007 63.6068 780.861 64.5581L767.25 64.5581ZM746.174 47.5441C742.515 47.5441 739.515 48.2393 737.173 49.6297C734.832 51.0201 733.185 52.9227 732.234 55.3376L758.139 55.3376C757.261 52.9959 755.834 51.1299 753.858 49.7395C751.882 48.2759 749.321 47.5441 746.174 47.5441Z" fill="#E61010"/>
<path d="M675.67 92C676.109 81.2427 676.328 71.3271 676.328 62.253C676.328 59.0331 675.523 56.4719 673.913 54.5693C672.377 52.6666 670.401 51.7153 667.986 51.7153C665.425 51.7153 663.229 52.9593 661.4 55.4474C659.644 57.9354 658.766 61.3382 658.766 65.6558L658.656 65.4362C658.656 77.3643 658.802 86.2189 659.095 92H632.86C633.446 81.4623 633.739 67.1925 633.739 49.1906C633.739 31.1888 633.446 16.919 632.86 6.38135L658.985 6.38135L659.095 40.1897L658.985 46.0074C660.741 40.8849 663.339 37.1162 666.779 34.7013C670.291 32.2133 674.243 30.9693 678.633 30.9693C683.024 30.9693 686.829 31.9572 690.049 33.933C693.269 35.8356 695.684 38.4334 697.294 41.7265C698.977 45.0195 699.818 48.715 699.818 52.813V68.6195C699.818 78.3522 700.001 86.1457 700.367 92H675.67Z" fill="#E61010"/>
<path d="M626.308 51.7155C619.575 51.2764 613.428 50.9471 607.867 50.7276L607.757 62.3629C607.757 66.3145 608.599 69.4246 610.282 71.6931C612.038 73.8885 615.111 74.9862 619.502 74.9862C621.185 74.9862 622.795 74.8398 624.332 74.5471C624.039 77.2547 623.893 79.9989 623.893 82.7797C623.893 84.0969 623.966 87.0972 624.112 91.7806C620.893 92.366 618.185 92.7319 615.99 92.8783C613.794 93.0246 610.94 93.0978 607.428 93.0978C598.866 93.0978 592.792 91.0488 589.206 86.9508C585.694 82.7797 583.938 76.9986 583.938 69.6076L584.047 51.0569C580.608 51.2032 577.022 51.4228 573.29 51.7155V32.2866C577.095 32.2866 580.315 31.0792 582.95 28.6643C585.584 26.2494 587.157 23.3589 587.67 19.9927L617.526 19.9927C613.794 25.1152 609.66 29.2131 605.123 32.2866H626.308V51.7155Z" fill="#E61010"/>
<path d="M512.239 93.0976C506.092 93.0976 499.835 92.2561 493.469 90.573C487.176 88.8167 481.248 86.1823 475.687 82.6697L487.212 66.973C490.578 69.3878 494.64 71.2905 499.396 72.6809C504.153 73.9981 508.251 74.6567 511.69 74.6567C514.983 74.6567 517.508 74.2176 519.264 73.3395C521.094 72.3882 522.008 71.1807 522.008 69.7171C522.008 68.5463 521.569 67.6316 520.691 66.973C519.813 66.3144 518.606 65.985 517.069 65.985C516.118 65.985 515.02 66.0216 513.776 66.0948C512.605 66.168 511.654 66.2412 510.922 66.3144C507.117 66.7534 503.202 66.973 499.177 66.973C492.664 66.973 487.358 65.7655 483.26 63.3506C479.236 60.8626 477.223 56.8378 477.223 51.2762C477.223 44.8365 480.26 39.8604 486.334 36.3478C492.408 32.7621 501.336 30.9692 513.117 30.9692C518.898 30.9692 524.716 31.8108 530.57 33.4939C536.498 35.1038 541.73 37.5553 546.267 40.8483L533.644 53.5813C529.473 51.386 525.558 49.8492 521.899 48.9711C518.313 48.0198 514.691 47.5441 511.032 47.5441C508.47 47.5441 506.275 48.0564 504.446 49.0809C502.616 50.1054 501.701 51.2762 501.701 52.5934C501.701 53.6179 502.067 54.4229 502.799 55.0083C503.604 55.5937 504.629 55.8864 505.873 55.8864C507.117 55.8864 508.836 55.7767 511.032 55.5571C516.374 55.1913 520.362 55.0083 522.996 55.0083C530.607 55.0083 536.498 56.2889 540.669 58.8502C544.84 61.4114 546.926 65.3265 546.926 70.5953C546.926 78.4985 543.852 84.243 537.705 87.8288C531.558 91.3413 523.069 93.0976 512.239 93.0976Z" fill="#E61010"/>
<path d="M453.332 25.5907C448.722 25.5907 445.282 24.4565 443.014 22.1879C440.818 19.9194 439.721 16.9557 439.721 13.2968C439.721 9.71105 440.818 6.74733 443.014 4.40562C445.282 2.06392 448.722 0.893066 453.332 0.893066C457.723 0.893066 461.089 2.1005 463.43 4.51538C465.772 6.85709 466.943 9.78422 466.943 13.2968C466.943 16.9557 465.809 19.9194 463.54 22.1879C461.272 24.4565 457.869 25.5907 453.332 25.5907ZM440.599 92C441.111 80.2183 441.367 70.4856 441.367 62.8019C441.367 53.6546 441.075 43.4097 440.489 32.067H466.833C466.248 42.9706 465.955 53.2156 465.955 62.8019C465.955 70.8515 466.211 80.5842 466.723 92H440.599Z" fill="#E61010"/>
<path d="M395.176 64.5581H359.392C359.978 67.7779 361.405 70.4123 363.673 72.4613C366.015 74.4371 369.308 75.425 373.552 75.425C376.626 75.425 379.516 74.8396 382.224 73.6688C384.931 72.4247 387.09 70.7051 388.7 68.5097C393.603 70.9246 400.116 73.5224 408.239 76.3032C405.97 81.4257 401.836 85.5237 395.835 88.5972C389.908 91.5975 382.151 93.0976 372.564 93.0976C360.124 93.0976 350.903 90.2437 344.903 84.5358C338.975 78.7547 336.012 71.1807 336.012 61.8139C336.012 52.6666 338.975 45.239 344.903 39.5311C350.83 33.8232 360.051 30.9692 372.564 30.9692C380.028 30.9692 386.505 32.2133 391.993 34.7013C397.481 37.1894 401.689 40.6654 404.616 45.1292C407.543 49.5199 409.007 54.5692 409.007 60.2771C409.007 62.1798 408.934 63.6068 408.788 64.5581L395.176 64.5581ZM374.101 47.5441C370.442 47.5441 367.442 48.2393 365.1 49.6297C362.758 51.0201 361.112 52.9227 360.161 55.3376L386.066 55.3376C385.188 52.9959 383.761 51.1299 381.785 49.7395C379.809 48.2759 377.248 47.5441 374.101 47.5441Z" fill="#E61010"/>
<path d="M302.546 48.3127C305.62 37.2627 313.267 31.7378 325.488 31.7378C327.61 31.7378 329.659 31.8842 331.635 32.1769L328.122 56.7648C322.853 54.789 318.536 53.801 315.169 53.801C310.998 53.801 307.925 55.0451 305.949 57.5331C303.973 60.0212 302.985 63.3508 302.985 67.522V67.4122L302.875 74.6569C302.875 79.8525 303.022 85.6336 303.315 92.0001H277.08C277.666 81.4624 277.958 71.5102 277.958 62.1434C277.958 52.7766 277.666 42.7511 277.08 32.0671C281.91 32.2866 285.605 32.3964 288.167 32.3964C290.874 32.3964 294.57 32.2866 299.253 32.0671L302.546 48.3127Z" fill="#E61010"/>
<path d="M255.609 64.5581H219.825C220.41 67.7779 221.837 70.4123 224.106 72.4613C226.447 74.4371 229.74 75.425 233.985 75.425C237.058 75.425 239.949 74.8396 242.656 73.6688C245.364 72.4247 247.523 70.7051 249.133 68.5097C254.036 70.9246 260.549 73.5224 268.671 76.3032C266.403 81.4257 262.268 85.5237 256.268 88.5972C250.34 91.5975 242.583 93.0976 232.997 93.0976C220.557 93.0976 211.336 90.2437 205.335 84.5358C199.408 78.7547 196.444 71.1807 196.444 61.8139C196.444 52.6666 199.408 45.239 205.335 39.5311C211.263 33.8232 220.483 30.9692 232.997 30.9692C240.461 30.9692 246.937 32.2133 252.426 34.7013C257.914 37.1894 262.122 40.6654 265.049 45.1292C267.976 49.5199 269.44 54.5692 269.44 60.2771C269.44 62.1798 269.367 63.6068 269.22 64.5581L255.609 64.5581ZM234.534 47.5441C230.875 47.5441 227.874 48.2393 225.533 49.6297C223.191 51.0201 221.544 52.9227 220.593 55.3376L246.498 55.3376C245.62 52.9959 244.193 51.1299 242.217 49.7395C240.242 48.2759 237.68 47.5441 234.534 47.5441Z" fill="#E61010"/>
<path d="M164.029 92C164.468 81.2427 164.688 71.3271 164.688 62.253C164.688 59.0331 163.883 56.4719 162.273 54.5693C160.736 52.6666 158.76 51.7153 156.345 51.7153C153.784 51.7153 151.589 52.9593 149.759 55.4474C148.003 57.9354 147.125 61.3382 147.125 65.6558L147.015 65.4362C147.015 77.3643 147.161 86.2189 147.454 92H121.22C121.805 81.4623 122.098 67.1925 122.098 49.1906C122.098 31.1888 121.805 16.919 121.22 6.38135L147.344 6.38135L147.454 40.1897L147.344 46.0074C149.101 40.8849 151.698 37.1162 155.138 34.7013C158.65 32.2133 162.602 30.9693 166.993 30.9693C171.383 30.9693 175.189 31.9572 178.409 33.933C181.628 35.8356 184.043 38.4334 185.653 41.7265C187.336 45.0195 188.178 48.715 188.178 52.813V68.6195C188.178 78.3522 188.361 86.1457 188.727 92H164.029Z" fill="#E61010"/>
<path d="M79.9789 62.0332L85.6868 12.3086L112.47 12.3086L97.7612 91.9998H64.0626L56.5984 47.5439L47.9268 91.9998L15.6551 91.9998L0.946289 12.3086L27.7295 12.3086L33.3277 61.3746L42.1091 12.3086L71.417 12.3086L79.9789 62.0332Z" fill="#E61010"/>
</svg>
