<svg width="454" height="110" viewBox="0 0 454 110" fill="none" xmlns="http://www.w3.org/2000/svg">
<path d="M121.75 13.62L131.89 108H98.22L96.14 40.66L83.14 108L49.08 108L35.82 41.18L33.87 108H0.2L10.34 13.62L54.54 13.62L65.85 75.11L75.73 13.62L121.75 13.62ZM184.121 109.3C169.301 109.3 158.381 105.92 151.361 99.16C144.427 92.3133 140.961 83.3433 140.961 72.25C140.961 61.4167 144.427 52.62 151.361 45.86C158.381 39.1 169.301 35.72 184.121 35.72C194.087 35.72 202.407 37.3667 209.081 40.66C215.841 43.8667 220.824 48.2433 224.031 53.79C227.237 59.25 228.841 65.4033 228.841 72.25C228.841 83.43 225.114 92.4 217.661 99.16C210.294 105.92 199.114 109.3 184.121 109.3ZM184.641 87.2C190.274 87.2 194.477 85.8567 197.251 83.17C200.024 80.4833 201.411 76.8867 201.411 72.38C201.411 68.1333 200.024 64.6667 197.251 61.98C194.477 59.2067 190.274 57.82 184.641 57.82C179.007 57.82 174.891 59.1633 172.291 61.85C169.691 64.5367 168.391 68.0467 168.391 72.38C168.391 76.8867 169.691 80.4833 172.291 83.17C174.891 85.8567 179.007 87.2 184.641 87.2ZM318.318 37.02C308.958 62.24 300.638 85.9 293.358 108H252.668C244.868 84.34 236.505 60.68 227.578 37.02H258.128L273.208 90.58L288.158 37.02H318.318ZM340.97 29.35C335.51 29.35 331.436 28.0067 328.75 25.32C326.15 22.6333 324.85 19.1233 324.85 14.79C324.85 10.5433 326.15 7.03333 328.75 4.26C331.436 1.48666 335.51 0.0999944 340.97 0.0999944C346.17 0.0999944 350.156 1.52999 352.93 4.38999C355.703 7.16333 357.09 10.63 357.09 14.79C357.09 19.1233 355.746 22.6333 353.06 25.32C350.373 28.0067 346.343 29.35 340.97 29.35ZM325.89 108C326.496 94.0467 326.8 82.52 326.8 73.42C326.8 62.5867 326.453 50.4533 325.76 37.02H356.96C356.266 49.9333 355.92 62.0667 355.92 73.42C355.92 82.9533 356.223 94.48 356.83 108H325.89ZM437.515 75.5H395.135C395.828 79.3133 397.518 82.4333 400.205 84.86C402.978 87.2 406.878 88.37 411.905 88.37C415.545 88.37 418.968 87.6767 422.175 86.29C425.382 84.8167 427.938 82.78 429.845 80.18C435.652 83.04 443.365 86.1167 452.985 89.41C450.298 95.4767 445.402 100.33 438.295 103.97C431.275 107.523 422.088 109.3 410.735 109.3C396.002 109.3 385.082 105.92 377.975 99.16C370.955 92.3133 367.445 83.3433 367.445 72.25C367.445 61.4167 370.955 52.62 377.975 45.86C384.995 39.1 395.915 35.72 410.735 35.72C419.575 35.72 427.245 37.1933 433.745 40.14C440.245 43.0867 445.228 47.2033 448.695 52.49C452.162 57.69 453.895 63.67 453.895 70.43C453.895 72.6833 453.808 74.3733 453.635 75.5L437.515 75.5ZM412.555 55.35C408.222 55.35 404.668 56.1733 401.895 57.82C399.122 59.4667 397.172 61.72 396.045 64.58H426.725C425.685 61.8067 423.995 59.5967 421.655 57.95C419.315 56.2167 416.282 55.35 412.555 55.35Z" fill="#BC0011"/>
</svg>
