<svg width="709" height="104" viewBox="0 0 709 104" fill="none" xmlns="http://www.w3.org/2000/svg">
<path d="M0.2 90.82C3.14667 86.4 5.57333 82.2833 7.48 78.47C9.47333 74.6567 11.38 70.2367 13.2 65.21C19.3533 68.7633 26.5033 71.5367 34.65 73.53C42.7967 75.5233 50.38 76.52 57.4 76.52C64.5933 76.52 69.6633 75.9133 72.61 74.7C75.5567 73.4 77.03 72.0133 77.03 70.54C77.03 65.2533 68.97 62.61 52.85 62.61C35.17 62.61 22.3433 60.79 14.37 57.15C6.39667 53.4233 2.41 47.4433 2.41 39.21C2.41 27.51 7.26333 18.8867 16.97 13.34C26.6767 7.79333 39.2867 5.01999 54.8 5.01999C63.8133 5.01999 73.0433 6.18999 82.49 8.52999C92.0233 10.7833 100.603 13.9033 108.23 17.89C105.717 23.61 103.073 30.5867 100.3 38.82C99.78 40.5533 99.3467 41.8533 99 42.72C94.58 39.1667 87.9067 36.22 78.98 33.88C70.0533 31.4533 62.1667 30.24 55.32 30.24C47.0867 30.24 41.54 30.8033 38.68 31.93C35.82 32.97 34.39 34.53 34.39 36.61C34.39 38.69 36.34 40.38 40.24 41.68C44.2267 42.8933 49.9467 43.5 57.4 43.5C75.7733 43.5 89.12 45.6233 97.44 49.87C105.76 54.03 109.92 60.4433 109.92 69.11C109.92 81.2433 105.5 89.9967 96.66 95.37C87.82 100.657 74.43 103.3 56.49 103.3C46.87 103.3 37.0767 102.26 27.11 100.18C17.1433 98.0133 8.17333 94.8933 0.2 90.82ZM146.688 66.51C146.861 70.93 148.248 74.4833 150.848 77.17C153.534 79.8567 157.478 81.2 162.678 81.2C165.538 81.2 168.094 80.68 170.348 79.64C172.601 78.5133 174.681 76.8667 176.588 74.7C183.954 77.56 192.578 80.03 202.458 82.11C199.598 88.7833 194.744 93.9833 187.898 97.71C181.138 101.437 172.341 103.3 161.508 103.3C147.034 103.3 136.331 99.92 129.398 93.16C122.464 86.4 118.998 77.5167 118.998 66.51C118.998 55.5033 122.464 46.62 129.398 39.86C136.331 33.1 147.034 29.72 161.508 29.72C172.341 29.72 181.138 31.5833 187.898 35.31C194.744 39.0367 199.598 44.2367 202.458 50.91C194.744 52.5567 186.121 55.0267 176.588 58.32C174.681 56.1533 172.601 54.55 170.348 53.51C168.094 52.3833 165.538 51.82 162.678 51.82C157.478 51.82 153.534 53.1633 150.848 55.85C148.248 58.5367 146.861 62.09 146.688 66.51ZM262.912 102C263.432 89.26 263.692 77.5167 263.692 66.77C263.692 62.9567 262.738 59.9233 260.832 57.67C259.012 55.4167 256.672 54.29 253.812 54.29C250.778 54.29 248.178 55.7633 246.012 58.71C243.932 61.6567 242.892 65.6867 242.892 70.8L242.762 70.54C242.762 84.6667 242.935 95.1533 243.282 102H212.212C212.905 89.52 213.252 72.62 213.252 51.3C213.252 29.98 212.905 13.08 212.212 0.599996L243.152 0.599996L243.282 40.64L243.152 47.53C245.232 41.4633 248.308 37 252.382 34.14C256.542 31.1933 261.222 29.72 266.422 29.72C271.622 29.72 276.128 30.89 279.942 33.23C283.755 35.4833 286.615 38.56 288.522 42.46C290.515 46.36 291.512 50.7367 291.512 55.59V74.31C291.512 85.8367 291.728 95.0667 292.162 102H262.912ZM371.372 69.5H328.992C329.686 73.3133 331.376 76.4333 334.062 78.86C336.836 81.2 340.736 82.37 345.762 82.37C349.402 82.37 352.826 81.6767 356.032 80.29C359.239 78.8167 361.796 76.78 363.702 74.18C369.509 77.04 377.222 80.1167 386.842 83.41C384.156 89.4767 379.259 94.33 372.152 97.97C365.132 101.523 355.946 103.3 344.592 103.3C329.859 103.3 318.939 99.92 311.832 93.16C304.812 86.3133 301.302 77.3433 301.302 66.25C301.302 55.4167 304.812 46.62 311.832 39.86C318.852 33.1 329.772 29.72 344.592 29.72C353.432 29.72 361.102 31.1933 367.602 34.14C374.102 37.0867 379.086 41.2033 382.552 46.49C386.019 51.69 387.752 57.67 387.752 64.43C387.752 66.6833 387.666 68.3733 387.492 69.5H371.372ZM346.412 49.35C342.079 49.35 338.526 50.1733 335.752 51.82C332.979 53.4667 331.029 55.72 329.902 58.58H360.582C359.542 55.8067 357.852 53.5967 355.512 51.95C353.172 50.2167 350.139 49.35 346.412 49.35ZM481.822 0.859993C481.302 16.98 481.042 33.8367 481.042 51.43C481.042 68.85 481.302 85.7067 481.822 102H452.442L452.832 86.4C450.318 92.2067 446.678 96.4967 441.912 99.27C437.145 101.957 431.512 103.3 425.012 103.3C419.378 103.3 414.308 101.697 409.802 98.49C405.295 95.2833 401.785 90.95 399.272 85.49C396.758 79.9433 395.502 73.8767 395.502 67.29C395.502 60.79 396.758 54.68 399.272 48.96C401.785 43.1533 405.295 38.5167 409.802 35.05C414.395 31.4967 419.595 29.72 425.402 29.72C432.162 29.72 437.925 31.15 442.692 34.01C447.545 36.7833 451.142 41.1167 453.482 47.01C453.482 42.07 453.308 34.14 452.962 23.22C452.615 12.6467 452.442 5.19333 452.442 0.859993L481.822 0.859993ZM438.662 81.46C442.908 81.46 446.375 80.29 449.062 77.95C451.748 75.5233 453.092 71.71 453.092 66.51C453.092 61.9167 451.748 58.5367 449.062 56.37C446.375 54.2033 442.995 53.12 438.922 53.12C435.022 53.12 431.728 54.3767 429.042 56.89C426.442 59.3167 425.142 62.5233 425.142 66.51C425.142 70.93 426.355 74.5267 428.782 77.3C431.208 80.0733 434.502 81.46 438.662 81.46ZM572.22 31.02C571.614 41.94 571.31 53.7267 571.31 66.38C571.31 79.12 571.614 90.9933 572.22 102C566.674 101.74 562.297 101.61 559.09 101.61C556.057 101.61 551.68 101.74 545.96 102L542.19 82.89C540.197 89.8233 537.077 94.98 532.83 98.36C528.584 101.653 523.644 103.3 518.01 103.3C512.81 103.3 508.304 102.173 504.49 99.92C500.677 97.58 497.774 94.46 495.78 90.56C493.874 86.66 492.92 82.2833 492.92 77.43V58.71C492.92 47.1833 492.704 37.9533 492.27 31.02H521.52C521 43.76 520.74 56.37 520.74 68.85C520.74 72.6633 521.65 75.6967 523.47 77.95C525.377 80.2033 527.76 81.33 530.62 81.33C533.307 81.33 535.647 80.16 537.64 77.82C539.72 75.3933 540.977 72.1 541.41 67.94V64.95C541.584 58.19 541.67 53.51 541.67 50.91C541.67 44.93 541.497 38.3 541.15 31.02L572.22 31.02ZM613.211 50C613.124 55.2 613.081 63.1733 613.081 73.92C613.081 86.8333 613.168 96.1933 613.341 102H582.661L582.791 87.31C582.964 71.19 583.051 58.7533 583.051 50C583.051 41.68 582.964 29.8933 582.791 14.64L582.661 0.599996L613.341 0.599996C613.168 12.9067 613.081 22.96 613.081 30.76C613.081 39.4267 613.124 45.84 613.211 50ZM692.564 69.5L650.184 69.5C650.877 73.3133 652.567 76.4333 655.254 78.86C658.027 81.2 661.927 82.37 666.954 82.37C670.594 82.37 674.017 81.6767 677.224 80.29C680.43 78.8167 682.987 76.78 684.894 74.18C690.7 77.04 698.414 80.1167 708.034 83.41C705.347 89.4767 700.45 94.33 693.344 97.97C686.324 101.523 677.137 103.3 665.784 103.3C651.05 103.3 640.13 99.92 633.024 93.16C626.004 86.3133 622.494 77.3433 622.494 66.25C622.494 55.4167 626.004 46.62 633.024 39.86C640.044 33.1 650.964 29.72 665.784 29.72C674.624 29.72 682.294 31.1933 688.794 34.14C695.294 37.0867 700.277 41.2033 703.744 46.49C707.21 51.69 708.944 57.67 708.944 64.43C708.944 66.6833 708.857 68.3733 708.684 69.5H692.564ZM667.604 49.35C663.27 49.35 659.717 50.1733 656.944 51.82C654.17 53.4667 652.22 55.72 651.094 58.58L681.774 58.58C680.734 55.8067 679.044 53.5967 676.704 51.95C674.364 50.2167 671.33 49.35 667.604 49.35Z" fill="#BC0011"/>
</svg>
