<svg width="17" height="17" viewBox="0 0 17 17" fill="none" xmlns="http://www.w3.org/2000/svg">
<path d="M8 2H3C1.89543 2 1 2.89543 1 4V14C1 15.1046 1.89543 16 3 16H13C14.1046 16 15 15.1046 15 14V9" stroke="#FFF9F9"/>
<path d="M16.5 0.999999C16.5 0.723857 16.2761 0.499999 16 0.499999L11.5 0.5C11.2239 0.499999 11 0.723857 11 0.999999C11 1.27614 11.2239 1.5 11.5 1.5L15.5 1.5L15.5 5.5C15.5 5.77614 15.7239 6 16 6C16.2761 6 16.5 5.77614 16.5 5.5L16.5 0.999999ZM6 11L6.35355 11.3536L16.3536 1.35355L16 0.999999L15.6464 0.646446L5.64645 10.6464L6 11Z" fill="#FFF9F9"/>
</svg>
