<svg width="293" height="115" viewBox="0 0 293 115" fill="none" xmlns="http://www.w3.org/2000/svg">
<path d="M29.896 11.833C31.9927 12.5977 33.522 13.6953 34.484 15.126C35.446 16.5567 35.927 18.2217 35.927 20.121C35.927 21.2557 35.816 22.341 35.594 23.377C35.372 24.3883 34.928 25.3133 34.262 26.152C33.3987 27.2127 32.1283 28.076 30.451 28.742C28.7983 29.408 26.5413 29.8397 23.68 30.037C23.3593 29.0997 22.9153 28.1377 22.348 27.151C21.7807 26.1397 21.164 25.2023 20.498 24.339C19.092 25.4983 17.612 26.522 16.058 27.41C14.7507 28.15 13.3693 28.7667 11.914 29.26C10.4587 29.7287 9.139 29.963 7.955 29.963C6.64767 29.963 5.46367 29.6917 4.403 29.149C3.367 28.6063 2.553 27.817 1.961 26.781C1.369 25.745 1.073 24.5363 1.073 23.155C1.073 21.1077 1.82533 19.1467 3.33 17.272C4.83467 15.3973 6.93133 13.8803 9.62 12.721C9.62 11.685 9.657 10.6737 9.731 9.687C6.475 9.73633 4.02067 9.761 2.368 9.761C2.368 6.75167 2.23233 4.433 1.961 2.805C5.93233 2.805 8.83067 2.79267 10.656 2.768L10.915 1.621H18.463C18.3397 2.01567 18.241 2.361 18.167 2.657C23.717 2.53367 29.0697 2.37333 34.225 2.176C34.003 3.55733 33.892 5.45667 33.892 7.874V8.984C30.1673 9.08267 27.3923 9.169 25.567 9.243C26.5043 9.58833 27.565 9.93366 28.749 10.279C29.0203 10.3777 29.2917 10.4763 29.563 10.575C29.8343 10.649 30.081 10.723 30.303 10.797L29.896 11.833ZM16.872 9.502C16.8227 9.82267 16.7733 10.2543 16.724 10.797C18.2287 10.5997 19.6963 10.501 21.127 10.501L22.644 10.538H22.681C22.8537 10.1187 23.0017 9.71167 23.125 9.317C20.3623 9.41567 18.278 9.47733 16.872 9.502ZM16.835 18.271C17.5503 17.679 18.241 17.0253 18.907 16.31C18.2903 16.3593 17.5503 16.4827 16.687 16.68C16.7363 17.3707 16.7857 17.901 16.835 18.271ZM25.974 21.749C26.862 21.0583 27.306 20.2813 27.306 19.418C27.306 18.7027 27.084 18.1107 26.64 17.642C25.308 19.492 23.902 21.1447 22.422 22.6C24.0993 22.5753 25.2833 22.2917 25.974 21.749ZM9.509 20.75C9.08967 21.12 8.88 21.4653 8.88 21.786C8.88 21.934 8.92933 22.0573 9.028 22.156C9.15133 22.2547 9.324 22.304 9.546 22.304C9.768 22.304 9.94067 22.2793 10.064 22.23L10.693 22.045C10.5203 21.453 10.3723 20.8117 10.249 20.121C10.2243 20.1457 9.97767 20.3553 9.509 20.75ZM57.646 10.871C56.166 11.019 53.8843 11.1917 50.801 11.389C50.0117 14.8423 48.7907 18.0613 47.138 21.046C45.51 24.0307 43.549 26.633 41.255 28.853C40.7617 27.2743 40.108 25.6093 39.294 23.858C38.48 22.1067 37.7153 20.7253 37 19.714C38.3073 18.5053 39.3927 17.2597 40.256 15.977C41.1193 14.6697 41.81 13.2143 42.328 11.611C41.44 11.6357 40.0957 11.648 38.295 11.648V4.322C40.6383 4.322 42.3897 4.30967 43.549 4.285C43.5983 3.49566 43.623 2.89133 43.623 2.472H51.8C51.8 3.16267 51.7877 3.68067 51.763 4.026C53.0703 3.952 55.0313 3.79167 57.646 3.545V9.095L59.496 2.842C64.6267 3.508 69.301 4.34667 73.519 5.358L71.41 12.98C66.4273 11.3027 61.8393 10.2667 57.646 9.872V10.871ZM67.747 12.129V17.642C69.6957 18.382 71.595 19.3193 73.445 20.454L71.003 28.668C69.7697 27.4593 68.4747 26.3247 67.118 25.264C65.86 28.5693 62.752 30.222 57.794 30.222C54.7847 30.222 52.355 29.5683 50.505 28.261C48.655 26.929 47.73 25.005 47.73 22.489C47.73 20.9843 48.1493 19.6893 48.988 18.604C49.8267 17.5187 50.9613 16.6923 52.392 16.125C53.8227 15.5577 55.4013 15.274 57.128 15.274C57.8927 15.274 58.6327 15.3233 59.348 15.422V12.129H67.747ZM59.348 21.342C58.6573 21.2187 58.053 21.157 57.535 21.157C56.9183 21.157 56.4743 21.2187 56.203 21.342C55.9317 21.4653 55.796 21.675 55.796 21.971C55.796 22.2423 55.981 22.5013 56.351 22.748C56.721 22.97 57.2143 23.081 57.831 23.081C58.423 23.081 58.8177 22.97 59.015 22.748C59.237 22.526 59.348 22.193 59.348 21.749V21.342ZM94.202 10.797L89.614 11.13C88.8247 15.0027 87.616 18.5547 85.988 21.786C84.3847 25.0173 82.399 27.78 80.031 30.074C78.995 28.1747 78.0083 26.6083 77.071 25.375C76.1337 24.1417 75.147 23.044 74.111 22.082C75.7883 20.75 77.1327 19.2453 78.144 17.568C79.1553 15.866 79.9447 13.8063 80.512 11.389H77.108L77.034 4.026L81.585 3.989L81.733 1.732H90.65C90.65 2.176 90.6253 2.81733 90.576 3.656C93.092 3.48333 95.1147 3.323 96.644 3.175V7.578C100.048 7.03533 103.477 6.764 106.93 6.764H108.262L109.298 14.534C108.879 14.5093 108.237 14.497 107.374 14.497C103.329 14.497 98.938 14.9163 94.202 15.755V10.797ZM98.531 21.971C100.282 21.971 102.243 21.8353 104.414 21.564C106.609 21.2927 108.274 20.9597 109.409 20.565C108.743 22.637 108.274 25.5477 108.003 29.297C106.967 29.5437 105.734 29.741 104.303 29.889C102.872 30.0123 101.417 30.074 99.937 30.074C99.271 30.074 98.3953 30.0493 97.31 30C90.872 29.6547 87.653 27.5703 87.653 23.747C87.653 22.341 88.0847 20.7007 88.948 18.826C90.4773 18.6533 91.8587 18.4313 93.092 18.16C94.35 17.864 95.3243 17.568 96.015 17.272C95.8423 18.308 95.756 19.0357 95.756 19.455C95.756 20.4417 95.978 21.1077 96.422 21.453C96.866 21.7983 97.569 21.971 98.531 21.971ZM139.12 24.894C138.997 21.4407 138.75 18.419 138.38 15.829C138.01 13.239 137.43 10.5503 136.641 7.763L135.531 8.022C136.148 8.63867 136.567 9.48967 136.789 10.575C137.036 11.6603 137.159 13.1033 137.159 14.904C137.159 18.1353 137.11 20.5527 137.011 22.156C136.912 23.7347 136.715 24.9433 136.419 25.782C136.148 26.6207 135.716 27.3607 135.124 28.002C134.483 28.6927 133.311 29.2353 131.609 29.63C129.907 30 127.49 30.2713 124.357 30.444C123.962 27.7307 123.457 25.6217 122.84 24.117C122.297 25.7943 121.57 27.78 120.657 30.074C117.549 28.964 114.342 28.1007 111.037 27.484C112.616 25.116 113.849 22.896 114.737 20.824C115.625 18.7273 116.279 16.421 116.698 13.905L112.147 14.349C112.196 11.5863 111.863 8.984 111.148 6.542C113.812 6.44333 115.884 6.38167 117.364 6.357C117.389 5.395 117.401 3.86567 117.401 1.769H126.503C126.454 2.97767 126.355 4.433 126.207 6.135H127.354C129.007 6.135 130.376 6.209 131.461 6.357C132.571 6.48033 133.484 6.71467 134.199 7.06C133.632 5.58 132.953 4.19867 132.164 2.916L135.568 2.028C135.987 2.694 136.357 3.36 136.678 4.026L137.825 3.915C137.258 2.82967 136.863 2.11433 136.641 1.769L140.045 0.880998C140.686 1.86766 141.192 2.79267 141.562 3.656L144.115 3.471C145.225 7.245 146.027 10.464 146.52 13.128C147.013 15.792 147.445 19.307 147.815 23.673L139.12 24.894ZM128.02 21.749C128.341 21.5023 128.587 20.9227 128.76 20.01C128.957 19.0973 129.056 17.9257 129.056 16.495C129.056 15.4837 128.994 14.7683 128.871 14.349C128.772 13.9297 128.55 13.6583 128.205 13.535C127.884 13.387 127.317 13.313 126.503 13.313C126.034 13.313 125.652 13.3253 125.356 13.35C124.838 16.5567 124.209 19.418 123.469 21.934C124.53 22.0573 125.368 22.119 125.985 22.119C127.07 22.119 127.749 21.9957 128.02 21.749ZM178.377 18.678C179.117 19.3687 180.03 19.9113 181.115 20.306C182.2 20.7007 183.532 20.9597 185.111 21.083C184.272 22.2917 183.557 23.562 182.965 24.894C182.373 26.226 181.781 27.9157 181.189 29.963C179.956 29.3957 178.87 28.7543 177.933 28.039C177.02 27.299 176.194 26.411 175.454 25.375C175.528 25.8437 175.565 26.263 175.565 26.633C175.565 28.261 174.492 29.149 172.346 29.297C169.805 29.445 167.733 29.519 166.13 29.519C164.453 29.519 162.615 29.445 160.617 29.297C159.408 29.223 158.508 29.0133 157.916 28.668C157.324 28.298 157.028 27.7677 157.028 27.077C157.028 26.6083 157.04 26.263 157.065 26.041C156.399 26.8797 155.634 27.6197 154.771 28.261C153.932 28.8777 152.958 29.445 151.848 29.963C151.256 27.9157 150.664 26.226 150.072 24.894C149.48 23.562 148.765 22.2917 147.926 21.083C149.505 20.9597 150.837 20.7007 151.922 20.306C153.007 19.9113 153.92 19.3687 154.66 18.678H150.479V2.213H182.669V18.678H178.377ZM163.17 8.281V7.43H158.249V8.281H163.17ZM169.978 8.281H174.899V7.43H169.978V8.281ZM163.17 12.536H158.249V13.461H163.17V12.536ZM174.899 12.536H169.978V13.461H174.899V12.536ZM163.688 20.047L162.726 19.085L164.243 18.678H157.546C158.335 19.2207 159.199 19.677 160.136 20.047H163.688ZM172.753 20.121C173.641 19.751 174.554 19.27 175.491 18.678H170.866L172.753 20.121ZM169.534 21.231C170.175 21.379 170.817 21.453 171.458 21.453C171.803 21.453 172.395 21.4037 173.234 21.305C173.111 21.083 172.95 20.7253 172.753 20.232L169.534 21.231ZM167.943 22.674C168.239 22.6493 168.436 22.6 168.535 22.526C168.658 22.452 168.72 22.3287 168.72 22.156C168.72 21.9833 168.683 21.7737 168.609 21.527L165.945 22.378C165.526 21.8847 164.971 21.2927 164.28 20.602L163.947 21.934C163.922 22.0327 163.91 22.156 163.91 22.304C163.91 22.6 164.107 22.748 164.502 22.748C166.426 22.748 167.573 22.7233 167.943 22.674ZM211.455 26.892C210.888 21.9587 210.037 17.7283 208.902 14.201C207.767 10.649 206.3 7.33133 204.499 4.248L213.157 2.953C215.18 6.061 216.808 9.23067 218.041 12.462C219.274 15.6933 220.397 19.751 221.408 24.635L211.455 26.892ZM205.128 23.229C203.623 24.9803 201.687 26.4727 199.319 27.706C196.976 28.9393 194.793 29.556 192.77 29.556C191.635 29.556 190.562 29.297 189.551 28.779C188.564 28.261 187.738 27.4347 187.072 26.3C186.431 25.1407 186.098 23.673 186.073 21.897C186.048 19.4057 186.196 17.1363 186.517 15.089C186.838 13.017 187.393 10.2297 188.182 6.727L188.848 3.804L198.764 4.248C197.901 7.208 197.259 9.58833 196.84 11.389C196.421 13.1897 196.026 15.4097 195.656 18.049C195.607 18.493 195.582 18.7767 195.582 18.9C195.582 19.418 195.705 19.677 195.952 19.677C196.297 19.677 196.914 19.196 197.802 18.234C198.715 17.272 200.084 15.644 201.909 13.35C202.205 15.57 202.6 17.457 203.093 19.011C203.611 20.5403 204.289 21.9463 205.128 23.229ZM254.671 2.953H258.149V8.947H254.671V10.02H247.789V8.947H243.719V10.02H237.207V8.947H233.544V11.389H232.101V13.757L233.655 13.646C233.581 15.1013 233.544 17.2843 233.544 20.195C233.223 20.2443 232.742 20.2937 232.101 20.343V23.784C232.101 25.8067 231.928 27.2127 231.583 28.002C231.238 28.7913 230.609 29.297 229.696 29.519C228.783 29.7163 227.081 29.8643 224.59 29.963L223.85 30C223.727 28.4213 223.579 27.1387 223.406 26.152C223.233 25.1653 222.9 24.1293 222.407 23.044C223.196 23.044 223.751 23.007 224.072 22.933C224.417 22.8343 224.615 22.6987 224.664 22.526C224.738 22.3533 224.775 22.045 224.775 21.601V21.083L222.962 21.231C222.913 20.0717 222.839 18.8877 222.74 17.679C222.666 16.4457 222.543 15.3233 222.37 14.312L224.775 14.201V11.389H222.962V4.84H224.775V1.806H232.101V4.84H233.433V2.953H237.207V1.621H243.719V2.953H247.789V1.621H254.671V2.953ZM234.21 10.612H257.335V30.185H249.861V29.667H241.684V30.185H234.21V10.612ZM243.201 17.124V15.829H241.684V17.124H243.201ZM248.344 17.124H249.861V15.829H248.344V17.124ZM243.201 22.415H241.684V23.932H243.201V22.415ZM248.344 23.932H249.861V22.415H248.344V23.932ZM282.643 31.369C281.089 30.1357 278.067 27.9897 273.578 24.931C269.113 21.8477 265.722 19.5537 263.403 18.049C262.022 17.1363 261.331 16.2607 261.331 15.422C261.331 14.8053 261.726 14.201 262.515 13.609L263.81 12.721C271.062 7.86167 276.575 3.81633 280.349 0.584999C282.766 1.177 284.9 1.67033 286.75 2.065C288.625 2.45967 290.598 2.79267 292.67 3.064C287.539 6.49266 281.447 10.3777 274.392 14.719C274.195 14.8423 274.096 14.9657 274.096 15.089C274.096 15.237 274.219 15.385 274.466 15.533C280.435 18.937 286.429 22.5507 292.448 26.374C290.894 26.9413 289.451 27.5703 288.119 28.261C286.812 28.9517 285.233 29.8397 283.383 30.925L282.643 31.369ZM36.852 47.691C35.1747 49.911 33.5097 51.7487 31.857 53.204C30.229 54.6347 28.2803 55.9297 26.011 57.089V71.852H15.762V60.308C12.3333 60.9247 7.955 61.418 2.627 61.788C2.42967 59.864 2.19533 58.199 1.924 56.793C1.67733 55.387 1.23333 53.9193 0.592 52.39C4.48933 52.4147 7.93033 52.2913 10.915 52.02C13.8997 51.7487 16.354 51.2553 18.278 50.54C22.2493 49.0353 25.3327 46.766 27.528 43.732L36.852 47.691ZM67.192 51.354C66.6493 49.2573 65.8353 47.1237 64.75 44.953L68.154 43.88C69.264 45.9273 70.1027 48.0733 70.67 50.318L67.192 51.354ZM62.715 52.723C62.1723 50.6263 61.3583 48.4927 60.273 46.322L63.677 45.249C64.7623 47.3457 65.5887 49.4917 66.156 51.687L62.715 52.723ZM74.629 61.122C73.6423 62.5033 72.7667 63.9093 72.002 65.34C71.262 66.746 70.4357 68.448 69.523 70.446C61.753 64.2793 56.055 59.8887 52.429 57.274C52.3303 57.2 52.1947 57.163 52.022 57.163C51.726 57.163 51.393 57.2863 51.023 57.533C49.5677 58.643 48.0753 59.8887 46.546 61.27C45.0413 62.6513 42.7473 64.8467 39.664 67.856C39.368 66.3267 38.9363 64.785 38.369 63.231C37.8017 61.6523 37.074 59.827 36.186 57.755C41.218 53.7343 44.474 50.9593 45.954 49.43C46.8173 48.542 47.6313 47.9007 48.396 47.506C49.1607 47.0867 49.9253 46.877 50.69 46.877C51.5287 46.877 52.4043 47.1113 53.317 47.58C54.2543 48.024 55.4137 48.727 56.795 49.689L58.645 51.021C61.309 52.9203 63.8373 54.6593 66.23 56.238C68.6473 57.792 71.447 59.42 74.629 61.122ZM78.81 72.259C78.2673 70.261 77.7247 68.5837 77.182 67.227C76.664 65.8457 75.887 64.4397 74.851 63.009C79.4637 63.009 83.2747 62.713 86.284 62.121C89.318 61.5043 91.9203 60.5053 94.091 59.124C96.0643 57.866 97.5937 56.053 98.679 53.685C99.7643 51.317 100.517 48.32 100.936 44.694C102.416 45.212 103.871 45.6683 105.302 46.063C106.757 46.433 108.533 46.8647 110.63 47.358C110.038 51.946 108.916 55.6707 107.263 58.532C105.635 61.3933 103.39 63.8353 100.529 65.858C97.9637 67.6833 94.9667 69.0893 91.538 70.076C88.1093 71.0627 83.8667 71.7903 78.81 72.259ZM89.614 57.163C86.5553 56.0283 84.0887 55.1897 82.214 54.647C80.3393 54.1043 77.7247 53.5 74.37 52.834C75.5293 51.724 76.7133 50.429 77.922 48.949C79.1307 47.4443 80.0187 46.1987 80.586 45.212C83.694 46.0753 86.469 46.914 88.911 47.728C91.353 48.542 93.8197 49.467 96.311 50.503L89.614 57.163ZM146.927 56.201C146.088 57.533 145.447 58.8527 145.003 60.16C144.559 61.4427 144.066 63.1323 143.523 65.229C138.442 63.4037 132.472 61.8003 125.615 60.419V72.185H115.181C115.354 68.041 115.452 63.897 115.477 59.753C115.526 55.609 115.551 50.429 115.551 44.213H125.615V51.872C128.871 52.2667 132.423 52.8587 136.271 53.648C140.144 54.4373 143.696 55.2883 146.927 56.201ZM183.705 52.02C183.606 53.9933 183.557 55.3747 183.557 56.164C183.557 57.0027 183.606 58.2607 183.705 59.938C180.572 60.0367 177.748 60.271 175.232 60.641C175.232 61.5537 175.146 62.4293 174.973 63.268L167.018 64.304C167.24 63.8107 167.413 63.2557 167.536 62.639C166.648 63.1323 166.068 63.564 165.797 63.934C165.649 64.156 165.575 64.3287 165.575 64.452C165.575 64.97 166.438 65.229 168.165 65.229C168.856 65.229 169.657 65.192 170.57 65.118L173.937 64.896C174.48 64.8713 175.516 64.822 177.045 64.748C178.599 64.6493 180.387 64.526 182.41 64.378C181.793 65.71 181.349 66.9187 181.078 68.004C180.807 69.0647 180.548 70.372 180.301 71.926C174.973 72.148 171.298 72.259 169.275 72.259C166.29 72.259 163.861 72.0493 161.986 71.63C160.136 71.186 158.755 70.4707 157.842 69.484C156.929 68.4727 156.473 67.1037 156.473 65.377C156.473 63.8723 157.176 62.417 158.582 61.011C160.013 59.5803 162.011 58.2483 164.576 57.015C164.033 56.8423 163.38 56.756 162.615 56.756C162.048 56.756 161.098 57.2123 159.766 58.125C158.459 59.0377 157.028 60.2957 155.474 61.899C153.945 63.5023 152.551 65.2907 151.293 67.264C150.38 64.082 149.085 61.233 147.408 58.717C150.442 56.423 153.069 54.1907 155.289 52.02C153.02 51.9707 151.33 51.9213 150.22 51.872C150.22 48.7393 150.084 46.396 149.813 44.842C154.5 44.99 158.348 45.064 161.357 45.064L162.097 44.102L162.578 43.473L172.309 43.695L171.236 44.99C174.862 44.8667 177.921 44.7063 180.412 44.509C180.19 45.841 180.079 47.8267 180.079 50.466V51.576C176.009 51.872 170.915 52.0447 164.798 52.094L163.577 53.204C164.613 53.056 165.587 52.982 166.5 52.982C168.72 52.982 170.545 53.426 171.976 54.314C175.799 53.2533 179.709 52.4887 183.705 52.02ZM35.964 94.612H27.38V96.277H35.224V102.9H27.38V104.565H35.964V111.669H27.38V114.111H19.092V101.753C17.8093 102.863 16.2923 103.973 14.541 105.083C14.0723 102.32 13.3447 99.6563 12.358 97.091V114.111H4.107V105.416C2.923 105.959 2.035 106.329 1.443 106.526C1.39367 106.033 1.369 105.663 1.369 105.416C1.221 103.467 1.073 101.852 0.925 100.569C0.777 99.2863 0.542667 98.0037 0.222 96.721C1.28267 96.499 2.072 96.2277 2.59 95.907C3.13267 95.5863 3.57667 95.1423 3.922 94.575C4.24267 94.0323 4.588 92.8977 4.958 91.171C5.35267 89.4197 5.55 87.4957 5.55 85.399L14.615 85.436C14.4917 87.2613 14.2573 89.0867 13.912 90.912C13.5913 92.7127 13.172 94.3653 12.654 95.87C14.06 95.2533 15.1453 94.5503 15.91 93.761C16.6747 92.947 17.2297 91.911 17.575 90.653C17.945 89.3703 18.167 87.693 18.241 85.621H26.936C26.8867 86.139 26.788 86.805 26.64 87.619H35.964V94.612ZM58.571 86.879C61.1117 86.879 63.3687 87.3847 65.342 88.396C67.3153 89.4073 68.8447 90.8257 69.93 92.651C71.0153 94.4517 71.558 96.536 71.558 98.904C71.558 102.061 70.6207 104.775 68.746 107.044C66.896 109.289 64.1827 111.015 60.606 112.224C57.054 113.408 52.7743 114 47.767 114C47.3477 112.643 46.6077 111.361 45.547 110.152C44.4863 108.943 43.0063 107.661 41.107 106.304C45.9417 106.205 49.8513 105.885 52.836 105.342C55.8207 104.775 58.0037 103.948 59.385 102.863C60.791 101.778 61.494 100.372 61.494 98.645C61.494 97.165 61.013 96.0057 60.051 95.167C59.1137 94.3283 57.8063 93.909 56.129 93.909C55.6357 93.909 55.13 93.946 54.612 94.02C52.836 94.2667 51.43 94.9697 50.394 96.129C49.358 97.2883 48.84 98.719 48.84 100.421C48.84 101.161 48.951 101.938 49.173 102.752L39.405 103.936C39.2323 102.283 39.146 100.409 39.146 98.312C39.146 94.2667 39.5037 90.2337 40.219 86.213L49.691 85.695C49.5677 86.3117 49.469 86.9283 49.395 87.545C49.321 88.1617 49.247 88.951 49.173 89.913C50.3817 88.9263 51.7877 88.174 53.391 87.656C55.019 87.138 56.7457 86.879 58.571 86.879ZM105.228 113.482C103.255 111.903 100.825 110.399 97.939 108.968C97.8157 110.399 97.4703 111.496 96.903 112.261C96.3357 113.001 95.423 113.519 94.165 113.815C92.9317 114.111 91.1557 114.259 88.837 114.259C84.6437 114.259 81.5727 113.605 79.624 112.298C77.7 110.991 76.738 109.264 76.738 107.118C76.738 105.194 77.5767 103.677 79.254 102.567C80.956 101.457 83.435 100.902 86.691 100.902C87.3323 100.902 88.245 100.927 89.429 100.976V100.014C84.619 99.9647 80.3147 99.8783 76.516 99.755L76.553 93.798C80.3763 93.9213 84.6683 94.0077 89.429 94.057V92.984C85.359 92.9347 81.6713 92.8483 78.366 92.725L78.329 86.879C81.6097 87.0023 85.3097 87.0887 89.429 87.138V85.584H98.013V87.101C100.948 87.0763 103.896 87.0023 106.856 86.879L106.893 92.725C103.933 92.8237 100.973 92.8977 98.013 92.947V94.057C100.381 94.0323 103.958 93.946 108.743 93.798L108.706 99.755C103.896 99.903 100.332 99.9893 98.013 100.014V102.197C101.91 103.184 105.623 104.651 109.15 106.6L105.228 113.482ZM89.429 105.749C88.7137 105.576 88.0723 105.49 87.505 105.49C86.8143 105.49 86.284 105.589 85.914 105.786C85.544 105.959 85.359 106.181 85.359 106.452C85.359 106.748 85.581 107.019 86.025 107.266C86.469 107.488 87.0733 107.599 87.838 107.599C88.3313 107.599 88.7137 107.488 88.985 107.266C89.281 107.044 89.429 106.637 89.429 106.045V105.749ZM147.149 95.537C146.064 95.537 144.46 95.5617 142.339 95.611L142.524 98.719C142.672 100.89 141.957 102.518 140.378 103.603C138.824 104.688 136.727 105.231 134.088 105.231C132.164 105.231 130.425 105.108 128.871 104.861C128.575 103.43 128.23 102.172 127.835 101.087C127.465 99.977 126.91 98.83 126.17 97.646C129.105 98.09 131.14 98.312 132.275 98.312C133.138 98.312 133.718 98.1887 134.014 97.942C134.335 97.6953 134.47 97.276 134.421 96.684L134.384 95.981C131.745 96.129 128.563 96.4003 124.838 96.795C124.764 98.127 124.727 100.433 124.727 103.714C124.727 104.553 124.863 105.157 125.134 105.527C125.43 105.872 125.936 106.094 126.651 106.193C127.366 106.292 128.55 106.341 130.203 106.341C132.744 106.341 135.025 106.292 137.048 106.193C139.095 106.07 141.735 105.811 144.966 105.416C144.448 106.378 144.053 107.624 143.782 109.153C143.535 110.658 143.4 112.175 143.375 113.704C140.514 113.852 137.924 113.951 135.605 114C133.286 114.049 129.796 114.074 125.134 114.074C122.297 114.074 120.09 113.408 118.511 112.076C116.932 110.744 116.143 108.832 116.143 106.341C116.143 102.838 116.192 100.002 116.291 97.831L111.481 98.497V90.394L116.994 89.839C117.093 88.877 117.241 87.7917 117.438 86.583H126.281L125.8 89.173C128.809 88.9757 131.486 88.84 133.829 88.766L133.644 86.102H141.747L141.895 88.544C143.054 88.5193 144.806 88.507 147.149 88.507V95.537ZM184.519 99.163C184.618 102.024 184.1 104.59 182.965 106.859C181.855 109.104 180.301 110.867 178.303 112.15C176.33 113.408 174.159 114.037 171.791 114.037C169.152 114.037 167.191 113.519 165.908 112.483C164.625 111.422 163.984 109.844 163.984 107.747C163.984 107.5 164.009 107.056 164.058 106.415C164.157 105.478 164.206 104.849 164.206 104.528C164.206 103.837 164.107 103.319 163.91 102.974C163.713 102.604 163.38 102.419 162.911 102.419C162.294 102.419 161.715 102.777 161.172 103.492C160.654 104.207 160.235 105.317 159.914 106.822L158.434 113.815C158.089 113.766 157.817 113.741 157.62 113.741C153.821 113.322 150.837 113.124 148.666 113.149C149.357 110.041 150.763 105.502 152.884 99.533C155.005 93.5637 156.855 88.7167 158.434 84.992L169.016 86.028C168.424 87.1627 167.758 88.359 167.018 89.617C166.056 91.3437 165.304 92.7127 164.761 93.724C164.243 94.7353 163.774 95.796 163.355 96.906C165.008 96.4127 166.327 96.166 167.314 96.166C168.942 96.166 170.262 96.5977 171.273 97.461C172.284 98.3243 172.79 99.4837 172.79 100.939C172.79 101.506 172.741 102.024 172.642 102.493C172.543 102.962 172.408 103.48 172.235 104.047C172.087 104.59 172.013 104.898 172.013 104.972C172.013 105.194 172.124 105.305 172.346 105.305C172.987 105.305 173.518 105.132 173.937 104.787C174.356 104.442 174.726 103.702 175.047 102.567C175.392 101.432 175.701 99.6933 175.972 97.35C177.279 98.0407 178.624 98.5217 180.005 98.793C181.411 99.0397 182.916 99.163 184.519 99.163ZM201.354 90.135C204.166 90.135 206.25 90.3693 207.607 90.838C208.964 91.282 209.889 92.1083 210.382 93.317C210.9 94.5257 211.159 96.388 211.159 98.904C211.159 102.135 211.11 104.553 211.011 106.156C210.912 107.735 210.715 108.943 210.419 109.782C210.148 110.621 209.716 111.361 209.124 112.002C208.483 112.693 207.311 113.235 205.609 113.63C203.907 114 201.49 114.271 198.357 114.444C197.962 111.731 197.457 109.622 196.84 108.117C196.297 109.794 195.57 111.78 194.657 114.074C191.549 112.964 188.342 112.101 185.037 111.484C186.616 109.116 187.849 106.896 188.737 104.824C189.625 102.727 190.279 100.421 190.698 97.905L186.147 98.349C186.196 95.5863 185.863 92.984 185.148 90.542C187.812 90.4433 189.884 90.3817 191.364 90.357C191.389 89.395 191.401 87.8657 191.401 85.769H200.503C200.454 86.9777 200.355 88.433 200.207 90.135H201.354ZM218.115 87.471C219.225 91.245 220.027 94.464 220.52 97.128C221.013 99.792 221.445 103.307 221.815 107.673L213.12 108.894C212.997 104.799 212.664 101.247 212.121 98.238C211.603 95.2287 210.727 91.8493 209.494 88.1L218.115 87.471ZM202.02 105.749C202.341 105.502 202.587 104.923 202.76 104.01C202.957 103.097 203.056 101.926 203.056 100.495C203.056 99.4837 202.994 98.7683 202.871 98.349C202.772 97.9297 202.55 97.6583 202.205 97.535C201.884 97.387 201.317 97.313 200.503 97.313C200.034 97.313 199.652 97.3253 199.356 97.35C198.838 100.557 198.209 103.418 197.469 105.934C198.53 106.057 199.368 106.119 199.985 106.119C201.07 106.119 201.749 105.996 202.02 105.749ZM241.758 84.696C244.101 84.696 246.26 85.0907 248.233 85.88C250.231 86.6693 251.81 87.767 252.969 89.173C254.128 90.579 254.708 92.1947 254.708 94.02C254.708 95.5 254.35 96.7703 253.635 97.831C252.92 98.8917 252.007 99.755 250.897 100.421L248.936 101.531C247.875 102.123 247.172 102.53 246.827 102.752C246.26 103.097 245.865 103.48 245.643 103.899C245.421 104.318 245.31 104.812 245.31 105.379H236.837C236.837 103.504 237.281 101.938 238.169 100.68C239.057 99.3973 240.549 98.2873 242.646 97.35C243.583 96.9307 244.262 96.4743 244.681 95.981C245.125 95.463 245.347 94.8833 245.347 94.242C245.347 93.5267 245.002 92.91 244.311 92.392C243.645 91.874 242.794 91.615 241.758 91.615C240.352 91.615 239.254 91.9603 238.465 92.651C237.7 93.3417 237.318 94.316 237.318 95.574C237.318 96.0673 237.392 96.6347 237.54 97.276C235.567 96.7087 232.619 96.425 228.697 96.425C228.672 96.203 228.66 95.8947 228.66 95.5C228.66 93.428 229.203 91.578 230.288 89.95C231.398 88.2973 232.94 87.0147 234.913 86.102C236.911 85.1647 239.193 84.696 241.758 84.696ZM245.347 114.74H236.763V108.154H245.347V114.74Z" fill="#231815"/>
</svg>
