<svg width="1188" height="194" viewBox="0 0 1188 194" fill="none" xmlns="http://www.w3.org/2000/svg">
<path d="M79.8 30.9C85.4667 32.9667 89.6 35.9333 92.2 39.8C94.8 43.6667 96.1 48.1667 96.1 53.3C96.1 56.3667 95.8 59.3 95.2 62.1C94.6 64.8333 93.4 67.3333 91.6 69.6C89.2667 72.4667 85.8333 74.8 81.3 76.6C76.8333 78.4 70.7333 79.5667 63 80.1C62.1333 77.5667 60.9333 74.9667 59.4 72.3C57.8667 69.5667 56.2 67.0333 54.4 64.7C50.6 67.8333 46.6 70.6 42.4 73C38.8667 75 35.1333 76.6667 31.2 78C27.2667 79.2667 23.7 79.9 20.5 79.9C16.9667 79.9 13.7667 79.1667 10.9 77.7C8.1 76.2333 5.9 74.1 4.3 71.3C2.7 68.5 1.9 65.2333 1.9 61.5C1.9 55.9667 3.93333 50.6667 8 45.6C12.0667 40.5333 17.7333 36.4333 25 33.3C25 30.5 25.1 27.7667 25.3 25.1C16.5 25.2333 9.86667 25.3 5.4 25.3C5.4 17.1667 5.03333 10.9 4.3 6.5C15.0333 6.5 22.8667 6.46666 27.8 6.39999L28.5 3.3H48.9C48.5667 4.36666 48.3 5.3 48.1 6.1C63.1 5.76666 77.5667 5.33333 91.5 4.8C90.9 8.53333 90.6 13.6667 90.6 20.2V23.2C80.5333 23.4667 73.0333 23.7 68.1 23.9C70.6333 24.8333 73.5 25.7667 76.7 26.7C77.4333 26.9667 78.1667 27.2333 78.9 27.5C79.6333 27.7 80.3 27.9 80.9 28.1L79.8 30.9ZM44.6 24.6C44.4667 25.4667 44.3333 26.6333 44.2 28.1C48.2667 27.5667 52.2333 27.3 56.1 27.3L60.2 27.4H60.3C60.7667 26.2667 61.1667 25.1667 61.5 24.1C54.0333 24.3667 48.4 24.5333 44.6 24.6ZM44.5 48.3C46.4333 46.7 48.3 44.9333 50.1 43C48.4333 43.1333 46.4333 43.4667 44.1 44C44.2333 45.8667 44.3667 47.3 44.5 48.3ZM69.2 57.7C71.6 55.8333 72.8 53.7333 72.8 51.4C72.8 49.4667 72.2 47.8667 71 46.6C67.4 51.6 63.6 56.0667 59.6 60C64.1333 59.9333 67.3333 59.1667 69.2 57.7ZM24.7 55C23.5667 56 23 56.9333 23 57.8C23 58.2 23.1333 58.5333 23.4 58.8C23.7333 59.0667 24.2 59.2 24.8 59.2C25.4 59.2 25.8667 59.1333 26.2 59L27.9 58.5C27.4333 56.9 27.0333 55.1667 26.7 53.3C26.6333 53.3667 25.9667 53.9333 24.7 55ZM154.8 28.3C150.8 28.7 144.633 29.1667 136.3 29.7C134.167 39.0333 130.867 47.7333 126.4 55.8C122 63.8667 116.7 70.9 110.5 76.9C109.167 72.6333 107.4 68.1333 105.2 63.4C103 58.6667 100.933 54.9333 99 52.2C102.533 48.9333 105.467 45.5667 107.8 42.1C110.133 38.5667 112 34.6333 113.4 30.3C111 30.3667 107.367 30.4 102.5 30.4V10.6C108.833 10.6 113.567 10.5667 116.7 10.5C116.833 8.36666 116.9 6.73333 116.9 5.6H139C139 7.46666 138.967 8.86666 138.9 9.8C142.433 9.6 147.733 9.16666 154.8 8.5V23.5L159.8 6.6C173.667 8.4 186.3 10.6667 197.7 13.4L192 34C178.533 29.4667 166.133 26.6667 154.8 25.6V28.3ZM182.1 31.7V46.6C187.367 48.6 192.5 51.1333 197.5 54.2L190.9 76.4C187.567 73.1333 184.067 70.0667 180.4 67.2C177 76.1333 168.6 80.6 155.2 80.6C147.067 80.6 140.5 78.8333 135.5 75.3C130.5 71.7 128 66.5 128 59.7C128 55.6333 129.133 52.1333 131.4 49.2C133.667 46.2667 136.733 44.0333 140.6 42.5C144.467 40.9667 148.733 40.2 153.4 40.2C155.467 40.2 157.467 40.3333 159.4 40.6V31.7H182.1ZM159.4 56.6C157.533 56.2667 155.9 56.1 154.5 56.1C152.833 56.1 151.633 56.2667 150.9 56.6C150.167 56.9333 149.8 57.5 149.8 58.3C149.8 59.0333 150.3 59.7333 151.3 60.4C152.3 61 153.633 61.3 155.3 61.3C156.9 61.3 157.967 61 158.5 60.4C159.1 59.8 159.4 58.9 159.4 57.7V56.6ZM253.6 28.1L241.2 29C239.067 39.4667 235.8 49.0667 231.4 57.8C227.067 66.5333 221.7 74 215.3 80.2C212.5 75.0667 209.833 70.8333 207.3 67.5C204.767 64.1667 202.1 61.2 199.3 58.6C203.833 55 207.467 50.9333 210.2 46.4C212.933 41.8 215.067 36.2333 216.6 29.7H207.4L207.2 9.8L219.5 9.7L219.9 3.59999H244C244 4.79999 243.933 6.53333 243.8 8.8C250.6 8.33333 256.067 7.9 260.2 7.5V19.4C269.4 17.9333 278.667 17.2 288 17.2H291.6L294.4 38.2C293.267 38.1333 291.533 38.1 289.2 38.1C278.267 38.1 266.4 39.2333 253.6 41.5V28.1ZM265.3 58.3C270.033 58.3 275.333 57.9333 281.2 57.2C287.133 56.4667 291.633 55.5667 294.7 54.5C292.9 60.1 291.633 67.9667 290.9 78.1C288.1 78.7667 284.767 79.3 280.9 79.7C277.033 80.0333 273.1 80.2 269.1 80.2C267.3 80.2 264.933 80.1333 262 80C244.6 79.0667 235.9 73.4333 235.9 63.1C235.9 59.3 237.067 54.8667 239.4 49.8C243.533 49.3333 247.267 48.7333 250.6 48C254 47.2 256.633 46.4 258.5 45.6C258.033 48.4 257.8 50.3667 257.8 51.5C257.8 54.1667 258.4 55.9667 259.6 56.9C260.8 57.8333 262.7 58.3 265.3 58.3ZM375 66.2C374.667 56.8667 374 48.7 373 41.7C372 34.7 370.433 27.4333 368.3 19.9L365.3 20.6C366.967 22.2667 368.1 24.5667 368.7 27.5C369.367 30.4333 369.7 34.3333 369.7 39.2C369.7 47.9333 369.567 54.4667 369.3 58.8C369.033 63.0667 368.5 66.3333 367.7 68.6C366.967 70.8667 365.8 72.8667 364.2 74.6C362.467 76.4667 359.3 77.9333 354.7 79C350.1 80 343.567 80.7333 335.1 81.2C334.033 73.8667 332.667 68.1667 331 64.1C329.533 68.6333 327.567 74 325.1 80.2C316.7 77.2 308.033 74.8667 299.1 73.2C303.367 66.8 306.7 60.8 309.1 55.2C311.5 49.5333 313.267 43.3 314.4 36.5L302.1 37.7C302.233 30.2333 301.333 23.2 299.4 16.6C306.6 16.3333 312.2 16.1667 316.2 16.1C316.267 13.5 316.3 9.36666 316.3 3.7H340.9C340.767 6.96666 340.5 10.9 340.1 15.5H343.2C347.667 15.5 351.367 15.7 354.3 16.1C357.3 16.4333 359.767 17.0667 361.7 18C360.167 14 358.333 10.2667 356.2 6.79999L365.4 4.4C366.533 6.2 367.533 8 368.4 9.8L371.5 9.5C369.967 6.56666 368.9 4.63333 368.3 3.7L377.5 1.29999C379.233 3.96666 380.6 6.46666 381.6 8.8L388.5 8.3C391.5 18.5 393.667 27.2 395 34.4C396.333 41.6 397.5 51.1 398.5 62.9L375 66.2ZM345 57.7C345.867 57.0333 346.533 55.4667 347 53C347.533 50.5333 347.8 47.3667 347.8 43.5C347.8 40.7667 347.633 38.8333 347.3 37.7C347.033 36.5667 346.433 35.8333 345.5 35.5C344.633 35.1 343.1 34.9 340.9 34.9C339.633 34.9 338.6 34.9333 337.8 35C336.4 43.6667 334.7 51.4 332.7 58.2C335.567 58.5333 337.833 58.7 339.5 58.7C342.433 58.7 344.267 58.3667 345 57.7ZM481.1 49.4C483.1 51.2667 485.567 52.7333 488.5 53.8C491.433 54.8667 495.033 55.5667 499.3 55.9C497.033 59.1667 495.1 62.6 493.5 66.2C491.9 69.8 490.3 74.3667 488.7 79.9C485.367 78.3667 482.433 76.6333 479.9 74.7C477.433 72.7 475.2 70.3 473.2 67.5C473.4 68.7667 473.5 69.9 473.5 70.9C473.5 75.3 470.6 77.7 464.8 78.1C457.933 78.5 452.333 78.7 448 78.7C443.467 78.7 438.5 78.5 433.1 78.1C429.833 77.9 427.4 77.3333 425.8 76.4C424.2 75.4 423.4 73.9667 423.4 72.1C423.4 70.8333 423.433 69.9 423.5 69.3C421.7 71.5667 419.633 73.5667 417.3 75.3C415.033 76.9667 412.4 78.5 409.4 79.9C407.8 74.3667 406.2 69.8 404.6 66.2C403 62.6 401.067 59.1667 398.8 55.9C403.067 55.5667 406.667 54.8667 409.6 53.8C412.533 52.7333 415 51.2667 417 49.4H405.7V4.9H492.7V49.4H481.1ZM440 21.3V19H426.7V21.3H440ZM458.4 21.3H471.7V19H458.4V21.3ZM440 32.8H426.7V35.3H440V32.8ZM471.7 32.8H458.4V35.3H471.7V32.8ZM441.4 53.1L438.8 50.5L442.9 49.4H424.8C426.933 50.8667 429.267 52.1 431.8 53.1H441.4ZM465.9 53.3C468.3 52.3 470.767 51 473.3 49.4H460.8L465.9 53.3ZM457.2 56.3C458.933 56.7 460.667 56.9 462.4 56.9C463.333 56.9 464.933 56.7667 467.2 56.5C466.867 55.9 466.433 54.9333 465.9 53.6L457.2 56.3ZM452.9 60.2C453.7 60.1333 454.233 60 454.5 59.8C454.833 59.6 455 59.2667 455 58.8C455 58.3333 454.9 57.7667 454.7 57.1L447.5 59.4C446.367 58.0667 444.867 56.4667 443 54.6L442.1 58.2C442.033 58.4667 442 58.8 442 59.2C442 60 442.533 60.4 443.6 60.4C448.8 60.4 451.9 60.3333 452.9 60.2ZM570.5 71.6C568.967 58.2667 566.667 46.8333 563.6 37.3C560.533 27.7 556.567 18.7333 551.7 10.4L575.1 6.9C580.567 15.3 584.967 23.8667 588.3 32.6C591.633 41.3333 594.667 52.3 597.4 65.5L570.5 71.6ZM553.4 61.7C549.333 66.4333 544.1 70.4667 537.7 73.8C531.367 77.1333 525.467 78.8 520 78.8C516.933 78.8 514.033 78.1 511.3 76.7C508.633 75.3 506.4 73.0667 504.6 70C502.867 66.8667 501.967 62.9 501.9 58.1C501.833 51.3667 502.233 45.2333 503.1 39.7C503.967 34.1 505.467 26.5667 507.6 17.1L509.4 9.2L536.2 10.4C533.867 18.4 532.133 24.8333 531 29.7C529.867 34.5667 528.8 40.5667 527.8 47.7C527.667 48.9 527.6 49.6667 527.6 50C527.6 51.4 527.933 52.1 528.6 52.1C529.533 52.1 531.2 50.8 533.6 48.2C536.067 45.6 539.767 41.2 544.7 35C545.5 41 546.567 46.1 547.9 50.3C549.3 54.4333 551.133 58.2333 553.4 61.7ZM687.3 6.9H696.7V23.1H687.3V26H668.7V23.1H657.7V26H640.1V23.1H630.2V29.7H626.3V36.1L630.5 35.8C630.3 39.7333 630.2 45.6333 630.2 53.5C629.333 53.6333 628.033 53.7667 626.3 53.9V63.2C626.3 68.6667 625.833 72.4667 624.9 74.6C623.967 76.7333 622.267 78.1 619.8 78.7C617.333 79.2333 612.733 79.6333 606 79.9L604 80C603.667 75.7333 603.267 72.2667 602.8 69.6C602.333 66.9333 601.433 64.1333 600.1 61.2C602.233 61.2 603.733 61.1 604.6 60.9C605.533 60.6333 606.067 60.2667 606.2 59.8C606.4 59.3333 606.5 58.5 606.5 57.3V55.9L601.6 56.3C601.467 53.1667 601.267 49.9667 601 46.7C600.8 43.3667 600.467 40.3333 600 37.6L606.5 37.3V29.7H601.6V12H606.5V3.8H626.3V12H629.9V6.9H640.1V3.3H657.7V6.9H668.7V3.3H687.3V6.9ZM632 27.6H694.5V80.5H674.3V79.1H652.2V80.5H632V27.6ZM656.3 45.2V41.7H652.2V45.2H656.3ZM670.2 45.2H674.3V41.7H670.2V45.2ZM656.3 59.5H652.2V63.6H656.3V59.5ZM670.2 63.6H674.3V59.5H670.2V63.6ZM762.9 83.7C758.7 80.3667 750.533 74.5667 738.4 66.3C726.333 57.9667 717.167 51.7667 710.9 47.7C707.167 45.2333 705.3 42.8667 705.3 40.6C705.3 38.9333 706.367 37.3 708.5 35.7L712 33.3C731.6 20.1667 746.5 9.23333 756.7 0.499998C763.233 2.1 769 3.43333 774 4.49999C779.067 5.56666 784.4 6.46666 790 7.2C776.133 16.4667 759.667 26.9667 740.6 38.7C740.067 39.0333 739.8 39.3667 739.8 39.7C739.8 40.1 740.133 40.5 740.8 40.9C756.933 50.1 773.133 59.8667 789.4 70.2C785.2 71.7333 781.3 73.4333 777.7 75.3C774.167 77.1667 769.9 79.5667 764.9 82.5L762.9 83.7ZM98.6 126.3C94.0667 132.3 89.5667 137.267 85.1 141.2C80.7 145.067 75.4333 148.567 69.3 151.7V191.6H41.6V160.4C32.3333 162.067 20.5 163.4 6.1 164.4C5.56667 159.2 4.93333 154.7 4.2 150.9C3.53333 147.1 2.33333 143.133 0.6 139C11.1333 139.067 20.4333 138.733 28.5 138C36.5667 137.267 43.2 135.933 48.4 134C59.1333 129.933 67.4667 123.8 73.4 115.6L98.6 126.3ZM180.6 136.2C179.133 130.533 176.933 124.767 174 118.9L183.2 116C186.2 121.533 188.467 127.333 190 133.4L180.6 136.2ZM168.5 139.9C167.033 134.233 164.833 128.467 161.9 122.6L171.1 119.7C174.033 125.367 176.267 131.167 177.8 137.1L168.5 139.9ZM200.7 162.6C198.033 166.333 195.667 170.133 193.6 174C191.6 177.8 189.367 182.4 186.9 187.8C165.9 171.133 150.5 159.267 140.7 152.2C140.433 152 140.067 151.9 139.6 151.9C138.8 151.9 137.9 152.233 136.9 152.9C132.967 155.9 128.933 159.267 124.8 163C120.733 166.733 114.533 172.667 106.2 180.8C105.4 176.667 104.233 172.5 102.7 168.3C101.167 164.033 99.2 159.1 96.8 153.5C110.4 142.633 119.2 135.133 123.2 131C125.533 128.6 127.733 126.867 129.8 125.8C131.867 124.667 133.933 124.1 136 124.1C138.267 124.1 140.633 124.733 143.1 126C145.633 127.2 148.767 129.1 152.5 131.7L157.5 135.3C164.7 140.433 171.533 145.133 178 149.4C184.533 153.6 192.1 158 200.7 162.6ZM212 192.7C210.533 187.3 209.067 182.767 207.6 179.1C206.2 175.367 204.1 171.567 201.3 167.7C213.767 167.7 224.067 166.9 232.2 165.3C240.4 163.633 247.433 160.933 253.3 157.2C258.633 153.8 262.767 148.9 265.7 142.5C268.633 136.1 270.667 128 271.8 118.2C275.8 119.6 279.733 120.833 283.6 121.9C287.533 122.9 292.333 124.067 298 125.4C296.4 137.8 293.367 147.867 288.9 155.6C284.5 163.333 278.433 169.933 270.7 175.4C263.767 180.333 255.667 184.133 246.4 186.8C237.133 189.467 225.667 191.433 212 192.7ZM241.2 151.9C232.933 148.833 226.267 146.567 221.2 145.1C216.133 143.633 209.067 142 200 140.2C203.133 137.2 206.333 133.7 209.6 129.7C212.867 125.633 215.267 122.267 216.8 119.6C225.2 121.933 232.7 124.2 239.3 126.4C245.9 128.6 252.567 131.1 259.3 133.9L241.2 151.9ZM396.1 149.3C393.833 152.9 392.1 156.467 390.9 160C389.7 163.467 388.367 168.033 386.9 173.7C373.167 168.767 357.033 164.433 338.5 160.7V192.5H310.3C310.767 181.3 311.033 170.1 311.1 158.9C311.233 147.7 311.3 133.7 311.3 116.9H338.5V137.6C347.3 138.667 356.9 140.267 367.3 142.4C377.767 144.533 387.367 146.833 396.1 149.3ZM495.5 138C495.233 143.333 495.1 147.067 495.1 149.2C495.1 151.467 495.233 154.867 495.5 159.4C487.033 159.667 479.4 160.3 472.6 161.3C472.6 163.767 472.367 166.133 471.9 168.4L450.4 171.2C451 169.867 451.467 168.367 451.8 166.7C449.4 168.033 447.833 169.2 447.1 170.2C446.7 170.8 446.5 171.267 446.5 171.6C446.5 173 448.833 173.7 453.5 173.7C455.367 173.7 457.533 173.6 460 173.4L469.1 172.8C470.567 172.733 473.367 172.6 477.5 172.4C481.7 172.133 486.533 171.8 492 171.4C490.333 175 489.133 178.267 488.4 181.2C487.667 184.067 486.967 187.6 486.3 191.8C471.9 192.4 461.967 192.7 456.5 192.7C448.433 192.7 441.867 192.133 436.8 191C431.8 189.8 428.067 187.867 425.6 185.2C423.133 182.467 421.9 178.767 421.9 174.1C421.9 170.033 423.8 166.1 427.6 162.3C431.467 158.433 436.867 154.833 443.8 151.5C442.333 151.033 440.567 150.8 438.5 150.8C436.967 150.8 434.4 152.033 430.8 154.5C427.267 156.967 423.4 160.367 419.2 164.7C415.067 169.033 411.3 173.867 407.9 179.2C405.433 170.6 401.933 162.9 397.4 156.1C405.6 149.9 412.7 143.867 418.7 138C412.567 137.867 408 137.733 405 137.6C405 129.133 404.633 122.8 403.9 118.6C416.567 119 426.967 119.2 435.1 119.2L437.1 116.6L438.4 114.9L464.7 115.5L461.8 119C471.6 118.667 479.867 118.233 486.6 117.7C486 121.3 485.7 126.667 485.7 133.8V136.8C474.7 137.6 460.933 138.067 444.4 138.2L441.1 141.2C443.9 140.8 446.533 140.6 449 140.6C455 140.6 459.933 141.8 463.8 144.2C474.133 141.333 484.7 139.267 495.5 138ZM596.2 139.6H573V144.1H594.2V162H573V166.5H596.2V185.7H573V192.3H550.6V158.9C547.133 161.9 543.033 164.9 538.3 167.9C537.033 160.433 535.067 153.233 532.4 146.3V192.3H510.1V168.8C506.9 170.267 504.5 171.267 502.9 171.8C502.767 170.467 502.7 169.467 502.7 168.8C502.3 163.533 501.9 159.167 501.5 155.7C501.1 152.233 500.467 148.767 499.6 145.3C502.467 144.7 504.6 143.967 506 143.1C507.467 142.233 508.667 141.033 509.6 139.5C510.467 138.033 511.4 134.967 512.4 130.3C513.467 125.567 514 120.367 514 114.7L538.5 114.8C538.167 119.733 537.533 124.667 536.6 129.6C535.733 134.467 534.6 138.933 533.2 143C537 141.333 539.933 139.433 542 137.3C544.067 135.1 545.567 132.3 546.5 128.9C547.5 125.433 548.1 120.9 548.3 115.3H571.8C571.667 116.7 571.4 118.5 571 120.7H596.2V139.6ZM657.3 118.7C664.167 118.7 670.267 120.067 675.6 122.8C680.933 125.533 685.067 129.367 688 134.3C690.933 139.167 692.4 144.8 692.4 151.2C692.4 159.733 689.867 167.067 684.8 173.2C679.8 179.267 672.467 183.933 662.8 187.2C653.2 190.4 641.633 192 628.1 192C626.967 188.333 624.967 184.867 622.1 181.6C619.233 178.333 615.233 174.867 610.1 171.2C623.167 170.933 633.733 170.067 641.8 168.6C649.867 167.067 655.767 164.833 659.5 161.9C663.3 158.967 665.2 155.167 665.2 150.5C665.2 146.5 663.9 143.367 661.3 141.1C658.767 138.833 655.233 137.7 650.7 137.7C649.367 137.7 648 137.8 646.6 138C641.8 138.667 638 140.567 635.2 143.7C632.4 146.833 631 150.7 631 155.3C631 157.3 631.3 159.4 631.9 161.6L605.5 164.8C605.033 160.333 604.8 155.267 604.8 149.6C604.8 138.667 605.767 127.767 607.7 116.9L633.3 115.5C632.967 117.167 632.7 118.833 632.5 120.5C632.3 122.167 632.1 124.3 631.9 126.9C635.167 124.233 638.967 122.2 643.3 120.8C647.7 119.4 652.367 118.7 657.3 118.7ZM783.4 190.6C778.067 186.333 771.5 182.267 763.7 178.4C763.367 182.267 762.433 185.233 760.9 187.3C759.367 189.3 756.9 190.7 753.5 191.5C750.167 192.3 745.367 192.7 739.1 192.7C727.767 192.7 719.467 190.933 714.2 187.4C709 183.867 706.4 179.2 706.4 173.4C706.4 168.2 708.667 164.1 713.2 161.1C717.8 158.1 724.5 156.6 733.3 156.6C735.033 156.6 737.5 156.667 740.7 156.8V154.2C727.7 154.067 716.067 153.833 705.8 153.5L705.9 137.4C716.233 137.733 727.833 137.967 740.7 138.1V135.2C729.7 135.067 719.733 134.833 710.8 134.5L710.7 118.7C719.567 119.033 729.567 119.267 740.7 119.4V115.2H763.9V119.3C771.833 119.233 779.8 119.033 787.8 118.7L787.9 134.5C779.9 134.767 771.9 134.967 763.9 135.1V138.1C770.3 138.033 779.967 137.8 792.9 137.4L792.8 153.5C779.8 153.9 770.167 154.133 763.9 154.2V160.1C774.433 162.767 784.467 166.733 794 172L783.4 190.6ZM740.7 169.7C738.767 169.233 737.033 169 735.5 169C733.633 169 732.2 169.267 731.2 169.8C730.2 170.267 729.7 170.867 729.7 171.6C729.7 172.4 730.3 173.133 731.5 173.8C732.7 174.4 734.333 174.7 736.4 174.7C737.733 174.7 738.767 174.4 739.5 173.8C740.3 173.2 740.7 172.1 740.7 170.5V169.7ZM896.7 142.1C893.767 142.1 889.433 142.167 883.7 142.3L884.2 150.7C884.6 156.567 882.667 160.967 878.4 163.9C874.2 166.833 868.533 168.3 861.4 168.3C856.2 168.3 851.5 167.967 847.3 167.3C846.5 163.433 845.567 160.033 844.5 157.1C843.5 154.1 842 151 840 147.8C847.933 149 853.433 149.6 856.5 149.6C858.833 149.6 860.4 149.267 861.2 148.6C862.067 147.933 862.433 146.8 862.3 145.2L862.2 143.3C855.067 143.7 846.467 144.433 836.4 145.5C836.2 149.1 836.1 155.333 836.1 164.2C836.1 166.467 836.467 168.1 837.2 169.1C838 170.033 839.367 170.633 841.3 170.9C843.233 171.167 846.433 171.3 850.9 171.3C857.767 171.3 863.933 171.167 869.4 170.9C874.933 170.567 882.067 169.867 890.8 168.8C889.4 171.4 888.333 174.767 887.6 178.9C886.933 182.967 886.567 187.067 886.5 191.2C878.767 191.6 871.767 191.867 865.5 192C859.233 192.133 849.8 192.2 837.2 192.2C829.533 192.2 823.567 190.4 819.3 186.8C815.033 183.2 812.9 178.033 812.9 171.3C812.9 161.833 813.033 154.167 813.3 148.3L800.3 150.1V128.2L815.2 126.7C815.467 124.1 815.867 121.167 816.4 117.9H840.3L839 124.9C847.133 124.367 854.367 124 860.7 123.8L860.2 116.6H882.1L882.5 123.2C885.633 123.133 890.367 123.1 896.7 123.1V142.1ZM997.7 151.9C997.967 159.633 996.567 166.567 993.5 172.7C990.5 178.767 986.3 183.533 980.9 187C975.567 190.4 969.7 192.1 963.3 192.1C956.167 192.1 950.867 190.7 947.4 187.9C943.933 185.033 942.2 180.767 942.2 175.1C942.2 174.433 942.267 173.233 942.4 171.5C942.667 168.967 942.8 167.267 942.8 166.4C942.8 164.533 942.533 163.133 942 162.2C941.467 161.2 940.567 160.7 939.3 160.7C937.633 160.7 936.067 161.667 934.6 163.6C933.2 165.533 932.067 168.533 931.2 172.6L927.2 191.5C926.267 191.367 925.533 191.3 925 191.3C914.733 190.167 906.667 189.633 900.8 189.7C902.667 181.3 906.467 169.033 912.2 152.9C917.933 136.767 922.933 123.667 927.2 113.6L955.8 116.4C954.2 119.467 952.4 122.7 950.4 126.1C947.8 130.767 945.767 134.467 944.3 137.2C942.9 139.933 941.633 142.8 940.5 145.8C944.967 144.467 948.533 143.8 951.2 143.8C955.6 143.8 959.167 144.967 961.9 147.3C964.633 149.633 966 152.767 966 156.7C966 158.233 965.867 159.633 965.6 160.9C965.333 162.167 964.967 163.567 964.5 165.1C964.1 166.567 963.9 167.4 963.9 167.6C963.9 168.2 964.2 168.5 964.8 168.5C966.533 168.5 967.967 168.033 969.1 167.1C970.233 166.167 971.233 164.167 972.1 161.1C973.033 158.033 973.867 153.333 974.6 147C978.133 148.867 981.767 150.167 985.5 150.9C989.3 151.567 993.367 151.9 997.7 151.9ZM1043.2 127.5C1050.8 127.5 1056.43 128.133 1060.1 129.4C1063.77 130.6 1066.27 132.833 1067.6 136.1C1069 139.367 1069.7 144.4 1069.7 151.2C1069.7 159.933 1069.57 166.467 1069.3 170.8C1069.03 175.067 1068.5 178.333 1067.7 180.6C1066.97 182.867 1065.8 184.867 1064.2 186.6C1062.47 188.467 1059.3 189.933 1054.7 191C1050.1 192 1043.57 192.733 1035.1 193.2C1034.03 185.867 1032.67 180.167 1031 176.1C1029.53 180.633 1027.57 186 1025.1 192.2C1016.7 189.2 1008.03 186.867 999.1 185.2C1003.37 178.8 1006.7 172.8 1009.1 167.2C1011.5 161.533 1013.27 155.3 1014.4 148.5L1002.1 149.7C1002.23 142.233 1001.33 135.2 999.4 128.6C1006.6 128.333 1012.2 128.167 1016.2 128.1C1016.27 125.5 1016.3 121.367 1016.3 115.7H1040.9C1040.77 118.967 1040.5 122.9 1040.1 127.5H1043.2ZM1088.5 120.3C1091.5 130.5 1093.67 139.2 1095 146.4C1096.33 153.6 1097.5 163.1 1098.5 174.9L1075 178.2C1074.67 167.133 1073.77 157.533 1072.3 149.4C1070.9 141.267 1068.53 132.133 1065.2 122L1088.5 120.3ZM1045 169.7C1045.87 169.033 1046.53 167.467 1047 165C1047.53 162.533 1047.8 159.367 1047.8 155.5C1047.8 152.767 1047.63 150.833 1047.3 149.7C1047.03 148.567 1046.43 147.833 1045.5 147.5C1044.63 147.1 1043.1 146.9 1040.9 146.9C1039.63 146.9 1038.6 146.933 1037.8 147C1036.4 155.667 1034.7 163.4 1032.7 170.2C1035.57 170.533 1037.83 170.7 1039.5 170.7C1042.43 170.7 1044.27 170.367 1045 169.7ZM1152.4 112.8C1158.73 112.8 1164.57 113.867 1169.9 116C1175.3 118.133 1179.57 121.1 1182.7 124.9C1185.83 128.7 1187.4 133.067 1187.4 138C1187.4 142 1186.43 145.433 1184.5 148.3C1182.57 151.167 1180.1 153.5 1177.1 155.3L1171.8 158.3C1168.93 159.9 1167.03 161 1166.1 161.6C1164.57 162.533 1163.5 163.567 1162.9 164.7C1162.3 165.833 1162 167.167 1162 168.7H1139.1C1139.1 163.633 1140.3 159.4 1142.7 156C1145.1 152.533 1149.13 149.533 1154.8 147C1157.33 145.867 1159.17 144.633 1160.3 143.3C1161.5 141.9 1162.1 140.333 1162.1 138.6C1162.1 136.667 1161.17 135 1159.3 133.6C1157.5 132.2 1155.2 131.5 1152.4 131.5C1148.6 131.5 1145.63 132.433 1143.5 134.3C1141.43 136.167 1140.4 138.8 1140.4 142.2C1140.4 143.533 1140.6 145.067 1141 146.8C1135.67 145.267 1127.7 144.5 1117.1 144.5C1117.03 143.9 1117 143.067 1117 142C1117 136.4 1118.47 131.4 1121.4 127C1124.4 122.533 1128.57 119.067 1133.9 116.6C1139.3 114.067 1145.47 112.8 1152.4 112.8ZM1162.1 194H1138.9V176.2H1162.1V194Z" fill="#231815"/>
</svg>
