<svg width="30" height="30" viewBox="0 0 30 30" fill="none" xmlns="http://www.w3.org/2000/svg">
<path d="M21.2123 0.104907C22.8083 0.180207 23.8982 0.434908 24.851 0.809309C25.8371 1.19361 26.6729 1.70931 27.5046 2.54392C28.3362 3.37852 28.8483 4.21492 29.2299 5.20252C29.5992 6.15743 29.8494 7.24823 29.9199 8.84514C29.9904 10.442 30.006 10.9553 29.9982 15.0288C29.9904 19.1022 29.9724 19.6128 29.895 21.213C29.8188 22.8087 29.565 23.8983 29.1906 24.8514C28.8057 25.8375 28.2906 26.673 27.4556 27.5049C26.6207 28.3368 25.7849 28.8477 24.7949 29.2299C23.8409 29.5986 22.7498 29.85 21.1532 29.9199C19.5566 29.9898 19.0427 30.006 14.9704 29.9982C10.8982 29.9904 10.3855 29.9724 8.78556 29.8965C7.18564 29.8206 6.10173 29.565 5.14832 29.1924C4.16221 28.8066 3.32611 28.2924 2.4948 27.4572C1.66349 26.622 1.15168 25.785 0.77038 24.7968C0.400776 23.8428 0.149673 22.7517 0.0803719 21.1563C0.0104713 19.5552 -0.00602913 19.044 0.00177193 14.9712C0.00957108 10.8983 0.0278702 10.3877 0.103771 8.78814C0.179672 7.18853 0.433775 6.10223 0.80788 5.14852C1.19338 4.16242 1.70789 3.32752 2.5425 2.49501C3.37711 1.66251 4.21471 1.15101 5.20262 0.770609C6.15723 0.401308 7.24775 0.149607 8.84436 0.0806067C10.441 0.0116065 10.9549 -0.0060936 15.0286 0.00170642C19.1024 0.00950645 19.6124 0.0269065 21.2123 0.104907ZM21.0371 27.2214C22.4996 27.1578 23.2937 26.9148 23.8229 26.7114C24.5237 26.4414 25.0229 26.115 25.5503 25.5927C26.0777 25.0704 26.4017 24.5694 26.6753 23.8701C26.8808 23.3409 27.1283 22.5477 27.1967 21.0852C27.2711 19.5045 27.2867 19.0299 27.2954 15.0252C27.3041 11.0204 27.2888 10.5464 27.2195 8.96514C27.1571 7.50383 26.9126 6.70883 26.7095 6.17993C26.4395 5.47823 26.1143 4.97992 25.5908 4.45282C25.0673 3.92572 24.5678 3.60112 23.8679 3.32752C23.3393 3.12112 22.5461 2.87572 21.0842 2.80612C19.5023 2.73112 19.0283 2.71612 15.0241 2.70742C11.02 2.69872 10.5448 2.71372 8.96226 2.78332C7.50095 2.84692 6.70564 3.08902 6.17733 3.29332C5.47623 3.56332 4.97732 3.88762 4.45022 4.41202C3.92311 4.93642 3.59821 5.43413 3.32461 6.13553C3.1179 6.66263 2.8725 7.45553 2.8035 8.91834C2.7282 10.5002 2.7111 10.9745 2.7039 14.9784C2.6967 18.9822 2.7108 19.4577 2.7801 21.0384C2.844 22.5009 3.0864 23.2953 3.2901 23.8251C3.56011 24.5256 3.88561 25.0251 4.40942 25.5519C4.93322 26.0787 5.43213 26.4033 6.13233 26.6769C6.66034 26.883 7.45445 27.129 8.91516 27.1986C10.4971 27.273 10.9711 27.2886 14.9767 27.2973C18.9824 27.306 19.4549 27.2898 21.0368 27.2214M8.80866 6.98303C8.80807 7.33906 8.7019 7.68692 8.50359 7.98261C8.30528 8.27831 8.02374 8.50855 7.69457 8.64422C7.3654 8.77989 7.00338 8.8149 6.65432 8.74481C6.30525 8.67473 5.9848 8.5027 5.73351 8.25049C5.48222 7.99827 5.31136 7.6772 5.24256 7.32788C5.17375 6.97856 5.21009 6.61668 5.34697 6.28801C5.48385 5.95934 5.71512 5.67864 6.01154 5.48142C6.30796 5.2842 6.65621 5.17931 7.01224 5.18002C7.48953 5.18098 7.94691 5.37145 8.28378 5.70957C8.62066 6.04768 8.80946 6.50574 8.80866 6.98303ZM22.7018 15.015C22.6934 19.269 19.2386 22.7097 14.9854 22.7016C10.7323 22.6935 7.28914 19.239 7.29725 14.985C7.30535 10.7309 10.7611 7.28933 15.0148 7.29773C19.2686 7.30613 22.7099 10.7615 22.7018 15.015ZM20 15.0096C20.0019 14.0206 19.7106 13.0533 19.1628 12.23C18.615 11.4066 17.8354 10.7642 16.9224 10.384C16.0095 10.0037 15.0044 9.9027 14.0341 10.0937C13.0637 10.2847 12.1719 10.7592 11.4712 11.4571C10.7705 12.155 10.2926 13.0449 10.0977 14.0145C9.90285 14.984 9.99988 15.9896 10.3765 16.904C10.7532 17.8184 11.3925 18.6006 12.2137 19.1516C13.0348 19.7027 14.001 19.9978 14.9899 19.9998C15.6466 20.0012 16.2971 19.8732 16.9042 19.6231C17.5114 19.3731 18.0634 19.0059 18.5286 18.5425C18.9939 18.0791 19.3633 17.5285 19.6157 16.9224C19.8682 16.3162 19.9988 15.6662 20 15.0096Z" fill="white"/>
</svg>
