<svg width="18" height="16" viewBox="0 0 18 16" fill="none" xmlns="http://www.w3.org/2000/svg">
<path d="M17.9559 2.11514C17.8811 1.69526 17.7124 1.29841 17.4663 0.964781C17.4163 0.894736 17.3641 0.832421 17.3069 0.769209C16.8691 0.280376 16.26 0 15.6359 0H2.36405C1.73296 0 1.13941 0.273309 0.692754 0.769482C0.636223 0.832109 0.583805 0.895048 0.531914 0.967319C0.286875 1.29955 0.118934 1.69584 0.0459141 2.11631C0.0153984 2.28143 0 2.45252 0 2.6256V12.9777C0 13.3378 0.0658828 13.6885 0.196488 14.0219C0.309516 14.318 0.481008 14.5986 0.692613 14.8335C0.74591 14.8925 0.798855 14.9468 0.855387 14.9998C1.27846 15.3889 1.81417 15.603 2.36405 15.603H15.6359C16.1893 15.603 16.7245 15.3881 17.1464 14.9955C17.2028 14.9448 17.2551 14.8916 17.3074 14.8335C17.5119 14.6066 17.6745 14.3459 17.7913 14.0584L17.8067 14.0174C17.9349 13.6903 18 13.3407 18 12.9777V2.6256C18 2.45478 17.9852 2.28256 17.9559 2.11514ZM1.22425 1.67562C1.25768 1.62127 1.30036 1.56548 1.35482 1.50453C1.62513 1.20447 1.98362 1.03936 2.36401 1.03936H15.6358C16.0196 1.03936 16.3782 1.20475 16.6455 1.50511C16.6917 1.55692 16.7357 1.61444 16.7742 1.67191L16.8757 1.8234L9.79172 8.68018C9.57333 8.89281 9.29215 9.00983 8.99989 9.00983C8.71052 9.00983 8.42959 8.89309 8.2086 8.68045L1.13168 1.82535L1.22425 1.67562ZM0.940605 13.0691C0.936773 13.0409 0.935895 13.0096 0.935895 12.9777V2.83995L6.43328 8.16601L0.991371 13.4354L0.940605 13.0691ZM16.3441 14.3547C16.1313 14.491 15.8863 14.5633 15.6359 14.5633H2.36405C2.11349 14.5633 1.86855 14.491 1.65593 14.3547L1.43346 14.2114L7.05621 8.76951L7.67243 9.36478C8.04206 9.72118 8.51344 9.91765 8.99996 9.91765C9.48829 9.91765 9.96043 9.72118 10.3298 9.36478L10.9458 8.76924L16.5666 14.2118L16.3441 14.3547ZM17.0639 12.9777C17.0639 13.009 17.0633 13.04 17.0598 13.0676L17.0111 13.4374L11.5668 8.16886L17.0639 2.84253V12.9777Z" fill="#231815"/>
</svg>
