<svg width="237" height="135" viewBox="0 0 237 135" fill="none" xmlns="http://www.w3.org/2000/svg">
<path d="M34.4449 47.0569C35.137 48.5274 35.483 49.9403 35.483 51.3531C35.483 54.6113 33.4646 58.0426 29.4567 61.6756C26.6021 64.2995 22.7672 65.6259 17.9808 65.6259C13.1944 65.6259 6.53377 63.0308 3.85222 57.8696L11.7239 51.2666C13.1079 54.2077 15.2704 55.6782 18.2115 55.6782C21.1525 55.6782 22.5077 54.5537 22.5077 52.3046C22.5077 50.0556 20.72 49.0176 17.1735 47.7777C5.35158 43.6545 -0.35752 35.8693 0.01732 24.4511C0.161489 18.1942 2.5547 12.9176 7.19695 8.56367C11.868 4.23859 17.3753 2.19139 23.7764 2.42206C28.9377 2.56623 31.9364 2.68157 32.6861 2.76807L38.943 34.1681C37.4725 33.2455 34.6179 32.6976 30.3794 32.5534C27.4383 32.4669 25.5064 32.6399 24.5838 33.0148C23.1132 33.5626 22.4501 34.8601 22.6231 36.965C22.7672 39.2141 24.2954 40.7999 27.15 41.7226C30.9272 43.049 33.3781 44.8078 34.4449 47.0569Z" fill="#BC0011"/>
<path d="M70.718 64.4148C69.0168 64.6455 67.2868 64.732 65.4991 64.6455C59.79 64.1842 54.8882 61.9063 50.8515 57.8119C46.7859 53.7175 44.7675 48.931 44.7675 43.4526C44.7675 37.9742 44.7964 41.8668 44.8829 41.0306L46.9589 23.4131L39.7793 23.9898L38.7413 13.3212L48.2564 13.2059L49.8711 0L58.0888 0.461342L58.5501 13.0906L65.6144 12.9752L66.9984 21.5389L58.8961 22.2309L59.3575 35.3215C59.2133 37.5705 59.8765 39.5312 61.3758 41.2324C62.8752 42.9336 64.7494 43.8851 66.9984 44.1158L70.718 64.386V64.4148Z" fill="#BC0011"/>
<path d="M117.054 45.5285L86.9223 54.2075C88.537 57.3792 91.1609 58.9651 94.794 58.9651C98.427 58.9651 98.0522 58.5326 99.4362 57.6964L107.193 62.2233C103.012 65.222 98.3117 66.7502 93.0639 66.7502C87.8162 66.7502 82.6837 65.0779 78.3587 61.7043C74.0336 58.3307 71.2944 53.948 70.141 48.5561C69.7662 46.8549 69.5643 45.1537 69.5643 43.4525C69.5643 38.0605 71.2944 33.1876 74.7833 28.8625C78.2722 24.5375 82.7414 21.7694 88.2198 20.5296C90.0075 20.1547 91.7376 19.9529 93.4388 19.9529C98.9172 19.9529 103.848 21.6541 108.202 25.0565C112.556 28.4589 115.324 32.8128 116.477 38.147C116.938 40.2231 117.14 42.7028 117.054 45.5573V45.5285ZM102.348 42.6451C100.561 40.0212 98.1099 38.6949 94.9381 38.6949C91.7664 38.6949 90.2382 39.6176 88.4505 41.4053C86.6628 43.2218 85.9131 45.4132 86.1438 47.9506L102.377 42.6163L102.348 42.6451Z" fill="#BC0011"/>
<path d="M163.303 39.9638C163.303 43.741 162.265 47.3164 160.247 50.6323C158.2 53.9482 155.403 56.5144 151.856 58.2733C149.002 59.6573 145.974 60.3493 142.831 60.3493C139.689 60.3493 135.133 59.2824 131.817 57.0911L131.01 85.7231H122.446L113.767 22.2309L132.884 19.4629V22.9518C136.2 21.0199 139.689 20.0684 143.379 20.0684C147.07 20.0684 150.674 21.0776 153.932 23.0671C157.191 25.0855 159.67 27.8247 161.372 31.2848C162.669 33.9952 163.332 36.8785 163.332 39.9638H163.303ZM147.877 43.914C147.877 42.7606 147.618 41.665 147.07 40.6558C145.772 37.8877 143.552 36.4749 140.409 36.4749C137.266 36.4749 138.16 36.7344 137.065 37.2822C134.239 38.6662 132.797 40.9441 132.797 44.1158C132.797 47.2876 133.057 46.2784 133.605 47.3741C134.902 50.0844 137.122 51.4396 140.265 51.4396C143.408 51.4396 142.514 51.209 143.61 50.7476C146.436 49.3636 147.877 47.0857 147.877 43.914Z" fill="#BC0011"/>
<path d="M118.496 76.6115L110.624 131.309L99.1481 131.079L100.532 113.23L90.9017 113.461L89.5176 130.963L72.3615 131.886L69.9395 74.6508L93.9292 72.8054L92.0839 97.4872L101.714 98.4099L103.444 75.2275L118.496 76.6115Z" fill="#BC0011"/>
<path d="M145.253 124.245L136.113 125.167C135.651 127.186 135.219 129.06 134.844 130.848L116.073 129.118C119.476 114.297 124.637 101.091 131.586 89.4998C134.44 84.7134 137.583 80.4171 140.957 76.6399C146.608 79.4079 151.568 89.4133 155.893 106.656C157.738 113.836 159.382 122.169 160.766 131.684L145.714 131.338C145.57 128.022 145.397 125.657 145.253 124.273V124.245ZM144.1 115.537C143.408 111.76 142.543 108.559 141.562 105.906C140.178 110.318 139.198 113.432 138.679 115.277L144.129 115.508L144.1 115.537Z" fill="#BC0011"/>
<path d="M179.594 133.587V133.703L168.926 135L157.565 74.7086L176.279 72.1135L178.931 121.016L200.24 113.346L208.255 130.646L179.594 133.558V133.587Z" fill="#BC0011"/>
<path d="M209.582 108.271V108.357L199.375 108.271L196.607 56.6007L214.512 56.4854L210.562 97.6889L231.582 93.5945L236.859 108.934L209.582 108.242V108.271Z" fill="#BC0011"/>
<path d="M177.987 15.5613L164.364 18.1602L174.165 69.5383L187.788 66.9395L177.987 15.5613Z" fill="#BC0011"/>
<path d="M212.898 56.5144H174.116V69.259H212.898V56.5144Z" fill="#BC0011"/>
</svg>
