<svg width="127" height="131" viewBox="0 0 127 131" fill="none" xmlns="http://www.w3.org/2000/svg">
<path d="M106.779 0C104.391 0 102.306 1.61473 101.709 3.92642L96.5266 24.0081H5.23385C3.58947 24.0081 2.04017 24.7812 1.05185 26.0951C0.0635372 27.4098 -0.250566 29.1122 0.20436 30.694L15.2389 82.863C15.8845 85.1047 17.937 86.6491 20.2692 86.6491H80.3619L78.098 95.4216H20.7272V104.656H81.195C83.5826 104.656 85.6676 103.04 86.2647 100.727L109.876 9.23398H126.615V0H106.779ZM87.3123 59.716L82.7449 77.4147H71.2099V59.716H87.3123ZM94.1433 33.2423L89.6947 50.4817H71.2099V33.2423H94.1433ZM61.9757 59.716V77.4147H42.2748V59.716H61.9757ZM61.9757 33.2423V50.4817H42.2748V33.2423H61.9757ZM34.5193 33.2423V50.4817H15.5167L10.5493 33.2423H34.5193ZM34.5193 59.716V77.4147H23.2773L18.1773 59.716H34.5193Z" fill="#BC0011"/>
<path d="M29.5465 111.607C24.3762 111.607 20.184 115.799 20.184 120.972C20.184 126.143 24.3759 130.335 29.5465 130.335C34.7194 130.335 38.909 126.143 38.909 120.972C38.909 115.799 34.7196 111.607 29.5465 111.607Z" fill="#BC0011"/>
<path d="M74.4713 112.128C69.2984 112.128 65.1088 116.322 65.1088 121.491C65.1088 126.664 69.2982 130.855 74.4713 130.855C79.6416 130.855 83.8338 126.664 83.8338 121.491C83.8338 116.322 79.6416 112.128 74.4713 112.128Z" fill="#BC0011"/>
</svg>
