<svg width="131" height="131" viewBox="0 0 131 131" fill="none" xmlns="http://www.w3.org/2000/svg">
<path d="M86.3383 62.42C86.7696 63.5251 86.989 64.6971 86.9903 65.9073C86.9903 67.2068 86.7361 68.4676 86.2328 69.6601C86.2305 69.6654 86.2282 69.6712 86.2256 69.6771L88.6525 70.7362C89.3082 69.2106 89.6402 67.5872 89.6402 65.9073C89.6402 64.3319 89.3479 62.803 88.7707 61.3569L86.3383 62.42Z" fill="#BC0011"/>
<path d="M95.6896 58.3376L93.2594 59.3987C94.1045 61.4597 94.5336 63.6482 94.5349 65.9069C94.5349 68.2261 94.0808 70.475 93.1841 72.5958C93.17 72.6293 93.1558 72.6628 93.1417 72.6957L95.569 73.7541C96.6416 71.2732 97.1849 68.6348 97.1849 65.9069C97.1849 63.2829 96.6813 60.7357 95.6896 58.3376Z" fill="#BC0011"/>
<path d="M115.228 0.00409388L15.7696 0C7.05938 0.00409388 0 7.05938 0 15.7717V115.228C0.00204694 123.941 7.05759 131 15.7696 131L115.228 131.004C123.941 131 130.996 123.941 131 115.228V15.7717C130.996 7.05938 123.939 0.00409388 115.228 0.00409388ZM110.617 14.8651C113.666 14.8651 116.137 17.334 116.137 20.3847C116.137 23.4313 113.666 25.9022 110.617 25.9022C107.571 25.9022 105.1 23.4313 105.1 20.3847C105.1 17.334 107.571 14.8651 110.617 14.8651ZM20.3786 14.8651C23.4272 14.8651 25.8984 17.334 25.8984 20.3847C25.8984 23.4313 23.4272 25.9022 20.3786 25.9022C17.3319 25.9022 14.861 23.4313 14.861 20.3847C14.861 17.334 17.3319 14.8651 20.3786 14.8651ZM20.3786 116.141C17.3319 116.141 14.861 113.67 14.861 110.621C14.861 107.575 17.3319 105.104 20.3786 105.104C23.4293 105.104 25.9002 107.575 25.9002 110.621C25.9002 113.67 23.4295 116.141 20.3786 116.141ZM65.502 110.702C40.5391 110.702 20.3046 90.4647 20.3046 65.5041C20.3046 40.5432 40.5391 20.3067 65.502 20.3067C90.4629 20.3067 110.697 40.5432 110.697 65.5041C110.698 90.4647 90.4629 110.702 65.502 110.702ZM110.617 116.141C107.571 116.141 105.1 113.67 105.1 110.621C105.1 107.575 107.571 105.104 110.617 105.104C113.668 105.104 116.139 107.575 116.139 110.621C116.139 113.67 113.668 116.141 110.617 116.141Z" fill="#BC0011"/>
<path d="M65.502 49.7778C56.8166 49.7778 49.7756 56.8167 49.7756 65.5042C49.7756 74.1876 56.8166 81.2306 65.502 81.2306C74.1874 81.2306 81.2263 74.1876 81.2263 65.5042C81.2263 56.8167 74.1874 49.7778 65.502 49.7778Z" fill="#BC0011"/>
</svg>
