<svg width="176" height="134" viewBox="0 0 176 134" fill="none" xmlns="http://www.w3.org/2000/svg">
<path d="M24.274 111.729C28.2771 109.563 31.0274 105.382 31.0274 100.513C31.0274 93.4327 25.2904 87.7097 18.2211 87.7097C11.1518 87.7097 5.41751 93.4327 5.41751 100.513C5.41751 105.382 8.16505 109.564 12.1654 111.729C5.10979 114.229 0.0266113 120.903 0.0266113 128.81V134H36.4152V128.81C36.4155 120.903 31.3269 114.229 24.274 111.729Z" fill="#BC0011"/>
<path d="M70.6176 111.729C74.6234 109.563 77.3655 105.382 77.3655 100.513C77.3655 93.4327 71.6367 87.7097 64.5619 87.7097C57.4954 87.7097 51.7587 93.4327 51.7587 100.513C51.7587 105.382 54.509 109.564 58.5121 111.729C51.4506 114.229 46.3733 120.903 46.3733 128.81V134H82.7588V128.81C82.7588 120.903 77.6759 114.229 70.6176 111.729Z" fill="#BC0011"/>
<path d="M116.963 111.729C120.96 109.563 123.714 105.382 123.714 100.513C123.714 93.4327 117.979 87.7097 110.907 87.7097C103.835 87.7097 98.1037 93.4327 98.1037 100.513C98.1037 105.382 100.851 109.564 104.852 111.729C97.796 114.229 92.7104 120.903 92.7104 128.81V134H129.102V128.81C129.101 120.903 124.013 114.229 116.963 111.729Z" fill="#BC0011"/>
<path d="M163.301 111.729C167.307 109.563 170.051 105.382 170.051 100.513C170.051 93.4327 164.323 87.7097 157.248 87.7097C150.178 87.7097 144.444 93.4327 144.444 100.513C144.444 105.382 147.197 109.564 151.195 111.729C144.136 114.229 139.056 120.903 139.056 128.81V134H175.448V128.81C175.448 120.903 170.359 114.229 163.301 111.729Z" fill="#BC0011"/>
<rect x="29.8911" width="114.366" height="61.0818" fill="#BC0011"/>
<rect y="5.19849" width="24.6927" height="51.9845" fill="#BC0011"/>
<rect x="150.755" y="5.19849" width="24.6927" height="51.9845" fill="#BC0011"/>
</svg>
