<svg width="132" height="135" viewBox="0 0 132 135" fill="none" xmlns="http://www.w3.org/2000/svg">
<path d="M42.0753 23.5069C45.7078 23.5069 48.6532 20.5635 48.6532 16.9269V6.57577C48.6532 2.94572 45.7078 0 42.0753 0C38.4429 0 35.4951 2.94572 35.4951 6.57577V16.9266C35.4951 20.5635 38.4429 23.5069 42.0753 23.5069Z" fill="#BC0011"/>
<path d="M90.5836 23.5069C94.214 23.5069 97.1615 20.5635 97.1615 16.9269V6.57577C97.1615 2.94572 94.2137 0 90.5836 0C86.9512 0 84.0034 2.94572 84.0034 6.57577V16.9266C84.0032 20.5635 86.9512 23.5069 90.5836 23.5069Z" fill="#BC0011"/>
<path d="M113.377 9.37427H102.941V16.9268C102.941 23.7439 97.3986 29.2882 90.5835 29.2882C83.7685 29.2882 78.2244 23.7439 78.2244 16.9268V9.37427H54.4322V16.9268C54.4322 23.7439 48.8879 29.2882 42.0755 29.2882C35.2604 29.2882 29.7161 23.7439 29.7161 16.9268V9.37427H18.4762C8.27221 9.37427 0 17.6467 0 27.8505V115.563C0 125.767 8.27221 134.039 18.4762 134.039H113.377C123.581 134.039 131.853 125.767 131.853 115.563V27.8505C131.853 17.6467 123.581 9.37427 113.377 9.37427ZM122.863 115.563C122.863 120.793 118.607 125.049 113.377 125.049H18.4762C13.2458 125.049 8.99005 120.793 8.99005 115.563V39.5271H122.863V115.563Z" fill="#BC0011"/>
<path d="M61.35 100.14H44.7021V116.787H61.35V100.14Z" fill="#BC0011"/>
<path d="M61.35 74.3394H44.7021V90.9872H61.35V74.3394Z" fill="#BC0011"/>
<path d="M35.5495 100.14H18.9041V116.787H35.5495V100.14Z" fill="#BC0011"/>
<path d="M35.5495 74.3394H18.9041V90.9872H35.5495V74.3394Z" fill="#BC0011"/>
<path d="M112.949 48.5415H96.3033V65.187H112.949V48.5415Z" fill="#BC0011"/>
<path d="M87.1505 48.5415H70.5027V65.187H87.1505V48.5415Z" fill="#BC0011"/>
<path d="M90.5457 76.7626L85.5941 72.9126L76.5776 84.5104L71.2244 80.2282L67.3066 85.1206L77.6224 93.3753L90.5457 76.7626Z" fill="#BC0011"/>
<path d="M112.949 74.3394H96.3033V90.9872H112.949V74.3394Z" fill="#BC0011"/>
<path d="M87.1505 100.14H70.5027V116.787H87.1505V100.14Z" fill="#BC0011"/>
<path d="M61.35 48.5415H44.7021V65.187H61.35V48.5415Z" fill="#BC0011"/>
</svg>
