<svg width="142" height="124" viewBox="0 0 142 124" fill="none" xmlns="http://www.w3.org/2000/svg">
<path d="M47.929 53.3485C55.9158 68.6575 67.2703 84.4413 67.3308 84.532L71.0869 89.7558L74.8385 84.532C74.8816 84.4759 81.4914 75.2672 88.1616 64.1501C91.4947 58.5809 94.849 52.5368 97.4264 46.8164C98.7087 43.9542 99.8051 41.1782 100.604 38.5229C101.398 35.8679 101.916 33.3507 101.925 30.8469C101.92 13.8111 88.1227 0.00442087 71.0869 0C54.0466 0.00442087 40.2444 13.8108 40.24 30.8469C40.253 33.351 40.771 35.8679 41.5654 38.5229C42.9641 43.1598 45.2651 48.2239 47.929 53.3485ZM55.8081 15.5681C59.7324 11.6523 65.1032 9.2432 71.0869 9.23906C77.0664 9.24348 82.4369 11.6523 86.3612 15.5681C90.277 19.4969 92.6861 24.8632 92.6861 30.8469C92.6947 31.9651 92.3968 33.7566 91.758 35.8635C90.6484 39.5764 88.559 44.2648 86.0463 49.0785C82.2816 56.31 77.58 63.8694 73.8413 69.5811C72.8353 71.1094 71.9158 72.4909 71.0869 73.7171C68.475 69.8574 64.8485 64.3228 61.2996 58.3347C58.1912 53.0894 55.1519 47.5069 52.9458 42.5119C51.8406 40.0252 50.9426 37.681 50.3511 35.656C49.7509 33.6398 49.4746 31.9258 49.4832 30.8466C49.4832 24.8632 51.8923 19.4969 55.8081 15.5681Z" fill="#BC0011"/>
<path d="M71.0867 40.8759C76.6213 40.8759 81.1157 36.3904 81.1157 30.8469C81.1157 25.3078 76.6213 20.8135 71.0867 20.8135C65.5476 20.8135 61.0532 25.3078 61.0532 30.8469C61.0535 36.3904 65.5479 40.8759 71.0867 40.8759Z" fill="#BC0011"/>
<path d="M141.428 117.762C141.372 117.365 141.272 116.959 141.117 116.553C140.966 116.139 140.767 115.724 140.513 115.314L113.508 70.1901C113.452 70.0909 113.379 69.9873 113.297 69.8922C113.21 69.793 113.115 69.7021 113.012 69.6029C112.904 69.5123 112.791 69.4173 112.666 69.3222C112.537 69.2357 112.403 69.141 112.26 69.0589C112.045 68.9252 111.816 68.8041 111.57 68.692C111.319 68.5754 111.056 68.4632 110.775 68.3552C110.499 68.2601 110.214 68.1565 109.907 68.0788C109.601 67.9838 109.29 67.8976 108.966 67.8241C108.642 67.7506 108.31 67.6859 107.965 67.6254C107.624 67.5693 107.27 67.5174 106.916 67.4787C106.562 67.4442 106.203 67.4096 105.836 67.3922C105.478 67.3707 105.115 67.3533 104.753 67.3533H91.5591C91.4511 67.5345 91.3605 67.6987 91.2527 67.8799C90.5879 68.9851 89.9273 70.0644 89.2755 71.1221H104.291L107.922 79.0357H87.592L86.802 75.0464C85.2434 77.4726 83.8058 79.6485 82.5839 81.4445H82.7566L84.3929 93.8522H73.8157H70.7374H67.655H57.0778L58.7184 81.4445H58.8867C57.6649 79.6485 56.2273 77.4726 54.6687 75.0464L53.8787 79.0357H33.5488L37.1838 71.1221H52.1993C51.5431 70.0644 50.8825 68.9851 50.2177 67.8799C50.1096 67.6987 50.019 67.5345 49.9113 67.3533H36.7177C36.3549 67.3533 35.9968 67.3707 35.6341 67.3922C35.2713 67.4096 34.9088 67.4442 34.5548 67.4787C34.2009 67.5177 33.8466 67.5693 33.5057 67.6254C33.1647 67.6859 32.8321 67.7506 32.5085 67.8241C32.185 67.8976 31.8694 67.9838 31.5674 68.0788C31.261 68.1565 30.9717 68.2601 30.6954 68.3552C30.4147 68.4632 30.1514 68.5754 29.901 68.692C29.6548 68.8041 29.4261 68.9252 29.2103 69.0589C29.0677 69.141 28.934 69.236 28.8088 69.3222C28.6836 69.4173 28.567 69.5123 28.459 69.6029C28.3554 69.7021 28.2603 69.793 28.1783 69.8922C28.0918 69.9873 28.0186 70.0909 27.9581 70.1901L0.957327 115.314C0.706995 115.724 0.508333 116.138 0.352773 116.553C0.201635 116.959 0.0980209 117.365 0.046352 117.762C-0.00973771 118.159 -0.0141586 118.556 0.0289449 118.927C0.0720483 119.303 0.162676 119.666 0.305249 120.015C0.43898 120.365 0.629078 120.698 0.862278 121.009C1.09106 121.332 1.36736 121.626 1.69119 121.898C2.01502 122.174 2.37753 122.429 2.78784 122.653C3.19373 122.887 3.64273 123.089 4.13483 123.271C4.46722 123.379 4.8126 123.486 5.17953 123.577C5.5379 123.668 5.91782 123.745 6.31487 123.806C6.71219 123.87 7.12223 123.914 7.54525 123.953C7.96413 123.979 8.40013 124 8.84913 124H70.7369H132.625C133.069 124 133.505 123.979 133.928 123.953C134.351 123.914 134.762 123.87 135.159 123.806C135.552 123.745 135.932 123.668 136.294 123.577C136.657 123.486 137.006 123.378 137.339 123.271C137.827 123.089 138.276 122.886 138.686 122.653C139.092 122.429 139.459 122.174 139.783 121.898C140.102 121.626 140.374 121.332 140.611 121.009C140.84 120.698 141.03 120.365 141.164 120.015C141.302 119.666 141.397 119.303 141.44 118.927C141.484 118.556 141.48 118.159 141.428 117.762ZM47.1736 112.862H18.0235L25.1773 97.272H50.2649L47.1736 112.862ZM50.9424 93.8528H26.7528L32.443 81.4451H53.399L50.9424 93.8528ZM70.7371 112.862H54.5648L56.6241 97.272H70.7371H84.8461L86.9098 112.862H70.7371ZM88.0708 81.4451H109.027L114.721 93.8528H90.5271L88.0708 81.4451ZM94.2962 112.862L91.2093 97.272H116.293L123.446 112.862H94.2962Z" fill="#BC0011"/>
</svg>
