<svg width="75" height="124" viewBox="0 0 75 124" fill="none" xmlns="http://www.w3.org/2000/svg">
<path d="M31.004 98C23.8233 98 18 103.822 18 111.002C18 118.175 23.8233 124 31.004 124C38.1787 124 44 118.175 44 111.002C44 103.822 38.1787 98 31.004 98Z" fill="#BC0011"/>
<path d="M1.7694 21.1167L10.5057 28.0718C12.2843 29.4849 14.8322 29.4333 16.55 27.9469C16.55 27.9469 17.6234 26.02 20.9872 24.1114C24.368 22.2137 28.7533 20.6871 35.3064 20.6648C41.0235 20.6539 46.0099 22.7716 49.4111 25.6677C51.0995 27.1066 52.363 28.7065 53.1371 30.1815C53.9167 31.661 54.201 32.9562 54.1975 33.9398C54.1825 37.2649 53.5306 39.4416 52.5904 41.2912C51.8757 42.6786 50.9429 43.9044 49.7398 45.0936C47.9462 46.8773 45.5091 48.5253 42.7792 50.041C40.0449 51.568 37.0986 52.9187 34.1208 54.5479C30.725 56.4198 27.1268 59.1033 24.4717 63.1326C23.1455 65.122 22.109 67.4047 21.4496 69.8048C20.7842 72.2163 20.4834 74.7378 20.4834 77.3103C20.4834 80.0558 20.4834 82.3127 20.4834 82.3127C20.4834 84.8967 22.5968 87 25.2035 87H36.5698C39.1745 87 41.2864 84.8967 41.2864 82.3127C41.2864 82.3127 41.2864 80.0558 41.2864 77.3103C41.2864 76.3194 41.4011 75.6772 41.5118 75.2769C41.6984 74.6679 41.8036 74.5168 42.1144 74.1462C42.4266 73.7939 43.0601 73.2583 44.2277 72.6161C45.9331 71.6653 48.6744 70.3805 51.7799 68.7107C56.4296 66.1858 62.0788 62.7615 66.8453 57.1055C69.2135 54.2798 71.3084 50.8843 72.7609 46.9719C74.2164 43.0556 75.0069 38.6518 75 33.9388C74.996 29.1638 73.6921 24.6237 71.5673 20.5974C68.3676 14.549 63.3538 9.51346 57.1428 5.85779C50.9339 2.22045 43.4411 0.000189929 35.3074 0.000189929C25.2833 -0.0255752 16.9535 2.57274 10.6693 6.16598C4.3566 9.74435 1.63572 13.9099 1.63572 13.9099C0.575296 14.8275 -0.02325 16.1564 0.000691776 17.5472C0.0311178 18.944 0.675555 20.2506 1.7694 21.1167Z" fill="#BC0011"/>
</svg>
