<svg width="162" height="119" viewBox="0 0 162 119" fill="none" xmlns="http://www.w3.org/2000/svg">
<path d="M155.114 6.88374C150.88 2.64009 144.965 -0.00252943 138.493 1.8168e-06H23.5074C10.523 0.00474791 0.00474609 10.5205 0 23.5049V94.833C0.00474609 107.817 10.523 118.333 23.5074 118.338H138.493C144.965 118.34 150.88 115.697 155.114 111.454C159.357 107.22 162 101.305 162 94.833V23.5049C162 17.0328 159.357 11.1179 155.114 6.88374ZM23.5074 12.037H138.493C141.246 12.0396 143.703 13.0293 145.679 14.6347L81 63.4334L16.3202 14.6347C18.2975 13.029 20.7544 12.0393 23.5074 12.037ZM12.0367 94.833V23.5049C12.0418 21.6615 12.5069 19.9595 13.2688 18.4266L58.1393 59.5587L13.1467 99.6828C12.4553 98.2112 12.0418 96.5846 12.0367 94.833ZM138.493 106.301H23.5074C20.9116 106.299 18.5775 105.424 16.6613 103.985L64.3178 65.4388L71.5376 72.3083C76.8883 77.2218 85.112 77.2218 90.4628 72.3083L97.6825 65.4388L145.336 103.985C143.42 105.424 141.086 106.299 138.493 106.301ZM149.963 94.833C149.958 96.5843 149.545 98.2112 148.853 99.6828L103.861 59.559L148.729 18.4269C149.493 19.9595 149.958 21.6596 149.963 23.5052V94.833H149.963Z" fill="#BC0011"/>
</svg>
