<svg width="111" height="132" viewBox="0 0 111 132" fill="none" xmlns="http://www.w3.org/2000/svg">
<path d="M69.1476 86.1516H19.2297V90.9249H69.1476V86.1516Z" fill="#BC0011"/>
<path d="M69.1476 66.8208H19.2297V71.5785H69.1476V66.8208Z" fill="#BC0011"/>
<path d="M69.1476 47.4717H19.2297V52.245H69.1476V47.4717Z" fill="#BC0011"/>
<path d="M69.1476 28.1387H45.6302V32.912H69.1476V28.1387Z" fill="#BC0011"/>
<path d="M88.3949 101.74V10.1727C88.3949 9.58363 88.3443 8.99069 88.2429 8.43472C87.416 3.64394 83.2317 0 78.2067 0H36.9263C33.9574 0 31.1232 1.18203 29.0321 3.27338L3.27338 29.0144C1.18024 31.1252 0 33.9574 0 36.9283V101.74C0 107.338 4.57251 111.91 10.1904 111.91H78.2065C83.8229 111.91 88.3949 107.338 88.3949 101.74ZM33.3178 7.06934V29.9432C33.3178 32.4244 32.3561 33.384 29.8924 33.384H7.01875L33.3178 7.06934ZM5.71962 101.74V38.4616H32.9451C33.8403 38.4616 34.6831 38.2434 35.4245 37.8551C36.472 37.3322 37.3148 36.4879 37.8199 35.4597C38.21 34.7165 38.4111 33.8894 38.4111 33.0135V5.71936H78.2067C80.0444 5.71936 81.6301 6.83129 82.305 8.43472C82.5412 8.97502 82.6583 9.54845 82.6583 10.1727V101.74C82.6583 104.184 80.6686 106.193 78.2067 106.193H10.1907C7.72699 106.193 5.71962 104.184 5.71962 101.74Z" fill="#BC0011"/>
<path d="M100.304 19.5693H93.4393L93.7924 25.2887H100.304C102.767 25.2887 104.759 27.2784 104.759 29.7421V121.309C104.759 123.753 102.767 125.762 100.304 125.762H32.272C30.4325 125.762 28.8466 124.631 28.1714 123.045C27.9532 122.506 27.8186 121.933 27.8186 121.309V117.328H22.0992V121.309C22.0992 121.898 22.1501 122.487 22.2515 123.045C23.0784 127.818 27.2629 131.48 32.2722 131.48H100.304C105.922 131.48 110.479 126.908 110.479 121.309V29.7423C110.479 24.1244 105.922 19.5693 100.304 19.5693Z" fill="#BC0011"/>
</svg>
