<svg width="148" height="124" viewBox="0 0 148 124" fill="none" xmlns="http://www.w3.org/2000/svg">
<path d="M83.3324 0C71.5525 0 61.3744 6.8483 56.5508 16.7791C51.7273 6.84859 41.5448 0 29.7647 0C13.3234 0 0 13.3234 0 29.765C0 46.2019 13.3234 59.5207 29.7647 59.5207H83.3324C99.774 59.5207 113.097 46.2019 113.097 29.765C113.097 13.3234 99.774 0 83.3324 0ZM29.7647 41.0184C23.5462 41.0184 18.5066 35.9742 18.5066 29.765C18.5066 23.5465 23.5462 18.5069 29.7647 18.5069C35.9742 18.5069 41.0138 23.5465 41.0138 29.765C41.0138 35.9742 35.9742 41.0184 29.7647 41.0184ZM83.3324 41.0184C77.1185 41.0184 72.0833 35.9742 72.0833 29.765C72.0833 23.5465 77.1182 18.5069 83.3324 18.5069C89.5509 18.5069 94.5904 23.5465 94.5904 29.765C94.5904 35.9742 89.5509 41.0184 83.3324 41.0184Z" fill="#BC0011"/>
<path d="M95.6433 66.3193H15.5011C12.3063 66.3193 9.72345 68.9022 9.72345 72.0923V118.222C9.72345 121.412 12.3063 124 15.5011 124H95.6433C98.8381 124 101.421 121.413 101.421 118.222V72.0923C101.421 68.9022 98.8381 66.3193 95.6433 66.3193Z" fill="#BC0011"/>
<path d="M145.238 76.5965C143.843 75.5031 142.021 75.1117 140.297 75.5256L112.121 82.392C109.529 83.0221 107.707 85.3437 107.707 88.0075V101.682C107.707 104.345 109.529 106.663 112.121 107.293L140.297 114.163C142.021 114.577 143.843 114.186 145.238 113.092C146.628 111.994 147.443 110.321 147.443 108.548V81.1362C147.443 79.3683 146.628 77.6943 145.238 76.5965Z" fill="#BC0011"/>
</svg>
