<svg width="18" height="30" viewBox="0 0 18 30" fill="none" xmlns="http://www.w3.org/2000/svg">
<path d="M9 0C4.02879 0 0 4.51868 0 10.0942C0 15.7847 2.51469 16.997 5.29412 20.7823C8.6186 25.31 9 29.9859 9 29.9859C9 29.9859 9.3814 25.31 12.7059 20.7823C15.4853 16.997 18 15.7847 18 10.0943C18 4.51868 13.9712 0 9 0ZM9 13.5827C7.2822 13.5827 5.88972 12.0209 5.88972 10.0943C5.88972 8.16771 7.28225 6.60586 9 6.60586C10.7177 6.60586 12.1103 8.16771 12.1103 10.0943C12.1103 12.0209 10.7177 13.5827 9 13.5827Z" fill="#231815"/>
</svg>
