<svg width="18" height="18" viewBox="0 0 18 18" fill="none" xmlns="http://www.w3.org/2000/svg">
<path d="M14.4 0.0263672C12.4119 0.0263672 10.8 1.638 10.8 3.62619C10.8 5.61438 12.4119 7.22637 14.4 7.22637C16.3882 7.22637 18 5.61438 18 3.62619C18 1.638 16.3882 0.0263672 14.4 0.0263672Z" fill="#231815"/>
<path d="M6.15642 9.30526L11.1204 6.60066C10.696 6.13325 10.3665 5.57754 10.1716 4.96143L5.34122 7.87961C4.77496 7.31447 3.99361 6.96519 3.13066 6.96519C1.40164 6.96519 0 8.36648 0 10.0956C0 11.8245 1.40164 13.2258 3.13059 13.2258C4.85926 13.2258 6.26091 11.8245 6.26091 10.0956C6.26091 9.82202 6.2223 9.55846 6.15642 9.30526Z" fill="#231815"/>
<path d="M12.5218 12.6525C11.7603 12.6525 11.0753 12.9742 10.5904 13.4867L6.8967 11.3291C6.7373 11.8144 6.48787 12.2587 6.1665 12.6418L9.95055 14.6381C9.89391 14.8543 9.86079 15.0796 9.86079 15.3133C9.86079 16.7827 11.0521 17.974 12.5217 17.974C13.9912 17.974 15.1825 16.7827 15.1825 15.3133C15.1825 13.8438 13.9912 12.6525 12.5218 12.6525Z" fill="#231815"/>
</svg>
