<svg width="881" height="128" viewBox="0 0 881 128" fill="none" xmlns="http://www.w3.org/2000/svg">
<path d="M0.2 85.82C3.14667 81.4 5.57333 77.2833 7.48 73.47C9.47333 69.6567 11.38 65.2367 13.2 60.21C19.3533 63.7633 26.5033 66.5367 34.65 68.53C42.7967 70.5233 50.38 71.52 57.4 71.52C64.5933 71.52 69.6633 70.9133 72.61 69.7C75.5567 68.4 77.03 67.0133 77.03 65.54C77.03 60.2533 68.97 57.61 52.85 57.61C35.17 57.61 22.3433 55.79 14.37 52.15C6.39667 48.4233 2.41 42.4433 2.41 34.21C2.41 22.51 7.26333 13.8867 16.97 8.33999C26.6767 2.79333 39.2867 0.0199933 54.8 0.0199933C63.8133 0.0199933 73.0433 1.18999 82.49 3.52999C92.0233 5.78333 100.603 8.90333 108.23 12.89C105.717 18.61 103.073 25.5867 100.3 33.82C99.78 35.5533 99.3467 36.8533 99 37.72C94.58 34.1667 87.9067 31.22 78.98 28.88C70.0533 26.4533 62.1667 25.24 55.32 25.24C47.0867 25.24 41.54 25.8033 38.68 26.93C35.82 27.97 34.39 29.53 34.39 31.61C34.39 33.69 36.34 35.38 40.24 36.68C44.2267 37.8933 49.9467 38.5 57.4 38.5C75.7733 38.5 89.12 40.6233 97.44 44.87C105.76 49.03 109.92 55.4433 109.92 64.11C109.92 76.2433 105.5 84.9967 96.66 90.37C87.82 95.6567 74.43 98.3 56.49 98.3C46.87 98.3 37.0767 97.26 27.11 95.18C17.1433 93.0133 8.17333 89.8933 0.2 85.82ZM179.188 49.29C171.214 48.77 163.934 48.38 157.348 48.12L157.218 61.9C157.218 66.58 158.214 70.2633 160.208 72.95C162.288 75.55 165.928 76.85 171.128 76.85C173.121 76.85 175.028 76.6767 176.848 76.33C176.501 79.5367 176.328 82.7867 176.328 86.08C176.328 87.64 176.414 91.1933 176.588 96.74C172.774 97.4333 169.568 97.8667 166.968 98.04C164.368 98.2133 160.988 98.3 156.828 98.3C146.688 98.3 139.494 95.8733 135.248 91.02C131.088 86.08 129.008 79.2333 129.008 70.48L129.138 48.51C125.064 48.6833 120.818 48.9433 116.398 49.29V26.28C120.904 26.28 124.718 24.85 127.838 21.99C130.958 19.13 132.821 15.7067 133.428 11.72H168.788C164.368 17.7867 159.471 22.64 154.098 26.28H179.188L179.188 49.29ZM255.718 64.5L213.338 64.5C214.031 68.3133 215.721 71.4333 218.408 73.86C221.181 76.2 225.081 77.37 230.108 77.37C233.748 77.37 237.171 76.6767 240.378 75.29C243.585 73.8167 246.141 71.78 248.048 69.18C253.855 72.04 261.568 75.1167 271.188 78.41C268.501 84.4767 263.605 89.33 256.498 92.97C249.478 96.5233 240.291 98.3 228.938 98.3C214.205 98.3 203.285 94.92 196.178 88.16C189.158 81.3133 185.648 72.3433 185.648 61.25C185.648 50.4167 189.158 41.62 196.178 34.86C203.198 28.1 214.118 24.72 228.938 24.72C237.778 24.72 245.448 26.1933 251.948 29.14C258.448 32.0867 263.431 36.2033 266.898 41.49C270.365 46.69 272.098 52.67 272.098 59.43C272.098 61.6833 272.011 63.3733 271.838 64.5H255.718ZM230.758 44.35C226.425 44.35 222.871 45.1733 220.098 46.82C217.325 48.4667 215.375 50.72 214.248 53.58L244.928 53.58C243.888 50.8067 242.198 48.5967 239.858 46.95C237.518 45.2167 234.485 44.35 230.758 44.35ZM337.957 24.72C343.591 24.72 348.661 26.3233 353.167 29.53C357.674 32.7367 361.184 37.1133 363.697 42.66C366.211 48.12 367.467 54.1433 367.467 60.73C367.467 67.23 366.211 73.3833 363.697 79.19C361.184 84.91 357.631 89.5467 353.037 93.1C348.531 96.5667 343.374 98.3 337.567 98.3C330.807 98.3 325.001 96.9133 320.147 94.14C315.381 91.28 311.827 86.9033 309.487 81.01C309.487 85.95 309.661 93.88 310.007 104.8C310.354 115.373 310.527 122.827 310.527 127.16H281.147C281.667 111.04 281.927 94.1833 281.927 76.59C281.927 58.9967 281.667 42.14 281.147 26.02L306.107 26.02L309.877 42.27C312.304 36.2033 315.944 31.7833 320.797 29.01C325.651 26.15 331.371 24.72 337.957 24.72ZM324.047 74.9C327.947 74.9 331.197 73.6867 333.797 71.26C336.484 68.7467 337.827 65.4967 337.827 61.51C337.827 57.09 336.614 53.4933 334.187 50.72C331.761 47.9467 328.467 46.56 324.307 46.56C319.541 46.56 315.944 47.73 313.517 50.07C311.091 52.3233 309.877 56.1367 309.877 61.51C309.877 64.5433 310.657 67.1 312.217 69.18C313.777 71.1733 315.641 72.6467 317.807 73.6C319.974 74.4667 322.054 74.9 324.047 74.9ZM511.711 2.75C511.105 17.3967 510.801 33.0833 510.801 49.81C510.801 66.6233 511.105 82.3533 511.711 97H465.171L433.711 26.02L436.051 97H402.641C403.335 80.1867 403.681 64.4567 403.681 49.81C403.681 35.25 403.335 19.5633 402.641 2.75L450.481 2.75L482.071 75.68L479.861 2.75L511.711 2.75ZM552.784 73.21C585.718 73.0367 609.594 72.56 624.414 71.78C623.808 75.3333 623.418 79.0167 623.244 82.83C623.158 86.5567 623.114 91.28 623.114 97L522.104 97C522.798 80.1867 523.144 64.4567 523.144 49.81C523.144 35.1633 522.798 19.4333 522.104 2.62L623.114 2.62V26.15L552.784 26.15V38.63C556.944 38.7167 563.098 38.76 571.244 38.76C585.024 38.76 599.281 38.5 614.014 37.98V60.34C599.281 59.82 585.024 59.56 571.244 59.56C563.098 59.56 556.944 59.6033 552.784 59.69V73.21ZM721.964 61.51L728.724 2.62H760.444L743.024 97H703.114L694.274 44.35L684.004 97H645.784L628.364 2.62L660.084 2.62L666.714 60.73L677.114 2.62L711.824 2.62L721.964 61.51ZM770.805 85.82C773.752 81.4 776.179 77.2833 778.085 73.47C780.079 69.6567 781.985 65.2367 783.805 60.21C789.959 63.7633 797.109 66.5367 805.255 68.53C813.402 70.5233 820.985 71.52 828.005 71.52C835.199 71.52 840.269 70.9133 843.215 69.7C846.162 68.4 847.635 67.0133 847.635 65.54C847.635 60.2533 839.575 57.61 823.455 57.61C805.775 57.61 792.949 55.79 784.975 52.15C777.002 48.4233 773.015 42.4433 773.015 34.21C773.015 22.51 777.869 13.8867 787.575 8.33999C797.282 2.79333 809.892 0.0199933 825.405 0.0199933C834.419 0.0199933 843.649 1.18999 853.095 3.52999C862.629 5.78333 871.209 8.90333 878.835 12.89C876.322 18.61 873.679 25.5867 870.905 33.82C870.385 35.5533 869.952 36.8533 869.605 37.72C865.185 34.1667 858.512 31.22 849.585 28.88C840.659 26.4533 832.772 25.24 825.925 25.24C817.692 25.24 812.145 25.8033 809.285 26.93C806.425 27.97 804.995 29.53 804.995 31.61C804.995 33.69 806.945 35.38 810.845 36.68C814.832 37.8933 820.552 38.5 828.005 38.5C846.379 38.5 859.725 40.6233 868.045 44.87C876.365 49.03 880.525 55.4433 880.525 64.11C880.525 76.2433 876.105 84.9967 867.265 90.37C858.425 95.6567 845.035 98.3 827.095 98.3C817.475 98.3 807.682 97.26 797.715 95.18C787.749 93.0133 778.779 89.8933 770.805 85.82Z" fill="#BC0011"/>
</svg>
