<svg width="15" height="30" viewBox="0 0 15 30" fill="none" xmlns="http://www.w3.org/2000/svg">
<path d="M11.8296 0H2.80125C1.25666 0 0 1.39552 0 3.1111V26.8748C0 28.5902 1.25666 29.9859 2.80125 29.9859H11.8296C13.3743 29.9859 14.6309 28.5902 14.6309 26.875V3.1111C14.6309 1.39552 13.3743 0 11.8296 0ZM7.31542 28.1482C6.68951 28.1482 6.18026 27.5826 6.18026 26.8875C6.18026 26.1923 6.68946 25.6268 7.31542 25.6268C7.94132 25.6268 8.45058 26.1923 8.45058 26.8875C8.45058 27.5826 7.94132 28.1482 7.31542 28.1482ZM12.9725 3.93981V23.8615H1.65834V3.93981H12.9725Z" fill="#231815"/>
</svg>
