<svg width="1090" height="100" viewBox="0 0 1090 100" fill="none" xmlns="http://www.w3.org/2000/svg">
<path d="M111.87 30.92C98.2633 30.4867 85.0467 30.2267 72.22 30.14L72.22 98H39.72L39.72 30.14C26.8067 30.2267 13.6333 30.4867 0.2 30.92L0.2 3.62L111.87 3.62V30.92ZM231.269 3.62C230.662 18.2667 230.359 33.9967 230.359 50.81C230.359 67.6233 230.662 83.3533 231.269 98H200.719V62.64H152.879V98H122.329C123.022 81.1867 123.369 65.4567 123.369 50.81C123.369 36.1633 123.022 20.4333 122.329 3.62L152.879 3.62L152.879 38.98H200.719L200.719 3.62H231.269ZM317.195 29.49C306.882 28.97 299.255 28.6667 294.315 28.58V73.04C299.342 72.9533 306.968 72.65 317.195 72.13V98L241.665 98V72.13C251.632 72.65 259.215 72.9533 264.415 73.04V28.58C259.215 28.6667 251.632 28.97 241.665 29.49V3.62L317.195 3.62V29.49ZM327.612 86.82C330.559 82.4 332.985 78.2833 334.892 74.47C336.885 70.6567 338.792 66.2367 340.612 61.21C346.765 64.7633 353.915 67.5367 362.062 69.53C370.209 71.5233 377.792 72.52 384.812 72.52C392.005 72.52 397.075 71.9133 400.022 70.7C402.969 69.4 404.442 68.0133 404.442 66.54C404.442 61.2533 396.382 58.61 380.262 58.61C362.582 58.61 349.755 56.79 341.782 53.15C333.809 49.4233 329.822 43.4433 329.822 35.21C329.822 23.51 334.675 14.8867 344.382 9.33999C354.089 3.79333 366.699 1.01999 382.212 1.01999C391.225 1.01999 400.455 2.18999 409.902 4.52999C419.435 6.78333 428.015 9.90333 435.642 13.89C433.129 19.61 430.485 26.5867 427.712 34.82C427.192 36.5533 426.759 37.8533 426.412 38.72C421.992 35.1667 415.319 32.22 406.392 29.88C397.465 27.4533 389.579 26.24 382.732 26.24C374.499 26.24 368.952 26.8033 366.092 27.93C363.232 28.97 361.802 30.53 361.802 32.61C361.802 34.69 363.752 36.38 367.652 37.68C371.639 38.8933 377.359 39.5 384.812 39.5C403.185 39.5 416.532 41.6233 424.852 45.87C433.172 50.03 437.332 56.4433 437.332 65.11C437.332 77.2433 432.912 85.9967 424.072 91.37C415.232 96.6567 401.842 99.3 383.902 99.3C374.282 99.3 364.489 98.26 354.522 96.18C344.555 94.0133 335.585 90.8933 327.612 86.82ZM595.285 3.62L605.425 98H571.755L569.675 30.66L556.675 98H522.615L509.355 31.18L507.405 98H473.735L483.875 3.62L528.075 3.62L539.385 65.11L549.265 3.62L595.285 3.62ZM671.107 99.3C651.26 99.3 636.657 95.01 627.297 86.43C617.937 77.7633 613.257 65.63 613.257 50.03C613.257 34.6033 617.893 22.5567 627.167 13.89C636.527 5.22333 651.173 0.889995 671.107 0.889995C691.127 0.889995 705.773 5.22333 715.047 13.89C724.407 22.5567 729.087 34.6033 729.087 50.03C729.087 65.7167 724.45 77.85 715.177 86.43C705.903 95.01 691.213 99.3 671.107 99.3ZM671.107 72.78C680.727 72.78 687.66 70.96 691.907 67.32C696.153 63.5933 698.277 57.83 698.277 50.03C698.277 42.4033 696.153 36.7267 691.907 33C687.66 29.2733 680.727 27.41 671.107 27.41C661.573 27.41 654.683 29.2733 650.437 33C646.19 36.7267 644.067 42.4033 644.067 50.03C644.067 57.7433 646.19 63.4633 650.437 67.19C654.683 70.9167 661.573 72.78 671.107 72.78ZM848.518 3.75C847.911 18.3967 847.608 34.0833 847.608 50.81C847.608 67.6233 847.911 83.3533 848.518 98H801.978L770.518 27.02L772.858 98H739.448C740.141 81.1867 740.488 65.4567 740.488 50.81C740.488 36.25 740.141 20.5633 739.448 3.75L787.288 3.75L818.878 76.68L816.668 3.75H848.518ZM970.581 30.92C956.974 30.4867 943.758 30.2267 930.931 30.14V98H898.431V30.14C885.518 30.2267 872.344 30.4867 858.911 30.92V3.62L970.581 3.62V30.92ZM1089.98 3.62C1089.37 18.2667 1089.07 33.9967 1089.07 50.81C1089.07 67.6233 1089.37 83.3533 1089.98 98H1059.43V62.64L1011.59 62.64V98H981.04C981.733 81.1867 982.08 65.4567 982.08 50.81C982.08 36.1633 981.733 20.4333 981.04 3.62L1011.59 3.62V38.98L1059.43 38.98V3.62L1089.98 3.62Z" fill="#BC0011"/>
</svg>
