<svg width="26" height="30" viewBox="0 0 26 30" fill="none" xmlns="http://www.w3.org/2000/svg">
<path d="M21.8734 6.01324C20.2847 4.95974 19.1391 3.27338 18.7811 1.3086C18.7042 0.88419 18.6613 0.446986 18.6613 0H13.592L13.5838 20.6697C13.4988 22.9844 11.626 24.8424 9.33102 24.8424C8.61728 24.8424 7.94571 24.661 7.35402 24.3442C5.99756 23.618 5.06934 22.1717 5.06934 20.5072C5.06934 18.1165 6.98125 16.1713 9.33028 16.1713C9.76887 16.1713 10.1897 16.245 10.5876 16.3714V11.1062C10.1757 11.049 9.75704 11.0136 9.33028 11.0136C4.1855 11.0136 0 15.272 0 20.5072C0 23.7189 1.57686 26.5611 3.98358 28.2798C5.49906 29.3626 7.34292 30 9.33102 30C14.4758 30 18.6613 25.7416 18.6613 20.5072V10.0256C20.6494 11.4772 23.0857 12.3328 25.7143 12.3328V7.17511C24.2987 7.17511 22.9799 6.74693 21.8734 6.01324Z" fill="white"/>
</svg>
