<svg width="580" height="100" viewBox="0 0 580 100" fill="none" xmlns="http://www.w3.org/2000/svg">
<path d="M111.87 30.92C98.2633 30.4867 85.0467 30.2267 72.22 30.14L72.22 98H39.72L39.72 30.14C26.8067 30.2267 13.6333 30.4867 0.2 30.92L0.2 3.62L111.87 3.62V30.92ZM172.435 99.3C152.588 99.3 137.985 95.01 128.625 86.43C119.265 77.7633 114.585 65.63 114.585 50.03C114.585 34.6033 119.221 22.5567 128.495 13.89C137.855 5.22333 152.501 0.889995 172.435 0.889995C192.455 0.889995 207.101 5.22333 216.375 13.89C225.735 22.5567 230.415 34.6033 230.415 50.03C230.415 65.7167 225.778 77.85 216.505 86.43C207.231 95.01 192.541 99.3 172.435 99.3ZM172.435 72.78C182.055 72.78 188.988 70.96 193.235 67.32C197.481 63.5933 199.605 57.83 199.605 50.03C199.605 42.4033 197.481 36.7267 193.235 33C188.988 29.2733 182.055 27.41 172.435 27.41C162.901 27.41 156.011 29.2733 151.765 33C147.518 36.7267 145.395 42.4033 145.395 50.03C145.395 57.7433 147.518 63.4633 151.765 67.19C156.011 70.9167 162.901 72.78 172.435 72.78ZM282.376 2.18999C298.67 2.18999 311.54 4.18333 320.986 8.16999C330.433 12.07 337.02 17.53 340.746 24.55C344.56 31.4833 346.466 40.02 346.466 50.16C346.466 59.78 344.3 68.1867 339.966 75.38C335.633 82.5733 329.133 88.1633 320.466 92.15C311.8 96.05 301.14 98 288.486 98C280.773 98 272.93 98 264.956 98C256.983 98 248.923 97.9567 240.776 97.87C241.47 80.7967 241.816 64.8933 241.816 50.16C241.816 35.2533 241.47 19.6967 240.776 3.48999C251.09 2.62333 264.956 2.18999 282.376 2.18999ZM292.126 72.13C300.186 72.13 305.56 70.18 308.246 66.28C310.933 62.38 312.276 57.0067 312.276 50.16C312.276 43.5733 310.846 38.2433 307.986 34.17C305.213 30.0967 299.926 28.06 292.126 28.06C283.72 28.06 277.436 28.32 273.276 28.84V72.13H292.126ZM431.097 98C429.451 93.06 427.241 86.8633 424.467 79.41H382.997L376.497 98H343.867L380.267 3.62L428.107 3.62L464.767 98L431.097 98ZM417.057 59.13C413.764 50.03 410.384 40.93 406.917 31.83L403.797 23.38C400.764 31.2667 396.301 43.1833 390.407 59.13L417.057 59.13ZM579.66 3.62L577.19 7.39C567.916 21.7767 559.943 34.5167 553.27 45.61C546.683 56.6167 541.18 66.7567 536.76 76.03V98H502.83V73.82C499.623 67.32 495.853 60.6467 491.52 53.8C487.186 46.8667 481.033 37.3767 473.06 25.33C466.82 16.1433 462.053 8.90666 458.76 3.62L495.16 3.62C497.76 8.90666 502.006 16.75 507.9 27.15C513.793 37.7233 517.823 45.1767 519.99 49.51C523.023 43.1833 527.096 35.4267 532.21 26.24C538.19 15.4933 542.22 7.95333 544.3 3.62L579.66 3.62Z" fill="#BC0011"/>
</svg>
