<svg width="337" height="107" viewBox="0 0 337 107" fill="none" xmlns="http://www.w3.org/2000/svg">
<path d="M109.149 93.1742H119.933V99.7283H118.288V94.7148H110.716V99.7936H109.149V93.1742ZM109.958 97.5349H119.202V99.0755H109.958V97.5349ZM113.666 90.9025H115.324V103.162H113.666V90.9025ZM125.691 92.1558H132.872V97.4043H125.639V96.2162H131.396V93.3439H125.691V92.1558ZM128.289 90.9025H129.882V103.162H128.289V90.9025ZM124.999 94.1012H133.681V95.4329H124.999V94.1012ZM124.92 100.081H133.524V101.386H124.92V100.081ZM125.547 98.0832H133.028V99.3235H125.547V98.0832ZM122.153 92.2342L123.093 91.1244C123.336 91.2724 123.602 91.4421 123.889 91.6336C124.185 91.8251 124.468 92.0166 124.738 92.2081C125.008 92.3996 125.229 92.5693 125.404 92.7172L124.424 93.9576C124.259 93.8009 124.046 93.6225 123.785 93.4223C123.523 93.2221 123.245 93.0175 122.949 92.8086C122.662 92.591 122.396 92.3996 122.153 92.2342ZM121.382 95.5504L122.257 94.4406C122.492 94.5886 122.758 94.7583 123.053 94.9498C123.349 95.1326 123.637 95.3154 123.915 95.4982C124.194 95.6722 124.424 95.8289 124.607 95.9682L123.667 97.2215C123.51 97.0736 123.297 96.9038 123.027 96.7124C122.766 96.5209 122.488 96.3207 122.192 96.1118C121.896 95.9029 121.626 95.7158 121.382 95.5504ZM121.722 101.909C121.931 101.578 122.157 101.191 122.401 100.747C122.644 100.294 122.892 99.8153 123.145 99.3105C123.397 98.8057 123.637 98.3052 123.863 97.8091L125.064 98.8013C124.873 99.2539 124.668 99.7152 124.45 100.185C124.233 100.655 124.007 101.121 123.772 101.582C123.545 102.044 123.315 102.483 123.08 102.901L121.722 101.909ZM145 93.1481C144.948 93.2264 144.87 93.3483 144.765 93.5137C144.67 93.679 144.596 93.8314 144.543 93.9706C144.361 94.3797 144.134 94.8367 143.865 95.3415C143.603 95.8463 143.303 96.3555 142.964 96.869C142.633 97.3739 142.28 97.8482 141.906 98.2921C141.419 98.8405 140.879 99.3845 140.287 99.9241C139.704 100.455 139.086 100.947 138.433 101.399C137.789 101.843 137.128 102.226 136.449 102.548L135.104 101.138C135.809 100.868 136.492 100.529 137.154 100.12C137.815 99.7109 138.429 99.267 138.995 98.7882C139.56 98.3095 140.048 97.8439 140.457 97.3913C140.744 97.0605 141.014 96.708 141.266 96.3337C141.528 95.9595 141.758 95.5895 141.958 95.224C142.159 94.8497 142.307 94.5059 142.402 94.1926C142.315 94.1926 142.159 94.1926 141.932 94.1926C141.706 94.1926 141.441 94.1926 141.136 94.1926C140.84 94.1926 140.527 94.1926 140.196 94.1926C139.865 94.1926 139.547 94.1926 139.243 94.1926C138.947 94.1926 138.686 94.1926 138.459 94.1926C138.233 94.1926 138.072 94.1926 137.976 94.1926C137.794 94.1926 137.602 94.2013 137.402 94.2187C137.202 94.2274 137.01 94.2404 136.827 94.2578C136.653 94.2665 136.518 94.2753 136.423 94.284V92.43C136.553 92.4387 136.714 92.4518 136.906 92.4692C137.097 92.4866 137.289 92.4996 137.48 92.5084C137.68 92.5171 137.846 92.5214 137.976 92.5214C138.09 92.5214 138.268 92.5214 138.512 92.5214C138.755 92.5214 139.034 92.5214 139.347 92.5214C139.661 92.5214 139.983 92.5214 140.313 92.5214C140.653 92.5214 140.975 92.5214 141.28 92.5214C141.593 92.5214 141.863 92.5214 142.089 92.5214C142.315 92.5214 142.481 92.5214 142.585 92.5214C142.872 92.5214 143.133 92.504 143.368 92.4692C143.612 92.4344 143.799 92.3952 143.93 92.3517L145 93.1481ZM142.076 97.2085C142.415 97.4783 142.777 97.7916 143.16 98.1485C143.543 98.5054 143.921 98.8753 144.295 99.2583C144.67 99.6412 145.014 100.011 145.327 100.368C145.649 100.716 145.919 101.021 146.136 101.282L144.648 102.574C144.326 102.131 143.956 101.669 143.538 101.191C143.129 100.712 142.694 100.237 142.233 99.7674C141.78 99.2887 141.319 98.8361 140.849 98.4096L142.076 97.2085ZM149.792 91.9861C150.01 92.0209 150.245 92.047 150.497 92.0645C150.749 92.0732 150.98 92.0775 151.189 92.0775C151.354 92.0775 151.615 92.0775 151.972 92.0775C152.329 92.0775 152.73 92.0775 153.173 92.0775C153.617 92.0775 154.061 92.0775 154.505 92.0775C154.949 92.0775 155.341 92.0775 155.68 92.0775C156.028 92.0775 156.281 92.0775 156.437 92.0775C156.664 92.0775 156.899 92.0732 157.142 92.0645C157.386 92.047 157.621 92.0209 157.847 91.9861V93.6703C157.621 93.6529 157.386 93.6399 157.142 93.6312C156.899 93.6225 156.664 93.6181 156.437 93.6181C156.281 93.6181 156.028 93.6181 155.68 93.6181C155.341 93.6181 154.949 93.6181 154.505 93.6181C154.061 93.6181 153.617 93.6181 153.173 93.6181C152.73 93.6181 152.329 93.6181 151.972 93.6181C151.624 93.6181 151.367 93.6181 151.202 93.6181C150.976 93.6181 150.732 93.6225 150.471 93.6312C150.218 93.6399 149.992 93.6529 149.792 93.6703V91.9861ZM148.277 95.3284C148.469 95.3458 148.674 95.3632 148.891 95.3807C149.117 95.3981 149.331 95.4068 149.531 95.4068C149.644 95.4068 149.87 95.4068 150.21 95.4068C150.549 95.4068 150.958 95.4068 151.437 95.4068C151.916 95.4068 152.429 95.4068 152.978 95.4068C153.535 95.4068 154.087 95.4068 154.636 95.4068C155.193 95.4068 155.711 95.4068 156.189 95.4068C156.668 95.4068 157.073 95.4068 157.404 95.4068C157.743 95.4068 157.969 95.4068 158.082 95.4068C158.222 95.4068 158.409 95.4024 158.644 95.3937C158.888 95.3763 159.096 95.3545 159.271 95.3284V97.0257C159.114 97.0083 158.922 96.9996 158.696 96.9996C158.47 96.9909 158.265 96.9865 158.082 96.9865C157.969 96.9865 157.743 96.9865 157.404 96.9865C157.073 96.9865 156.668 96.9865 156.189 96.9865C155.711 96.9865 155.193 96.9865 154.636 96.9865C154.087 96.9865 153.535 96.9865 152.978 96.9865C152.429 96.9865 151.916 96.9865 151.437 96.9865C150.958 96.9865 150.549 96.9865 150.21 96.9865C149.87 96.9865 149.644 96.9865 149.531 96.9865C149.339 96.9865 149.126 96.9909 148.891 96.9996C148.665 97.0083 148.46 97.0213 148.277 97.0388V95.3284ZM154.962 96.2293C154.962 97.0823 154.888 97.8482 154.74 98.5271C154.592 99.1973 154.379 99.8023 154.1 100.342C153.944 100.638 153.735 100.942 153.474 101.256C153.213 101.569 152.912 101.865 152.573 102.144C152.233 102.422 151.868 102.657 151.476 102.849L149.949 101.739C150.41 101.556 150.854 101.295 151.28 100.956C151.707 100.616 152.051 100.255 152.312 99.8719C152.643 99.3671 152.864 98.81 152.978 98.2007C153.091 97.5915 153.147 96.9387 153.147 96.2423L154.962 96.2293ZM166.817 94.2448C166.878 94.3841 166.956 94.5842 167.052 94.8454C167.156 95.0978 167.265 95.3719 167.378 95.6679C167.491 95.9551 167.592 96.2293 167.679 96.4904C167.766 96.7515 167.835 96.9561 167.887 97.104L166.321 97.6524C166.286 97.487 166.225 97.2781 166.138 97.0257C166.051 96.7733 165.955 96.5078 165.851 96.2293C165.746 95.9421 165.642 95.6679 165.537 95.4068C165.433 95.1456 165.342 94.928 165.263 94.754L166.817 94.2448ZM171.635 95.1979C171.565 95.4068 171.504 95.5852 171.452 95.7332C171.408 95.8811 171.365 96.0204 171.321 96.151C171.156 96.8125 170.929 97.474 170.642 98.1354C170.355 98.7882 169.989 99.4019 169.546 99.9763C168.936 100.76 168.244 101.426 167.47 101.974C166.704 102.514 165.938 102.927 165.172 103.214L163.801 101.817C164.28 101.687 164.785 101.495 165.315 101.243C165.846 100.982 166.36 100.668 166.856 100.303C167.352 99.9372 167.779 99.5324 168.136 99.0885C168.431 98.7143 168.693 98.2878 168.919 97.8091C169.154 97.3216 169.345 96.8037 169.493 96.2554C169.65 95.6983 169.754 95.15 169.807 94.6104L171.635 95.1979ZM163.788 94.9368C163.875 95.1021 163.971 95.3154 164.075 95.5765C164.188 95.8376 164.301 96.1118 164.415 96.399C164.528 96.6862 164.637 96.9648 164.741 97.2346C164.854 97.5044 164.941 97.7307 165.002 97.9135L163.409 98.5141C163.357 98.34 163.279 98.1137 163.174 97.8352C163.079 97.5566 162.97 97.2651 162.848 96.9604C162.726 96.6471 162.609 96.3598 162.495 96.0987C162.391 95.8376 162.3 95.6374 162.221 95.4982L163.788 94.9368ZM183.777 92.43C183.777 92.6389 183.85 92.8173 183.998 92.9653C184.146 93.1046 184.321 93.1742 184.521 93.1742C184.73 93.1742 184.908 93.1046 185.056 92.9653C185.204 92.8173 185.278 92.6389 185.278 92.43C185.278 92.2211 185.204 92.0427 185.056 91.8947C184.908 91.7468 184.73 91.6728 184.521 91.6728C184.321 91.6728 184.146 91.7468 183.998 91.8947C183.85 92.0427 183.777 92.2211 183.777 92.43ZM182.967 92.43C182.967 92.1428 183.037 91.8817 183.176 91.6467C183.324 91.403 183.515 91.2115 183.75 91.0722C183.985 90.9329 184.242 90.8633 184.521 90.8633C184.808 90.8633 185.069 90.9329 185.304 91.0722C185.548 91.2115 185.739 91.403 185.879 91.6467C186.018 91.8817 186.087 92.1428 186.087 92.43C186.087 92.7085 186.018 92.9653 185.879 93.2003C185.739 93.4353 185.548 93.6268 185.304 93.7748C185.069 93.914 184.808 93.9837 184.521 93.9837C184.242 93.9837 183.985 93.914 183.75 93.7748C183.515 93.6268 183.324 93.4353 183.176 93.2003C183.037 92.9653 182.967 92.7085 182.967 92.43ZM184.547 93.4614C184.486 93.5833 184.434 93.7313 184.39 93.9053C184.347 94.0707 184.303 94.223 184.26 94.3623C184.19 94.6843 184.099 95.0456 183.985 95.4459C183.872 95.8376 183.737 96.2467 183.581 96.6732C183.424 97.0997 183.237 97.5218 183.019 97.9396C182.81 98.3574 182.571 98.7491 182.301 99.1146C181.91 99.6369 181.453 100.124 180.93 100.577C180.408 101.03 179.825 101.439 179.181 101.804C178.537 102.17 177.827 102.479 177.053 102.731L175.63 101.164C176.5 100.956 177.249 100.699 177.875 100.394C178.502 100.089 179.046 99.7413 179.507 99.3496C179.977 98.958 180.391 98.5402 180.748 98.0963C181.035 97.7307 181.278 97.3347 181.479 96.9082C181.688 96.4817 181.857 96.0552 181.988 95.6287C182.127 95.1935 182.223 94.7888 182.275 94.4145C182.145 94.4145 181.927 94.4145 181.622 94.4145C181.326 94.4145 180.974 94.4145 180.565 94.4145C180.164 94.4145 179.742 94.4145 179.298 94.4145C178.863 94.4145 178.441 94.4145 178.032 94.4145C177.623 94.4145 177.253 94.4145 176.922 94.4145C176.6 94.4145 176.361 94.4145 176.204 94.4145C175.899 94.4145 175.604 94.4189 175.316 94.4276C175.038 94.4363 174.816 94.4493 174.65 94.4667V92.6259C174.781 92.6433 174.938 92.6607 175.12 92.6781C175.312 92.6955 175.503 92.7085 175.695 92.7172C175.895 92.726 176.065 92.7303 176.204 92.7303C176.343 92.7303 176.539 92.7303 176.792 92.7303C177.053 92.7303 177.353 92.7303 177.692 92.7303C178.032 92.7303 178.384 92.7303 178.75 92.7303C179.124 92.7303 179.494 92.7303 179.86 92.7303C180.234 92.7303 180.582 92.7303 180.904 92.7303C181.226 92.7303 181.505 92.7303 181.74 92.7303C181.975 92.7303 182.145 92.7303 182.249 92.7303C182.38 92.7303 182.536 92.726 182.719 92.7172C182.91 92.7085 183.093 92.6781 183.267 92.6259L184.547 93.4614ZM194.025 91.5422C194.017 91.6031 193.999 91.7032 193.973 91.8425C193.956 91.9818 193.938 92.1297 193.921 92.2864C193.912 92.4431 193.908 92.5736 193.908 92.6781C193.908 92.9392 193.908 93.2264 193.908 93.5398C193.908 93.8531 193.908 94.1665 193.908 94.4798C193.908 94.7844 193.908 95.063 193.908 95.3154C193.908 95.4895 193.908 95.7332 193.908 96.0465C193.908 96.3598 193.908 96.7124 193.908 97.104C193.908 97.4957 193.908 97.9048 193.908 98.3313C193.908 98.7491 193.908 99.1582 193.908 99.5585C193.908 99.9502 193.908 100.307 193.908 100.629C193.908 100.942 193.908 101.191 193.908 101.373C193.908 101.748 193.795 102.044 193.568 102.261C193.351 102.487 193.007 102.601 192.537 102.601C192.302 102.601 192.063 102.596 191.819 102.588C191.575 102.579 191.336 102.566 191.101 102.548C190.866 102.531 190.64 102.509 190.422 102.483L190.252 100.864C190.539 100.916 190.814 100.956 191.075 100.982C191.336 101.008 191.549 101.021 191.715 101.021C191.88 101.021 191.997 100.986 192.067 100.916C192.137 100.838 192.176 100.716 192.185 100.551C192.185 100.472 192.185 100.303 192.185 100.042C192.193 99.7805 192.198 99.4715 192.198 99.1146C192.198 98.7578 192.198 98.3792 192.198 97.9788C192.198 97.5784 192.198 97.1954 192.198 96.8299C192.198 96.4643 192.198 96.1466 192.198 95.8768C192.198 95.607 192.198 95.4198 192.198 95.3154C192.198 95.1587 192.198 94.9237 192.198 94.6104C192.198 94.2883 192.198 93.9489 192.198 93.592C192.198 93.2351 192.198 92.9305 192.198 92.6781C192.198 92.504 192.185 92.2995 192.158 92.0645C192.132 91.8294 192.111 91.6554 192.093 91.5422H194.025ZM187.628 93.6312C187.819 93.6486 188.024 93.6703 188.242 93.6964C188.468 93.7138 188.681 93.7226 188.881 93.7226C188.995 93.7226 189.208 93.7226 189.521 93.7226C189.843 93.7226 190.222 93.7226 190.657 93.7226C191.101 93.7226 191.58 93.7226 192.093 93.7226C192.607 93.7226 193.12 93.7226 193.634 93.7226C194.147 93.7226 194.63 93.7226 195.083 93.7226C195.536 93.7226 195.923 93.7226 196.245 93.7226C196.576 93.7226 196.806 93.7226 196.937 93.7226C197.12 93.7226 197.337 93.7138 197.59 93.6964C197.842 93.679 198.055 93.6573 198.229 93.6312V95.3415C198.029 95.3241 197.812 95.3154 197.577 95.3154C197.342 95.3067 197.133 95.3023 196.95 95.3023C196.819 95.3023 196.593 95.3023 196.271 95.3023C195.949 95.3023 195.562 95.3023 195.109 95.3023C194.656 95.3023 194.173 95.3023 193.66 95.3023C193.146 95.3023 192.633 95.3023 192.119 95.3023C191.614 95.3023 191.136 95.3023 190.683 95.3023C190.239 95.3023 189.861 95.3023 189.547 95.3023C189.234 95.3023 189.012 95.3023 188.881 95.3023C188.69 95.3023 188.477 95.3067 188.242 95.3154C188.015 95.3241 187.811 95.3371 187.628 95.3545V93.6312ZM190.957 97.1693C190.801 97.4565 190.618 97.7699 190.409 98.1093C190.2 98.4488 189.974 98.7882 189.73 99.1277C189.495 99.4672 189.264 99.7848 189.038 100.081C188.812 100.368 188.612 100.607 188.437 100.799L187.014 99.8327C187.232 99.6325 187.454 99.3975 187.68 99.1277C187.915 98.8492 188.142 98.5576 188.359 98.253C188.585 97.9483 188.79 97.6437 188.973 97.339C189.164 97.0344 189.33 96.7428 189.469 96.4643L190.957 97.1693ZM196.558 96.4251C196.724 96.634 196.906 96.8821 197.107 97.1693C197.315 97.4565 197.524 97.7655 197.733 98.0963C197.942 98.4183 198.138 98.736 198.321 99.0494C198.504 99.354 198.66 99.6238 198.791 99.8588L197.263 100.694C197.124 100.416 196.963 100.116 196.78 99.7936C196.606 99.4715 196.423 99.1495 196.232 98.8274C196.04 98.5054 195.849 98.2051 195.657 97.9266C195.466 97.6393 195.292 97.3956 195.135 97.1954L196.558 96.4251ZM200.593 95.9551C200.749 95.9638 200.949 95.9769 201.193 95.9943C201.437 96.003 201.689 96.0117 201.95 96.0204C202.22 96.0291 202.468 96.0334 202.695 96.0334C202.912 96.0334 203.182 96.0334 203.504 96.0334C203.826 96.0334 204.174 96.0334 204.548 96.0334C204.931 96.0334 205.323 96.0334 205.724 96.0334C206.133 96.0334 206.537 96.0334 206.938 96.0334C207.338 96.0334 207.717 96.0334 208.074 96.0334C208.43 96.0334 208.748 96.0334 209.027 96.0334C209.314 96.0334 209.54 96.0334 209.706 96.0334C210.01 96.0334 210.297 96.0247 210.567 96.0073C210.837 95.9812 211.059 95.9638 211.233 95.9551V98.0049C211.085 97.9962 210.863 97.9831 210.567 97.9657C210.271 97.9483 209.984 97.9396 209.706 97.9396C209.54 97.9396 209.314 97.9396 209.027 97.9396C208.739 97.9396 208.417 97.9396 208.061 97.9396C207.704 97.9396 207.325 97.9396 206.925 97.9396C206.533 97.9396 206.133 97.9396 205.724 97.9396C205.314 97.9396 204.918 97.9396 204.535 97.9396C204.161 97.9396 203.813 97.9396 203.491 97.9396C203.178 97.9396 202.912 97.9396 202.695 97.9396C202.32 97.9396 201.937 97.9483 201.546 97.9657C201.154 97.9744 200.836 97.9875 200.593 98.0049V95.9551ZM219.014 101.713C219.041 101.582 219.062 101.434 219.08 101.269C219.106 101.095 219.119 100.921 219.119 100.747C219.119 100.651 219.119 100.459 219.119 100.172C219.119 99.8849 219.119 99.5368 219.119 99.1277C219.119 98.7186 219.119 98.2791 219.119 97.8091C219.119 97.3303 219.119 96.8473 219.119 96.3598C219.119 95.8724 219.119 95.4155 219.119 94.989C219.119 94.5538 219.119 94.1752 219.119 93.8531C219.119 93.5224 219.119 93.283 219.119 93.135C219.119 92.8391 219.101 92.5823 219.067 92.3647C219.041 92.1471 219.023 92.0296 219.014 92.0122H220.96C220.951 92.0296 220.934 92.1515 220.908 92.3778C220.881 92.5954 220.868 92.8522 220.868 93.1481C220.868 93.2961 220.868 93.518 220.868 93.8139C220.868 94.1012 220.868 94.4363 220.868 94.8192C220.868 95.1935 220.868 95.5939 220.868 96.0204C220.868 96.4469 220.868 96.869 220.868 97.2868C220.868 97.6959 220.868 98.0876 220.868 98.4618C220.868 98.8274 220.868 99.1408 220.868 99.4019C220.868 99.663 220.868 99.8545 220.868 99.9763C221.225 99.8197 221.595 99.6064 221.978 99.3366C222.361 99.0668 222.735 98.7534 223.101 98.3966C223.475 98.031 223.806 97.6393 224.093 97.2215L225.098 98.6577C224.742 99.1277 224.306 99.589 223.793 100.042C223.288 100.494 222.766 100.908 222.226 101.282C221.687 101.656 221.169 101.97 220.673 102.222C220.533 102.3 220.42 102.37 220.333 102.431C220.246 102.5 220.172 102.561 220.111 102.614L219.014 101.713ZM212.97 101.517C213.544 101.117 214.014 100.633 214.38 100.068C214.745 99.502 215.015 98.9449 215.189 98.3966C215.285 98.1093 215.354 97.7568 215.398 97.339C215.45 96.9125 215.489 96.4599 215.515 95.9812C215.542 95.4938 215.555 95.0151 215.555 94.5451C215.563 94.0664 215.568 93.6268 215.568 93.2264C215.568 92.9653 215.555 92.7434 215.528 92.5606C215.511 92.3691 215.485 92.1907 215.45 92.0253H217.369C217.361 92.0427 217.348 92.1167 217.33 92.2472C217.322 92.3691 217.308 92.5171 217.291 92.6911C217.282 92.8565 217.278 93.0306 217.278 93.2134C217.278 93.5963 217.274 94.0446 217.265 94.5581C217.256 95.063 217.239 95.5808 217.213 96.1118C217.187 96.6427 217.147 97.1476 217.095 97.6263C217.043 98.0963 216.973 98.4967 216.886 98.8274C216.686 99.5672 216.386 100.255 215.985 100.89C215.594 101.517 215.119 102.078 214.562 102.574L212.97 101.517Z" fill="#231815"/>
<path d="M32.8722 47.414C33.5198 48.7956 33.8652 50.1773 33.8652 51.5157C33.8652 54.6244 31.9655 57.9057 28.1228 61.3598C25.4028 63.864 21.7328 65.116 17.1562 65.116C12.5796 65.116 6.23276 62.655 3.64222 57.6898L11.1548 51.3862C12.4932 54.1926 14.5657 55.5742 17.3289 55.5742C20.0922 55.5742 21.4306 54.4948 21.4306 52.3792C21.4306 50.2636 19.7467 49.2274 16.3359 48.0617C5.1102 44.1758 -0.32994 36.7496 0.0154659 25.8262C0.144993 19.8679 2.4333 14.8164 6.8804 10.6715C11.3275 6.52666 16.5949 4.58375 22.6827 4.79963C27.6047 4.92916 30.4543 5.05869 31.1883 5.14504L37.1465 35.109C35.7649 34.2023 33.0017 33.7273 28.9432 33.5546C26.1368 33.4683 24.2802 33.641 23.4167 33.9864C22.0351 34.5045 21.3874 35.7566 21.517 37.7427C21.6465 39.9015 23.1145 41.4126 25.8345 42.2761C29.4613 43.5282 31.7928 45.2121 32.7858 47.3708L32.8722 47.414Z" fill="#231815"/>
<path d="M67.542 63.9934C65.9014 64.2093 64.2607 64.2957 62.5768 64.2093C57.1367 63.7776 52.4737 61.5756 48.5879 57.6898C44.7021 53.7608 42.7592 49.2274 42.7592 43.9599C42.7592 38.6925 42.7592 42.4488 42.8887 41.6284L44.8748 24.7899L38.0099 25.3512L37.0168 15.1617L46.0837 15.0322L47.6381 2.42493L55.496 2.85668L55.9278 14.9027L62.6632 14.7732L64.0016 22.9765L56.2732 23.6242L56.705 36.1451C56.5754 38.3039 57.2231 40.1605 58.6479 41.8011C60.0727 43.4418 61.886 44.3485 64.0016 44.5644L67.542 63.9071V63.9934Z" fill="#231815"/>
<path d="M111.797 45.9891L83.0424 54.2789C84.5967 57.3012 87.1009 58.8123 90.5549 58.8123C94.009 58.8123 93.6636 58.4237 95.002 57.6034L102.428 61.921C98.4561 64.8137 93.9658 66.2385 88.9142 66.2385C83.8627 66.2385 78.9838 64.641 74.8821 61.446C70.7373 58.251 68.1467 54.063 67.0242 48.8819C66.6356 47.2412 66.4629 45.6437 66.4629 44.0031C66.4629 38.822 68.1036 34.2022 71.4281 30.0573C74.7526 25.9125 79.027 23.2787 84.2513 22.0698C85.9351 21.6812 87.619 21.5085 89.2165 21.5085C94.4407 21.5085 99.1469 23.1492 103.335 26.3874C107.523 29.6256 110.157 33.8136 111.236 38.9083C111.668 40.8944 111.841 43.2691 111.797 45.9891ZM97.7221 43.2259C96.0382 40.7217 93.6636 39.4696 90.6413 39.4696C87.619 39.4696 86.151 40.3331 84.4672 42.0602C82.7833 43.7872 82.0493 45.8596 82.2652 48.3206L97.7653 43.2259H97.7221Z" fill="#231815"/>
<path d="M155.923 40.6787C155.923 44.3054 154.93 47.6731 152.987 50.8681C151.044 54.0199 148.367 56.481 144.956 58.1648C142.236 59.5033 139.343 60.1509 136.321 60.1509C133.299 60.1509 128.981 59.1147 125.829 57.0422L125.052 84.3724H116.849L108.559 23.7538L126.822 21.0769V24.4014C129.974 22.5449 133.342 21.6382 136.839 21.6382C140.336 21.6382 143.79 22.5881 146.942 24.531C150.051 26.4307 152.426 29.0644 154.066 32.3889C155.318 34.9795 155.923 37.7427 155.923 40.6787ZM141.2 44.4349C141.2 43.3124 140.941 42.2762 140.423 41.3263C139.171 38.6926 137.055 37.3541 134.076 37.3541C131.097 37.3541 131.917 37.6132 130.881 38.1313C128.161 39.4697 126.822 41.6285 126.822 44.6508C126.822 47.6731 127.081 46.7233 127.6 47.7595C128.852 50.35 130.967 51.6453 133.946 51.6453C136.926 51.6453 136.105 51.4294 137.141 50.9976C139.861 49.6592 141.2 47.5004 141.2 44.4781V44.4349Z" fill="#231815"/>
<path d="M208.899 24.056L201.387 76.2985L190.42 76.0826L191.758 59.0282L182.562 59.2441L181.224 75.9531L164.86 76.8598L162.529 22.1994L185.412 20.4292L183.641 44.0031L192.838 44.9098L194.479 22.7607L208.856 24.0991L208.899 24.056Z" fill="#231815"/>
<path d="M234.459 69.5198L225.738 70.4265C225.306 72.3263 224.874 74.1396 224.529 75.8667L206.611 74.226C209.849 60.0644 214.814 47.4571 221.42 36.4041C224.14 31.8275 227.12 27.7258 230.401 24.1422C235.798 26.8191 240.547 36.3609 244.692 52.8109C246.462 59.6758 248.017 67.6201 249.355 76.7302L234.978 76.3848C234.848 73.2329 234.675 70.9446 234.546 69.6494L234.459 69.5198ZM233.337 61.2301C232.689 57.6034 231.869 54.5379 230.919 52.0337C229.581 56.2217 228.674 59.244 228.156 61.0142L233.337 61.2301Z" fill="#231815"/>
<path d="M267.273 76.5144V76.6007L257.083 77.8528L246.246 20.2996L264.121 17.8386L266.625 64.5547L286.961 57.2148L294.603 73.7511L267.23 76.5575L267.273 76.5144Z" fill="#231815"/>
<path d="M315.457 74.7873V74.8736L307.21 74.7873L304.965 33.0364L319.429 32.9501L316.234 66.2385L333.202 62.914L337.476 75.3054L315.414 74.7441L315.457 74.7873Z" fill="#231815"/>
<path d="M289.957 -5.63757e-05L278.972 2.09534L286.893 43.6156L297.877 41.5202L289.957 -5.63757e-05Z" fill="#231815"/>
<path d="M318.177 32.9501H286.831V43.2691H318.177V32.9501Z" fill="#231815"/>
</svg>
