<svg width="33" height="23" viewBox="0 0 33 23" fill="none" xmlns="http://www.w3.org/2000/svg">
<path fill-rule="evenodd" clip-rule="evenodd" d="M29.3929 0.686635C30.8128 1.06448 31.9309 2.17773 32.3104 3.59155C33 6.15389 33 11.5 33 11.5C33 11.5 33 16.846 32.3104 19.4086C31.9309 20.8222 30.8128 21.9355 29.3929 22.3135C26.8194 23 16.5001 23 16.5001 23C16.5001 23 6.18067 23 3.60718 22.3135C2.18735 21.9355 1.06908 20.8222 0.689648 19.4086C0 16.846 0 11.5 0 11.5C0 11.5 0 6.15389 0.689648 3.59155C1.06908 2.17773 2.18735 1.06448 3.60718 0.686635C6.18067 0 16.5001 0 16.5001 0C16.5001 0 26.8194 0 29.3929 0.686635ZM13.125 16.3538L21.75 11.5003L13.125 6.64612V16.3538Z" fill="white"/>
</svg>
