<svg width="410" height="104" viewBox="0 0 410 104" fill="none" xmlns="http://www.w3.org/2000/svg">
<path d="M101.6 31.93L30.88 31.93L30.88 45.58C35.3 45.6667 41.93 45.71 50.77 45.71C66.0233 45.71 81.5367 45.45 97.31 44.93V70.41C81.5367 69.8033 64.8967 69.5 47.39 69.5C40.11 69.5 34.6067 69.5433 30.88 69.63L30.88 102H0.2C0.893333 85.1867 1.24 69.4567 1.24 54.81C1.24 40.1633 0.893333 24.4333 0.2 7.62L101.6 7.62L101.6 31.93ZM142.596 50C142.509 55.2 142.466 63.1733 142.466 73.92C142.466 86.8333 142.552 96.1933 142.726 102L112.046 102L112.176 87.31C112.349 71.19 112.436 58.7533 112.436 50C112.436 41.68 112.349 29.8933 112.176 14.64L112.046 0.599996L142.726 0.599996C142.552 12.9067 142.466 22.96 142.466 30.76C142.466 39.4267 142.509 45.84 142.596 50ZM195.039 103.3C180.219 103.3 169.299 99.92 162.279 93.16C155.345 86.3133 151.879 77.3433 151.879 66.25C151.879 55.4167 155.345 46.62 162.279 39.86C169.299 33.1 180.219 29.72 195.039 29.72C205.005 29.72 213.325 31.3667 219.999 34.66C226.759 37.8667 231.742 42.2433 234.949 47.79C238.155 53.25 239.759 59.4033 239.759 66.25C239.759 77.43 236.032 86.4 228.579 93.16C221.212 99.92 210.032 103.3 195.039 103.3ZM195.559 81.2C201.192 81.2 205.395 79.8567 208.169 77.17C210.942 74.4833 212.329 70.8867 212.329 66.38C212.329 62.1333 210.942 58.6667 208.169 55.98C205.395 53.2067 201.192 51.82 195.559 51.82C189.925 51.82 185.809 53.1633 183.209 55.85C180.609 58.5367 179.309 62.0467 179.309 66.38C179.309 70.8867 180.609 74.4833 183.209 77.17C185.809 79.8567 189.925 81.2 195.559 81.2ZM290.761 103.3C275.941 103.3 265.021 99.92 258.001 93.16C251.068 86.3133 247.601 77.3433 247.601 66.25C247.601 55.4167 251.068 46.62 258.001 39.86C265.021 33.1 275.941 29.72 290.761 29.72C300.728 29.72 309.048 31.3667 315.721 34.66C322.481 37.8667 327.465 42.2433 330.671 47.79C333.878 53.25 335.481 59.4033 335.481 66.25C335.481 77.43 331.755 86.4 324.301 93.16C316.935 99.92 305.755 103.3 290.761 103.3ZM291.281 81.2C296.915 81.2 301.118 79.8567 303.891 77.17C306.665 74.4833 308.051 70.8867 308.051 66.38C308.051 62.1333 306.665 58.6667 303.891 55.98C301.118 53.2067 296.915 51.82 291.281 51.82C285.648 51.82 281.531 53.1633 278.931 55.85C276.331 58.5367 275.031 62.0467 275.031 66.38C275.031 70.8867 276.331 74.4833 278.931 77.17C281.531 79.8567 285.648 81.2 291.281 81.2ZM374.784 50.26C378.424 37.1733 387.48 30.63 401.954 30.63C404.467 30.63 406.894 30.8033 409.234 31.15L405.074 60.27C398.834 57.93 393.72 56.76 389.734 56.76C384.794 56.76 381.154 58.2333 378.814 61.18C376.474 64.1267 375.304 68.07 375.304 73.01V72.88L375.174 81.46C375.174 87.6133 375.347 94.46 375.694 102H344.624C345.317 89.52 345.664 77.7333 345.664 66.64C345.664 55.5467 345.317 43.6733 344.624 31.02C350.344 31.28 354.72 31.41 357.754 31.41C360.96 31.41 365.337 31.28 370.884 31.02L374.784 50.26Z" fill="#BC0011"/>
</svg>
