<svg width="1116" height="273" viewBox="0 0 1116 273" fill="none" xmlns="http://www.w3.org/2000/svg">
<path d="M162.712 48.18L218.222 48.18L218.222 102L195.342 102L192.612 78.99C190.012 87.2233 185.375 93.3333 178.702 97.32C172.029 101.307 163.882 103.3 154.262 103.3C145.509 103.3 137.709 101.35 130.862 97.45C124.102 93.55 118.772 87.96 114.872 80.68C111.059 73.4 109.152 64.9067 109.152 55.2C109.152 39.6867 113.789 27.4233 123.062 18.41C132.335 9.39666 146.765 4.88999 166.352 4.88999C177.532 4.88999 187.369 6.70999 195.862 10.35C204.442 13.99 211.722 19.6233 217.702 27.25C213.802 29.2433 206.175 33.23 194.822 39.21L191.572 41.03C188.192 37.65 184.249 35.1367 179.742 33.49C175.235 31.7567 170.469 30.89 165.442 30.89C157.122 30.89 150.925 33.1 146.852 37.52C142.779 41.8533 140.742 47.2267 140.742 53.64C140.742 60.5733 142.909 66.1633 147.242 70.41C151.662 74.6567 158.379 76.78 167.392 76.78C171.292 76.78 175.062 76.2167 178.702 75.09C182.429 73.9633 185.549 72.0133 188.062 69.24H162.712L162.712 48.18ZM297.385 69.5H255.005C255.698 73.3133 257.388 76.4333 260.075 78.86C262.848 81.2 266.748 82.37 271.775 82.37C275.415 82.37 278.838 81.6767 282.045 80.29C285.252 78.8167 287.808 76.78 289.715 74.18C295.522 77.04 303.235 80.1167 312.855 83.41C310.168 89.4767 305.272 94.33 298.165 97.97C291.145 101.523 281.958 103.3 270.605 103.3C255.872 103.3 244.952 99.92 237.845 93.16C230.825 86.3133 227.315 77.3433 227.315 66.25C227.315 55.4167 230.825 46.62 237.845 39.86C244.865 33.1 255.785 29.72 270.605 29.72C279.445 29.72 287.115 31.1933 293.615 34.14C300.115 37.0867 305.098 41.2033 308.565 46.49C312.032 51.69 313.765 57.67 313.765 64.43C313.765 66.6833 313.678 68.3733 313.505 69.5L297.385 69.5ZM272.425 49.35C268.092 49.35 264.538 50.1733 261.765 51.82C258.992 53.4667 257.042 55.72 255.915 58.58H286.595C285.555 55.8067 283.865 53.5967 281.525 51.95C279.185 50.2167 276.152 49.35 272.425 49.35ZM406.144 80.42C406.144 83.3667 406.491 85.4467 407.184 86.66C407.878 87.8733 409.264 88.74 411.344 89.26L410.824 101.48C408.051 101.913 405.624 102.217 403.544 102.39C401.551 102.563 398.864 102.65 395.484 102.65C388.031 102.65 383.091 101.003 380.664 97.71C378.238 94.33 377.024 90.04 377.024 84.84V81.59C374.511 88.6967 370.828 93.9833 365.974 97.45C361.208 100.917 355.098 102.65 347.644 102.65C338.978 102.65 332.434 100.917 328.014 97.45C323.681 93.9833 321.514 88.8267 321.514 81.98C321.514 76.3467 323.378 71.9267 327.104 68.72C330.831 65.5133 336.594 63.3033 344.394 62.09C337.808 57.41 331.221 53.3367 324.634 49.87C329.834 43.2833 335.771 38.3 342.444 34.92C349.118 31.4533 357.221 29.72 366.754 29.72C380.101 29.72 389.981 32.6233 396.394 38.43C402.894 44.15 406.144 52.99 406.144 64.95V80.42ZM369.484 52.6C365.064 52.6 361.164 53.3367 357.784 54.81C354.404 56.2833 351.371 58.4933 348.684 61.44C353.884 60.8333 360.384 60.53 368.184 60.53C371.391 60.53 373.644 60.14 374.944 59.36C376.244 58.58 376.894 57.5833 376.894 56.37C376.894 55.33 376.244 54.4633 374.944 53.77C373.644 52.99 371.824 52.6 369.484 52.6ZM355.834 81.46C360.688 81.46 365.064 80.55 368.964 78.73C372.864 76.8233 375.551 74.3533 377.024 71.32V67.94C374.944 68.98 372.648 69.8033 370.134 70.41C367.621 70.93 364.588 71.45 361.034 71.97L356.354 72.75C351.501 73.7033 349.074 75.35 349.074 77.69C349.074 80.2033 351.328 81.46 355.834 81.46ZM449.332 50.26C452.972 37.1733 462.028 30.63 476.502 30.63C479.015 30.63 481.442 30.8033 483.782 31.15L479.622 60.27C473.382 57.93 468.268 56.76 464.282 56.76C459.342 56.76 455.702 58.2333 453.362 61.18C451.022 64.1267 449.852 68.07 449.852 73.01V72.88L449.722 81.46C449.722 87.6133 449.895 94.46 450.242 102H419.172C419.865 89.52 420.212 77.7333 420.212 66.64C420.212 55.5467 419.865 43.6733 419.172 31.02C424.892 31.28 429.268 31.41 432.302 31.41C435.508 31.41 439.885 31.28 445.432 31.02L449.332 50.26ZM624.616 39.08C624.616 46.62 622.753 52.99 619.026 58.19C615.386 63.39 609.103 67.16 600.176 69.5C601.216 70.8867 601.953 71.97 602.386 72.75L623.446 102H588.086C584.273 94.8933 578.25 84.84 570.016 71.84L550.906 71.84V102H520.226C520.92 85.1867 521.266 69.4567 521.266 54.81C521.266 40.1633 520.92 24.4333 520.226 7.62L550.906 7.62V7.75H577.556C595.063 7.75 607.283 10.5667 614.216 16.2C621.15 21.8333 624.616 29.46 624.616 39.08ZM550.906 32.71V47.53L568.456 47.53C575.823 47.53 581.37 47.3133 585.096 46.88C588.91 46.36 591.553 45.58 593.026 44.54C594.5 43.5 595.236 41.9833 595.236 39.99C595.236 38.0833 594.543 36.61 593.156 35.57C591.77 34.53 589.17 33.7933 585.356 33.36C581.543 32.9267 575.91 32.71 568.456 32.71H550.906ZM697.287 69.5L654.907 69.5C655.601 73.3133 657.291 76.4333 659.977 78.86C662.751 81.2 666.651 82.37 671.677 82.37C675.317 82.37 678.741 81.6767 681.947 80.29C685.154 78.8167 687.711 76.78 689.617 74.18C695.424 77.04 703.137 80.1167 712.757 83.41C710.071 89.4767 705.174 94.33 698.067 97.97C691.047 101.523 681.861 103.3 670.507 103.3C655.774 103.3 644.854 99.92 637.747 93.16C630.727 86.3133 627.217 77.3433 627.217 66.25C627.217 55.4167 630.727 46.62 637.747 39.86C644.767 33.1 655.687 29.72 670.507 29.72C679.347 29.72 687.017 31.1933 693.517 34.14C700.017 37.0867 705.001 41.2033 708.467 46.49C711.934 51.69 713.667 57.67 713.667 64.43C713.667 66.6833 713.581 68.3733 713.407 69.5H697.287ZM672.327 49.35C667.994 49.35 664.441 50.1733 661.667 51.82C658.894 53.4667 656.944 55.72 655.817 58.58L686.497 58.58C685.457 55.8067 683.767 53.5967 681.427 51.95C679.087 50.2167 676.054 49.35 672.327 49.35ZM773.417 102C773.937 89.26 774.197 77.5167 774.197 66.77C774.197 62.9567 773.243 59.9233 771.337 57.67C769.517 55.4167 767.177 54.29 764.317 54.29C761.457 54.29 759.03 55.59 757.037 58.19C755.043 60.7033 753.873 64.17 753.527 68.59C753.353 75.1767 753.267 79.8567 753.267 82.63C753.267 88.5233 753.44 94.98 753.787 102L722.717 102C723.41 89.52 723.757 77.7333 723.757 66.64C723.757 55.5467 723.41 43.6733 722.717 31.02C728.437 31.28 732.813 31.41 735.847 31.41C739.053 31.41 743.43 31.28 748.977 31.02L752.747 50.13C754.74 43.1967 757.86 38.0833 762.107 34.79C766.353 31.41 771.293 29.72 776.927 29.72C782.127 29.72 786.633 30.89 790.447 33.23C794.26 35.4833 797.12 38.56 799.027 42.46C801.02 46.36 802.017 50.7367 802.017 55.59V74.31C802.017 85.8367 802.233 95.0667 802.667 102H773.417ZM871.997 54.29C864.024 53.77 856.744 53.38 850.157 53.12L850.027 66.9C850.027 71.58 851.024 75.2633 853.017 77.95C855.097 80.55 858.737 81.85 863.937 81.85C865.931 81.85 867.837 81.6767 869.657 81.33C869.311 84.5367 869.137 87.7867 869.137 91.08C869.137 92.64 869.224 96.1933 869.397 101.74C865.584 102.433 862.377 102.867 859.777 103.04C857.177 103.213 853.797 103.3 849.637 103.3C839.497 103.3 832.304 100.873 828.057 96.02C823.897 91.08 821.817 84.2333 821.817 75.48L821.947 53.51C817.874 53.6833 813.627 53.9433 809.207 54.29V31.28C813.714 31.28 817.527 29.85 820.647 26.99C823.767 24.13 825.631 20.7067 826.237 16.72L861.597 16.72C857.177 22.7867 852.281 27.64 846.907 31.28L871.997 31.28V54.29ZM963.088 80.42C963.088 83.3667 963.434 85.4467 964.128 86.66C964.821 87.8733 966.208 88.74 968.288 89.26L967.768 101.48C964.994 101.913 962.568 102.217 960.488 102.39C958.494 102.563 955.808 102.65 952.428 102.65C944.974 102.65 940.034 101.003 937.608 97.71C935.181 94.33 933.968 90.04 933.968 84.84V81.59C931.454 88.6967 927.771 93.9833 922.918 97.45C918.151 100.917 912.041 102.65 904.588 102.65C895.921 102.65 889.378 100.917 884.958 97.45C880.624 93.9833 878.458 88.8267 878.458 81.98C878.458 76.3467 880.321 71.9267 884.048 68.72C887.774 65.5133 893.538 63.3033 901.338 62.09C894.751 57.41 888.164 53.3367 881.578 49.87C886.778 43.2833 892.714 38.3 899.388 34.92C906.061 31.4533 914.164 29.72 923.698 29.72C937.044 29.72 946.924 32.6233 953.338 38.43C959.838 44.15 963.088 52.99 963.088 64.95V80.42ZM926.428 52.6C922.008 52.6 918.108 53.3367 914.728 54.81C911.348 56.2833 908.314 58.4933 905.628 61.44C910.828 60.8333 917.328 60.53 925.128 60.53C928.334 60.53 930.588 60.14 931.888 59.36C933.188 58.58 933.838 57.5833 933.838 56.37C933.838 55.33 933.188 54.4633 931.888 53.77C930.588 52.99 928.768 52.6 926.428 52.6ZM912.778 81.46C917.631 81.46 922.008 80.55 925.908 78.73C929.808 76.8233 932.494 74.3533 933.968 71.32V67.94C931.888 68.98 929.591 69.8033 927.078 70.41C924.564 70.93 921.531 71.45 917.978 71.97L913.298 72.75C908.444 73.7033 906.018 75.35 906.018 77.69C906.018 80.2033 908.271 81.46 912.778 81.46ZM1006.67 50C1006.58 55.2 1006.54 63.1733 1006.54 73.92C1006.54 86.8333 1006.62 96.1933 1006.8 102H976.115L976.245 87.31C976.418 71.19 976.505 58.7533 976.505 50C976.505 41.68 976.418 29.8933 976.245 14.64L976.115 0.599996L1006.8 0.599996C1006.62 12.9067 1006.54 22.96 1006.54 30.76C1006.54 39.4267 1006.58 45.84 1006.67 50ZM0.480274 230.82C3.42694 226.4 5.85361 222.283 7.76027 218.47C9.75361 214.657 11.6603 210.237 13.4803 205.21C19.6336 208.763 26.7836 211.537 34.9303 213.53C43.0769 215.523 50.6603 216.52 57.6803 216.52C64.8736 216.52 69.9436 215.913 72.8903 214.7C75.8369 213.4 77.3103 212.013 77.3103 210.54C77.3103 205.253 69.2503 202.61 53.1303 202.61C35.4503 202.61 22.6236 200.79 14.6503 197.15C6.67694 193.423 2.69027 187.443 2.69027 179.21C2.69027 167.51 7.54361 158.887 17.2503 153.34C26.9569 147.793 39.5669 145.02 55.0803 145.02C64.0936 145.02 73.3236 146.19 82.7703 148.53C92.3036 150.783 100.884 153.903 108.51 157.89C105.997 163.61 103.354 170.587 100.58 178.82C100.06 180.553 99.6269 181.853 99.2803 182.72C94.8603 179.167 88.1869 176.22 79.2603 173.88C70.3336 171.453 62.4469 170.24 55.6003 170.24C47.3669 170.24 41.8203 170.803 38.9603 171.93C36.1003 172.97 34.6703 174.53 34.6703 176.61C34.6703 178.69 36.6203 180.38 40.5203 181.68C44.5069 182.893 50.2269 183.5 57.6803 183.5C76.0536 183.5 89.4003 185.623 97.7203 189.87C106.04 194.03 110.2 200.443 110.2 209.11C110.2 221.243 105.78 229.997 96.9403 235.37C88.1003 240.657 74.7103 243.3 56.7703 243.3C47.1503 243.3 37.3569 242.26 27.3903 240.18C17.4236 238.013 8.45361 234.893 0.480274 230.82ZM179.468 194.29C171.495 193.77 164.215 193.38 157.628 193.12L157.498 206.9C157.498 211.58 158.495 215.263 160.488 217.95C162.568 220.55 166.208 221.85 171.408 221.85C173.401 221.85 175.308 221.677 177.128 221.33C176.781 224.537 176.608 227.787 176.608 231.08C176.608 232.64 176.695 236.193 176.868 241.74C173.055 242.433 169.848 242.867 167.248 243.04C164.648 243.213 161.268 243.3 157.108 243.3C146.968 243.3 139.775 240.873 135.528 236.02C131.368 231.08 129.288 224.233 129.288 215.48L129.418 193.51C125.345 193.683 121.098 193.943 116.678 194.29V171.28C121.185 171.28 124.998 169.85 128.118 166.99C131.238 164.13 133.101 160.707 133.708 156.72H169.068C164.648 162.787 159.751 167.64 154.378 171.28H179.468V194.29ZM270.558 220.42C270.558 223.367 270.905 225.447 271.598 226.66C272.292 227.873 273.678 228.74 275.758 229.26L275.238 241.48C272.465 241.913 270.038 242.217 267.958 242.39C265.965 242.563 263.278 242.65 259.898 242.65C252.445 242.65 247.505 241.003 245.078 237.71C242.652 234.33 241.438 230.04 241.438 224.84V221.59C238.925 228.697 235.242 233.983 230.388 237.45C225.622 240.917 219.512 242.65 212.058 242.65C203.392 242.65 196.848 240.917 192.428 237.45C188.095 233.983 185.928 228.827 185.928 221.98C185.928 216.347 187.792 211.927 191.518 208.72C195.245 205.513 201.008 203.303 208.808 202.09C202.222 197.41 195.635 193.337 189.048 189.87C194.248 183.283 200.185 178.3 206.858 174.92C213.532 171.453 221.635 169.72 231.168 169.72C244.515 169.72 254.395 172.623 260.808 178.43C267.308 184.15 270.558 192.99 270.558 204.95V220.42ZM233.898 192.6C229.478 192.6 225.578 193.337 222.198 194.81C218.818 196.283 215.785 198.493 213.098 201.44C218.298 200.833 224.798 200.53 232.598 200.53C235.805 200.53 238.058 200.14 239.358 199.36C240.658 198.58 241.308 197.583 241.308 196.37C241.308 195.33 240.658 194.463 239.358 193.77C238.058 192.99 236.238 192.6 233.898 192.6ZM220.248 221.46C225.102 221.46 229.478 220.55 233.378 218.73C237.278 216.823 239.965 214.353 241.438 211.32V207.94C239.358 208.98 237.062 209.803 234.548 210.41C232.035 210.93 229.002 211.45 225.448 211.97L220.768 212.75C215.915 213.703 213.488 215.35 213.488 217.69C213.488 220.203 215.742 221.46 220.248 221.46ZM312.316 165.04C312.142 165.473 312.056 166.037 312.056 166.73C312.056 168.117 312.619 169.243 313.746 170.11C314.959 170.89 316.606 171.28 318.686 171.28H335.846V194.29C328.652 193.683 322.932 193.337 318.686 193.25C318.772 209.37 319.119 225.62 319.726 242H288.916C289.002 231.773 289.046 215.653 289.046 193.64C287.226 193.727 284.106 193.943 279.686 194.29V171.28H288.916V168.81C288.916 162.05 290.302 156.287 293.076 151.52C295.849 146.753 299.662 143.157 304.516 140.73C309.456 138.303 315.089 137.09 321.416 137.09C326.529 137.09 331.686 137.827 336.886 139.3C335.152 145.627 333.419 153.557 331.686 163.09L330.906 166.99C328.999 165.343 326.876 164.13 324.536 163.35C322.282 162.483 320.202 162.05 318.296 162.05C316.736 162.05 315.436 162.31 314.396 162.83C313.356 163.35 312.662 164.087 312.316 165.04ZM373.38 165.04C373.207 165.473 373.12 166.037 373.12 166.73C373.12 168.117 373.684 169.243 374.81 170.11C376.024 170.89 377.67 171.28 379.75 171.28H396.91V194.29C389.717 193.683 383.997 193.337 379.75 193.25C379.837 209.37 380.184 225.62 380.79 242H349.98C350.067 231.773 350.11 215.653 350.11 193.64C348.29 193.727 345.17 193.943 340.75 194.29V171.28H349.98V168.81C349.98 162.05 351.367 156.287 354.14 151.52C356.914 146.753 360.727 143.157 365.58 140.73C370.52 138.303 376.154 137.09 382.48 137.09C387.594 137.09 392.75 137.827 397.95 139.3C396.217 145.627 394.484 153.557 392.75 163.09L391.97 166.99C390.064 165.343 387.94 164.13 385.6 163.35C383.347 162.483 381.267 162.05 379.36 162.05C377.8 162.05 376.5 162.31 375.46 162.83C374.42 163.35 373.727 164.087 373.38 165.04ZM473.34 146.19C489.633 146.19 502.503 148.183 511.95 152.17C521.397 156.07 527.983 161.53 531.71 168.55C535.523 175.483 537.43 184.02 537.43 194.16C537.43 203.78 535.263 212.187 530.93 219.38C526.597 226.573 520.097 232.163 511.43 236.15C502.763 240.05 492.103 242 479.45 242C471.737 242 463.893 242 455.92 242C447.947 242 439.887 241.957 431.74 241.87C432.433 224.797 432.78 208.893 432.78 194.16C432.78 179.253 432.433 163.697 431.74 147.49C442.053 146.623 455.92 146.19 473.34 146.19ZM483.09 216.13C491.15 216.13 496.523 214.18 499.21 210.28C501.897 206.38 503.24 201.007 503.24 194.16C503.24 187.573 501.81 182.243 498.95 178.17C496.177 174.097 490.89 172.06 483.09 172.06C474.683 172.06 468.4 172.32 464.24 172.84V216.13H483.09ZM565.195 163.35C559.735 163.35 555.662 162.007 552.975 159.32C550.375 156.633 549.075 153.123 549.075 148.79C549.075 144.543 550.375 141.033 552.975 138.26C555.662 135.487 559.735 134.1 565.195 134.1C570.395 134.1 574.382 135.53 577.155 138.39C579.929 141.163 581.315 144.63 581.315 148.79C581.315 153.123 579.972 156.633 577.285 159.32C574.599 162.007 570.569 163.35 565.195 163.35ZM550.115 242C550.722 228.047 551.025 216.52 551.025 207.42C551.025 196.587 550.679 184.453 549.985 171.02H581.185C580.492 183.933 580.145 196.067 580.145 207.42C580.145 216.953 580.449 228.48 581.055 242H550.115ZM634.961 243.3C627.681 243.3 620.271 242.303 612.731 240.31C605.277 238.23 598.257 235.11 591.671 230.95L605.321 212.36C609.307 215.22 614.117 217.473 619.751 219.12C625.384 220.68 630.237 221.46 634.311 221.46C638.211 221.46 641.201 220.94 643.281 219.9C645.447 218.773 646.531 217.343 646.531 215.61C646.531 214.223 646.011 213.14 644.971 212.36C643.931 211.58 642.501 211.19 640.681 211.19C639.554 211.19 638.254 211.233 636.781 211.32C635.394 211.407 634.267 211.493 633.401 211.58C628.894 212.1 624.257 212.36 619.491 212.36C611.777 212.36 605.494 210.93 600.641 208.07C595.874 205.123 593.491 200.357 593.491 193.77C593.491 186.143 597.087 180.25 604.281 176.09C611.474 171.843 622.047 169.72 636.001 169.72C642.847 169.72 649.737 170.717 656.671 172.71C663.691 174.617 669.887 177.52 675.261 181.42L660.311 196.5C655.371 193.9 650.734 192.08 646.401 191.04C642.154 189.913 637.864 189.35 633.531 189.35C630.497 189.35 627.897 189.957 625.731 191.17C623.564 192.383 622.481 193.77 622.481 195.33C622.481 196.543 622.914 197.497 623.781 198.19C624.734 198.883 625.947 199.23 627.421 199.23C628.894 199.23 630.931 199.1 633.531 198.84C639.857 198.407 644.581 198.19 647.701 198.19C656.714 198.19 663.691 199.707 668.631 202.74C673.571 205.773 676.041 210.41 676.041 216.65C676.041 226.01 672.401 232.813 665.121 237.06C657.841 241.22 647.787 243.3 634.961 243.3ZM741.948 169.72C747.582 169.72 752.652 171.323 757.158 174.53C761.665 177.737 765.175 182.113 767.688 187.66C770.202 193.12 771.458 199.143 771.458 205.73C771.458 212.23 770.202 218.383 767.688 224.19C765.175 229.91 761.622 234.547 757.028 238.1C752.522 241.567 747.365 243.3 741.558 243.3C734.798 243.3 728.992 241.913 724.138 239.14C719.372 236.28 715.818 231.903 713.478 226.01C713.478 230.95 713.652 238.88 713.998 249.8C714.345 260.373 714.518 267.827 714.518 272.16H685.138C685.658 256.04 685.918 239.183 685.918 221.59C685.918 203.997 685.658 187.14 685.138 171.02H710.098L713.868 187.27C716.295 181.203 719.935 176.783 724.788 174.01C729.642 171.15 735.362 169.72 741.948 169.72ZM728.038 219.9C731.938 219.9 735.188 218.687 737.788 216.26C740.475 213.747 741.818 210.497 741.818 206.51C741.818 202.09 740.605 198.493 738.178 195.72C735.752 192.947 732.458 191.56 728.298 191.56C723.532 191.56 719.935 192.73 717.508 195.07C715.082 197.323 713.868 201.137 713.868 206.51C713.868 209.543 714.648 212.1 716.208 214.18C717.768 216.173 719.632 217.647 721.798 218.6C723.965 219.467 726.045 219.9 728.038 219.9ZM863.937 220.42C863.937 223.367 864.284 225.447 864.977 226.66C865.671 227.873 867.057 228.74 869.137 229.26L868.617 241.48C865.844 241.913 863.417 242.217 861.337 242.39C859.344 242.563 856.657 242.65 853.277 242.65C845.824 242.65 840.884 241.003 838.457 237.71C836.031 234.33 834.817 230.04 834.817 224.84V221.59C832.304 228.697 828.621 233.983 823.767 237.45C819.001 240.917 812.891 242.65 805.437 242.65C796.771 242.65 790.227 240.917 785.807 237.45C781.474 233.983 779.307 228.827 779.307 221.98C779.307 216.347 781.171 211.927 784.897 208.72C788.624 205.513 794.387 203.303 802.187 202.09C795.601 197.41 789.014 193.337 782.427 189.87C787.627 183.283 793.564 178.3 800.237 174.92C806.911 171.453 815.014 169.72 824.547 169.72C837.894 169.72 847.774 172.623 854.187 178.43C860.687 184.15 863.937 192.99 863.937 204.95V220.42ZM827.277 192.6C822.857 192.6 818.957 193.337 815.577 194.81C812.197 196.283 809.164 198.493 806.477 201.44C811.677 200.833 818.177 200.53 825.977 200.53C829.184 200.53 831.437 200.14 832.737 199.36C834.037 198.58 834.687 197.583 834.687 196.37C834.687 195.33 834.037 194.463 832.737 193.77C831.437 192.99 829.617 192.6 827.277 192.6ZM813.627 221.46C818.481 221.46 822.857 220.55 826.757 218.73C830.657 216.823 833.344 214.353 834.817 211.32V207.94C832.737 208.98 830.441 209.803 827.927 210.41C825.414 210.93 822.381 211.45 818.827 211.97L814.147 212.75C809.294 213.703 806.867 215.35 806.867 217.69C806.867 220.203 809.121 221.46 813.627 221.46ZM935.855 194.29C927.881 193.77 920.601 193.38 914.015 193.12L913.885 206.9C913.885 211.58 914.881 215.263 916.875 217.95C918.955 220.55 922.595 221.85 927.795 221.85C929.788 221.85 931.695 221.677 933.515 221.33C933.168 224.537 932.995 227.787 932.995 231.08C932.995 232.64 933.081 236.193 933.255 241.74C929.441 242.433 926.235 242.867 923.635 243.04C921.035 243.213 917.655 243.3 913.495 243.3C903.355 243.3 896.161 240.873 891.915 236.02C887.755 231.08 885.675 224.233 885.675 215.48L885.805 193.51C881.731 193.683 877.485 193.943 873.065 194.29V171.28C877.571 171.28 881.385 169.85 884.505 166.99C887.625 164.13 889.488 160.707 890.095 156.72H925.455C921.035 162.787 916.138 167.64 910.765 171.28H935.855V194.29ZM970.005 206.51C970.178 210.93 971.565 214.483 974.165 217.17C976.852 219.857 980.795 221.2 985.995 221.2C988.855 221.2 991.412 220.68 993.665 219.64C995.918 218.513 997.998 216.867 999.905 214.7C1007.27 217.56 1015.9 220.03 1025.78 222.11C1022.92 228.783 1018.06 233.983 1011.22 237.71C1004.46 241.437 995.658 243.3 984.825 243.3C970.352 243.3 959.648 239.92 952.715 233.16C945.782 226.4 942.315 217.517 942.315 206.51C942.315 195.503 945.782 186.62 952.715 179.86C959.648 173.1 970.352 169.72 984.825 169.72C995.658 169.72 1004.46 171.583 1011.22 175.31C1018.06 179.037 1022.92 184.237 1025.78 190.91C1018.06 192.557 1009.44 195.027 999.905 198.32C997.998 196.153 995.918 194.55 993.665 193.51C991.412 192.383 988.855 191.82 985.995 191.82C980.795 191.82 976.852 193.163 974.165 195.85C971.565 198.537 970.178 202.09 970.005 206.51ZM1086.23 242C1086.75 229.26 1087.01 217.517 1087.01 206.77C1087.01 202.957 1086.06 199.923 1084.15 197.67C1082.33 195.417 1079.99 194.29 1077.13 194.29C1074.1 194.29 1071.5 195.763 1069.33 198.71C1067.25 201.657 1066.21 205.687 1066.21 210.8L1066.08 210.54C1066.08 224.667 1066.25 235.153 1066.6 242H1035.53C1036.22 229.52 1036.57 212.62 1036.57 191.3C1036.57 169.98 1036.22 153.08 1035.53 140.6H1066.47L1066.6 180.64L1066.47 187.53C1068.55 181.463 1071.63 177 1075.7 174.14C1079.86 171.193 1084.54 169.72 1089.74 169.72C1094.94 169.72 1099.45 170.89 1103.26 173.23C1107.07 175.483 1109.93 178.56 1111.84 182.46C1113.83 186.36 1114.83 190.737 1114.83 195.59V214.31C1114.83 225.837 1115.05 235.067 1115.48 242H1086.23Z" fill="#BC0011"/>
</svg>
