<svg width="1116" height="273" viewBox="0 0 1116 273" fill="none" xmlns="http://www.w3.org/2000/svg">
<path d="M53.76 48.18H109.27V102H86.39L83.66 78.99C81.06 87.2233 76.4233 93.3333 69.75 97.32C63.0767 101.307 54.93 103.3 45.31 103.3C36.5567 103.3 28.7567 101.35 21.91 97.45C15.15 93.55 9.82 87.96 5.92 80.68C2.10667 73.4 0.2 64.9067 0.2 55.2C0.2 39.6867 4.83667 27.4233 14.11 18.41C23.3833 9.39666 37.8133 4.88999 57.4 4.88999C68.58 4.88999 78.4167 6.70999 86.91 10.35C95.49 13.99 102.77 19.6233 108.75 27.25C104.85 29.2433 97.2233 33.23 85.87 39.21L82.62 41.03C79.24 37.65 75.2967 35.1367 70.79 33.49C66.2833 31.7567 61.5167 30.89 56.49 30.89C48.17 30.89 41.9733 33.1 37.9 37.52C33.8267 41.8533 31.79 47.2267 31.79 53.64C31.79 60.5733 33.9567 66.1633 38.29 70.41C42.71 74.6567 49.4267 76.78 58.44 76.78C62.34 76.78 66.11 76.2167 69.75 75.09C73.4767 73.9633 76.5967 72.0133 79.11 69.24H53.76V48.18ZM188.433 69.5H146.053C146.746 73.3133 148.436 76.4333 151.123 78.86C153.896 81.2 157.796 82.37 162.823 82.37C166.463 82.37 169.886 81.6767 173.093 80.29C176.3 78.8167 178.856 76.78 180.763 74.18C186.57 77.04 194.283 80.1167 203.903 83.41C201.216 89.4767 196.32 94.33 189.213 97.97C182.193 101.523 173.006 103.3 161.653 103.3C146.92 103.3 136 99.92 128.893 93.16C121.873 86.3133 118.363 77.3433 118.363 66.25C118.363 55.4167 121.873 46.62 128.893 39.86C135.913 33.1 146.833 29.72 161.653 29.72C170.493 29.72 178.163 31.1933 184.663 34.14C191.163 37.0867 196.146 41.2033 199.613 46.49C203.08 51.69 204.813 57.67 204.813 64.43C204.813 66.6833 204.726 68.3733 204.553 69.5H188.433ZM163.473 49.35C159.14 49.35 155.586 50.1733 152.813 51.82C150.04 53.4667 148.09 55.72 146.963 58.58H177.643C176.603 55.8067 174.913 53.5967 172.573 51.95C170.233 50.2167 167.2 49.35 163.473 49.35ZM297.192 80.42C297.192 83.3667 297.539 85.4467 298.232 86.66C298.925 87.8733 300.312 88.74 302.392 89.26L301.872 101.48C299.099 101.913 296.672 102.217 294.592 102.39C292.599 102.563 289.912 102.65 286.532 102.65C279.079 102.65 274.139 101.003 271.712 97.71C269.285 94.33 268.072 90.04 268.072 84.84V81.59C265.559 88.6967 261.875 93.9833 257.022 97.45C252.255 100.917 246.145 102.65 238.692 102.65C230.025 102.65 223.482 100.917 219.062 97.45C214.729 93.9833 212.562 88.8267 212.562 81.98C212.562 76.3467 214.425 71.9267 218.152 68.72C221.879 65.5133 227.642 63.3033 235.442 62.09C228.855 57.41 222.269 53.3367 215.682 49.87C220.882 43.2833 226.819 38.3 233.492 34.92C240.165 31.4533 248.269 29.72 257.802 29.72C271.149 29.72 281.029 32.6233 287.442 38.43C293.942 44.15 297.192 52.99 297.192 64.95V80.42ZM260.532 52.6C256.112 52.6 252.212 53.3367 248.832 54.81C245.452 56.2833 242.419 58.4933 239.732 61.44C244.932 60.8333 251.432 60.53 259.232 60.53C262.439 60.53 264.692 60.14 265.992 59.36C267.292 58.58 267.942 57.5833 267.942 56.37C267.942 55.33 267.292 54.4633 265.992 53.77C264.692 52.99 262.872 52.6 260.532 52.6ZM246.882 81.46C251.735 81.46 256.112 80.55 260.012 78.73C263.912 76.8233 266.599 74.3533 268.072 71.32V67.94C265.992 68.98 263.695 69.8033 261.182 70.41C258.669 70.93 255.635 71.45 252.082 71.97L247.402 72.75C242.549 73.7033 240.122 75.35 240.122 77.69C240.122 80.2033 242.375 81.46 246.882 81.46ZM340.38 50.26C344.02 37.1733 353.076 30.63 367.55 30.63C370.063 30.63 372.49 30.8033 374.83 31.15L370.67 60.27C364.43 57.93 359.316 56.76 355.33 56.76C350.39 56.76 346.75 58.2333 344.41 61.18C342.07 64.1267 340.9 68.07 340.9 73.01V72.88L340.77 81.46C340.77 87.6133 340.943 94.46 341.29 102H310.22C310.913 89.52 311.26 77.7333 311.26 66.64C311.26 55.5467 310.913 43.6733 310.22 31.02C315.94 31.28 320.316 31.41 323.35 31.41C326.556 31.41 330.933 31.28 336.48 31.02L340.38 50.26ZM515.664 39.08C515.664 46.62 513.801 52.99 510.074 58.19C506.434 63.39 500.151 67.16 491.224 69.5C492.264 70.8867 493.001 71.97 493.434 72.75L514.494 102L479.134 102C475.321 94.8933 469.298 84.84 461.064 71.84H441.954V102H411.274C411.968 85.1867 412.314 69.4567 412.314 54.81C412.314 40.1633 411.968 24.4333 411.274 7.62L441.954 7.62V7.75L468.604 7.75C486.111 7.75 498.331 10.5667 505.264 16.2C512.198 21.8333 515.664 29.46 515.664 39.08ZM441.954 32.71V47.53H459.504C466.871 47.53 472.418 47.3133 476.144 46.88C479.958 46.36 482.601 45.58 484.074 44.54C485.548 43.5 486.284 41.9833 486.284 39.99C486.284 38.0833 485.591 36.61 484.204 35.57C482.818 34.53 480.218 33.7933 476.404 33.36C472.591 32.9267 466.958 32.71 459.504 32.71H441.954ZM588.335 69.5L545.955 69.5C546.649 73.3133 548.339 76.4333 551.025 78.86C553.799 81.2 557.699 82.37 562.725 82.37C566.365 82.37 569.789 81.6767 572.995 80.29C576.202 78.8167 578.759 76.78 580.665 74.18C586.472 77.04 594.185 80.1167 603.805 83.41C601.119 89.4767 596.222 94.33 589.115 97.97C582.095 101.523 572.909 103.3 561.555 103.3C546.822 103.3 535.902 99.92 528.795 93.16C521.775 86.3133 518.265 77.3433 518.265 66.25C518.265 55.4167 521.775 46.62 528.795 39.86C535.815 33.1 546.735 29.72 561.555 29.72C570.395 29.72 578.065 31.1933 584.565 34.14C591.065 37.0867 596.049 41.2033 599.515 46.49C602.982 51.69 604.715 57.67 604.715 64.43C604.715 66.6833 604.629 68.3733 604.455 69.5H588.335ZM563.375 49.35C559.042 49.35 555.489 50.1733 552.715 51.82C549.942 53.4667 547.992 55.72 546.865 58.58L577.545 58.58C576.505 55.8067 574.815 53.5967 572.475 51.95C570.135 50.2167 567.102 49.35 563.375 49.35ZM664.464 102C664.984 89.26 665.244 77.5167 665.244 66.77C665.244 62.9567 664.291 59.9233 662.384 57.67C660.564 55.4167 658.224 54.29 655.364 54.29C652.504 54.29 650.078 55.59 648.084 58.19C646.091 60.7033 644.921 64.17 644.574 68.59C644.401 75.1767 644.314 79.8567 644.314 82.63C644.314 88.5233 644.488 94.98 644.834 102H613.764C614.458 89.52 614.804 77.7333 614.804 66.64C614.804 55.5467 614.458 43.6733 613.764 31.02C619.484 31.28 623.861 31.41 626.894 31.41C630.101 31.41 634.478 31.28 640.024 31.02L643.794 50.13C645.788 43.1967 648.908 38.0833 653.154 34.79C657.401 31.41 662.341 29.72 667.974 29.72C673.174 29.72 677.681 30.89 681.494 33.23C685.308 35.4833 688.168 38.56 690.074 42.46C692.068 46.36 693.064 50.7367 693.064 55.59V74.31C693.064 85.8367 693.281 95.0667 693.714 102H664.464ZM763.045 54.29C755.072 53.77 747.792 53.38 741.205 53.12L741.075 66.9C741.075 71.58 742.072 75.2633 744.065 77.95C746.145 80.55 749.785 81.85 754.985 81.85C756.978 81.85 758.885 81.6767 760.705 81.33C760.358 84.5367 760.185 87.7867 760.185 91.08C760.185 92.64 760.272 96.1933 760.445 101.74C756.632 102.433 753.425 102.867 750.825 103.04C748.225 103.213 744.845 103.3 740.685 103.3C730.545 103.3 723.352 100.873 719.105 96.02C714.945 91.08 712.865 84.2333 712.865 75.48L712.995 53.51C708.922 53.6833 704.675 53.9433 700.255 54.29V31.28C704.762 31.28 708.575 29.85 711.695 26.99C714.815 24.13 716.678 20.7067 717.285 16.72L752.645 16.72C748.225 22.7867 743.328 27.64 737.955 31.28H763.045V54.29ZM854.135 80.42C854.135 83.3667 854.482 85.4467 855.175 86.66C855.869 87.8733 857.255 88.74 859.335 89.26L858.815 101.48C856.042 101.913 853.615 102.217 851.535 102.39C849.542 102.563 846.855 102.65 843.475 102.65C836.022 102.65 831.082 101.003 828.655 97.71C826.229 94.33 825.015 90.04 825.015 84.84V81.59C822.502 88.6967 818.819 93.9833 813.965 97.45C809.199 100.917 803.089 102.65 795.635 102.65C786.969 102.65 780.425 100.917 776.005 97.45C771.672 93.9833 769.505 88.8267 769.505 81.98C769.505 76.3467 771.369 71.9267 775.095 68.72C778.822 65.5133 784.585 63.3033 792.385 62.09C785.799 57.41 779.212 53.3367 772.625 49.87C777.825 43.2833 783.762 38.3 790.435 34.92C797.109 31.4533 805.212 29.72 814.745 29.72C828.092 29.72 837.972 32.6233 844.385 38.43C850.885 44.15 854.135 52.99 854.135 64.95V80.42ZM817.475 52.6C813.055 52.6 809.155 53.3367 805.775 54.81C802.395 56.2833 799.362 58.4933 796.675 61.44C801.875 60.8333 808.375 60.53 816.175 60.53C819.382 60.53 821.635 60.14 822.935 59.36C824.235 58.58 824.885 57.5833 824.885 56.37C824.885 55.33 824.235 54.4633 822.935 53.77C821.635 52.99 819.815 52.6 817.475 52.6ZM803.825 81.46C808.679 81.46 813.055 80.55 816.955 78.73C820.855 76.8233 823.542 74.3533 825.015 71.32V67.94C822.935 68.98 820.639 69.8033 818.125 70.41C815.612 70.93 812.579 71.45 809.025 71.97L804.345 72.75C799.492 73.7033 797.065 75.35 797.065 77.69C797.065 80.2033 799.319 81.46 803.825 81.46ZM897.713 50C897.626 55.2 897.583 63.1733 897.583 73.92C897.583 86.8333 897.67 96.1933 897.843 102H867.163L867.293 87.31C867.466 71.19 867.553 58.7533 867.553 50C867.553 41.68 867.466 29.8933 867.293 14.64L867.163 0.599996L897.843 0.599996C897.67 12.9067 897.583 22.96 897.583 30.76C897.583 39.4267 897.626 45.84 897.713 50ZM0.2 230.82C3.14667 226.4 5.57333 222.283 7.48 218.47C9.47333 214.657 11.38 210.237 13.2 205.21C19.3533 208.763 26.5033 211.537 34.65 213.53C42.7967 215.523 50.38 216.52 57.4 216.52C64.5933 216.52 69.6633 215.913 72.61 214.7C75.5567 213.4 77.03 212.013 77.03 210.54C77.03 205.253 68.97 202.61 52.85 202.61C35.17 202.61 22.3433 200.79 14.37 197.15C6.39667 193.423 2.41 187.443 2.41 179.21C2.41 167.51 7.26333 158.887 16.97 153.34C26.6767 147.793 39.2867 145.02 54.8 145.02C63.8133 145.02 73.0433 146.19 82.49 148.53C92.0233 150.783 100.603 153.903 108.23 157.89C105.717 163.61 103.073 170.587 100.3 178.82C99.78 180.553 99.3467 181.853 99 182.72C94.58 179.167 87.9067 176.22 78.98 173.88C70.0533 171.453 62.1667 170.24 55.32 170.24C47.0867 170.24 41.54 170.803 38.68 171.93C35.82 172.97 34.39 174.53 34.39 176.61C34.39 178.69 36.34 180.38 40.24 181.68C44.2267 182.893 49.9467 183.5 57.4 183.5C75.7733 183.5 89.12 185.623 97.44 189.87C105.76 194.03 109.92 200.443 109.92 209.11C109.92 221.243 105.5 229.997 96.66 235.37C87.82 240.657 74.43 243.3 56.49 243.3C46.87 243.3 37.0767 242.26 27.11 240.18C17.1433 238.013 8.17333 234.893 0.2 230.82ZM179.188 194.29C171.214 193.77 163.934 193.38 157.348 193.12L157.218 206.9C157.218 211.58 158.214 215.263 160.208 217.95C162.288 220.55 165.928 221.85 171.128 221.85C173.121 221.85 175.028 221.677 176.848 221.33C176.501 224.537 176.328 227.787 176.328 231.08C176.328 232.64 176.414 236.193 176.588 241.74C172.774 242.433 169.568 242.867 166.968 243.04C164.368 243.213 160.988 243.3 156.828 243.3C146.688 243.3 139.494 240.873 135.248 236.02C131.088 231.08 129.008 224.233 129.008 215.48L129.138 193.51C125.064 193.683 120.818 193.943 116.398 194.29V171.28C120.904 171.28 124.718 169.85 127.838 166.99C130.958 164.13 132.821 160.707 133.428 156.72H168.788C164.368 162.787 159.471 167.64 154.098 171.28H179.188V194.29ZM270.278 220.42C270.278 223.367 270.625 225.447 271.318 226.66C272.011 227.873 273.398 228.74 275.478 229.26L274.958 241.48C272.185 241.913 269.758 242.217 267.678 242.39C265.685 242.563 262.998 242.65 259.618 242.65C252.165 242.65 247.225 241.003 244.798 237.71C242.371 234.33 241.158 230.04 241.158 224.84V221.59C238.645 228.697 234.961 233.983 230.108 237.45C225.341 240.917 219.231 242.65 211.778 242.65C203.111 242.65 196.568 240.917 192.148 237.45C187.815 233.983 185.648 228.827 185.648 221.98C185.648 216.347 187.511 211.927 191.238 208.72C194.965 205.513 200.728 203.303 208.528 202.09C201.941 197.41 195.355 193.337 188.768 189.87C193.968 183.283 199.905 178.3 206.578 174.92C213.251 171.453 221.355 169.72 230.888 169.72C244.235 169.72 254.115 172.623 260.528 178.43C267.028 184.15 270.278 192.99 270.278 204.95V220.42ZM233.618 192.6C229.198 192.6 225.298 193.337 221.918 194.81C218.538 196.283 215.505 198.493 212.818 201.44C218.018 200.833 224.518 200.53 232.318 200.53C235.525 200.53 237.778 200.14 239.078 199.36C240.378 198.58 241.028 197.583 241.028 196.37C241.028 195.33 240.378 194.463 239.078 193.77C237.778 192.99 235.958 192.6 233.618 192.6ZM219.968 221.46C224.821 221.46 229.198 220.55 233.098 218.73C236.998 216.823 239.685 214.353 241.158 211.32V207.94C239.078 208.98 236.781 209.803 234.268 210.41C231.755 210.93 228.721 211.45 225.168 211.97L220.488 212.75C215.635 213.703 213.208 215.35 213.208 217.69C213.208 220.203 215.461 221.46 219.968 221.46ZM312.035 165.04C311.862 165.473 311.775 166.037 311.775 166.73C311.775 168.117 312.339 169.243 313.465 170.11C314.679 170.89 316.325 171.28 318.405 171.28H335.565V194.29C328.372 193.683 322.652 193.337 318.405 193.25C318.492 209.37 318.839 225.62 319.445 242H288.635C288.722 231.773 288.765 215.653 288.765 193.64C286.945 193.727 283.825 193.943 279.405 194.29V171.28H288.635V168.81C288.635 162.05 290.022 156.287 292.795 151.52C295.569 146.753 299.382 143.157 304.235 140.73C309.175 138.303 314.809 137.09 321.135 137.09C326.249 137.09 331.405 137.827 336.605 139.3C334.872 145.627 333.139 153.557 331.405 163.09L330.625 166.99C328.719 165.343 326.595 164.13 324.255 163.35C322.002 162.483 319.922 162.05 318.015 162.05C316.455 162.05 315.155 162.31 314.115 162.83C313.075 163.35 312.382 164.087 312.035 165.04ZM373.1 165.04C372.927 165.473 372.84 166.037 372.84 166.73C372.84 168.117 373.403 169.243 374.53 170.11C375.743 170.89 377.39 171.28 379.47 171.28H396.63V194.29C389.437 193.683 383.717 193.337 379.47 193.25C379.557 209.37 379.903 225.62 380.51 242H349.7C349.787 231.773 349.83 215.653 349.83 193.64C348.01 193.727 344.89 193.943 340.47 194.29V171.28H349.7V168.81C349.7 162.05 351.087 156.287 353.86 151.52C356.633 146.753 360.447 143.157 365.3 140.73C370.24 138.303 375.873 137.09 382.2 137.09C387.313 137.09 392.47 137.827 397.67 139.3C395.937 145.627 394.203 153.557 392.47 163.09L391.69 166.99C389.783 165.343 387.66 164.13 385.32 163.35C383.067 162.483 380.987 162.05 379.08 162.05C377.52 162.05 376.22 162.31 375.18 162.83C374.14 163.35 373.447 164.087 373.1 165.04ZM473.06 146.19C489.353 146.19 502.223 148.183 511.67 152.17C521.116 156.07 527.703 161.53 531.43 168.55C535.243 175.483 537.15 184.02 537.15 194.16C537.15 203.78 534.983 212.187 530.65 219.38C526.316 226.573 519.816 232.163 511.15 236.15C502.483 240.05 491.823 242 479.17 242C471.456 242 463.613 242 455.64 242C447.666 242 439.606 241.957 431.46 241.87C432.153 224.797 432.5 208.893 432.5 194.16C432.5 179.253 432.153 163.697 431.46 147.49C441.773 146.623 455.64 146.19 473.06 146.19ZM482.81 216.13C490.87 216.13 496.243 214.18 498.93 210.28C501.616 206.38 502.96 201.007 502.96 194.16C502.96 187.573 501.53 182.243 498.67 178.17C495.896 174.097 490.61 172.06 482.81 172.06C474.403 172.06 468.12 172.32 463.96 172.84V216.13H482.81ZM564.915 163.35C559.455 163.35 555.382 162.007 552.695 159.32C550.095 156.633 548.795 153.123 548.795 148.79C548.795 144.543 550.095 141.033 552.695 138.26C555.382 135.487 559.455 134.1 564.915 134.1C570.115 134.1 574.102 135.53 576.875 138.39C579.648 141.163 581.035 144.63 581.035 148.79C581.035 153.123 579.692 156.633 577.005 159.32C574.318 162.007 570.288 163.35 564.915 163.35ZM549.835 242C550.442 228.047 550.745 216.52 550.745 207.42C550.745 196.587 550.398 184.453 549.705 171.02H580.905C580.212 183.933 579.865 196.067 579.865 207.42C579.865 216.953 580.168 228.48 580.775 242H549.835ZM634.68 243.3C627.4 243.3 619.99 242.303 612.45 240.31C604.997 238.23 597.977 235.11 591.39 230.95L605.04 212.36C609.027 215.22 613.837 217.473 619.47 219.12C625.104 220.68 629.957 221.46 634.03 221.46C637.93 221.46 640.92 220.94 643 219.9C645.167 218.773 646.25 217.343 646.25 215.61C646.25 214.223 645.73 213.14 644.69 212.36C643.65 211.58 642.22 211.19 640.4 211.19C639.274 211.19 637.974 211.233 636.5 211.32C635.114 211.407 633.987 211.493 633.12 211.58C628.614 212.1 623.977 212.36 619.21 212.36C611.497 212.36 605.214 210.93 600.36 208.07C595.594 205.123 593.21 200.357 593.21 193.77C593.21 186.143 596.807 180.25 604 176.09C611.194 171.843 621.767 169.72 635.72 169.72C642.567 169.72 649.457 170.717 656.39 172.71C663.41 174.617 669.607 177.52 674.98 181.42L660.03 196.5C655.09 193.9 650.454 192.08 646.12 191.04C641.874 189.913 637.584 189.35 633.25 189.35C630.217 189.35 627.617 189.957 625.45 191.17C623.284 192.383 622.2 193.77 622.2 195.33C622.2 196.543 622.634 197.497 623.5 198.19C624.454 198.883 625.667 199.23 627.14 199.23C628.614 199.23 630.65 199.1 633.25 198.84C639.577 198.407 644.3 198.19 647.42 198.19C656.434 198.19 663.41 199.707 668.35 202.74C673.29 205.773 675.76 210.41 675.76 216.65C675.76 226.01 672.12 232.813 664.84 237.06C657.56 241.22 647.507 243.3 634.68 243.3ZM741.668 169.72C747.302 169.72 752.372 171.323 756.878 174.53C761.385 177.737 764.895 182.113 767.408 187.66C769.922 193.12 771.178 199.143 771.178 205.73C771.178 212.23 769.922 218.383 767.408 224.19C764.895 229.91 761.342 234.547 756.748 238.1C752.242 241.567 747.085 243.3 741.278 243.3C734.518 243.3 728.712 241.913 723.858 239.14C719.092 236.28 715.538 231.903 713.198 226.01C713.198 230.95 713.372 238.88 713.718 249.8C714.065 260.373 714.238 267.827 714.238 272.16H684.858C685.378 256.04 685.638 239.183 685.638 221.59C685.638 203.997 685.378 187.14 684.858 171.02H709.818L713.588 187.27C716.015 181.203 719.655 176.783 724.508 174.01C729.362 171.15 735.082 169.72 741.668 169.72ZM727.758 219.9C731.658 219.9 734.908 218.687 737.508 216.26C740.195 213.747 741.538 210.497 741.538 206.51C741.538 202.09 740.325 198.493 737.898 195.72C735.472 192.947 732.178 191.56 728.018 191.56C723.252 191.56 719.655 192.73 717.228 195.07C714.802 197.323 713.588 201.137 713.588 206.51C713.588 209.543 714.368 212.1 715.928 214.18C717.488 216.173 719.352 217.647 721.518 218.6C723.685 219.467 725.765 219.9 727.758 219.9ZM863.657 220.42C863.657 223.367 864.004 225.447 864.697 226.66C865.39 227.873 866.777 228.74 868.857 229.26L868.337 241.48C865.564 241.913 863.137 242.217 861.057 242.39C859.064 242.563 856.377 242.65 852.997 242.65C845.544 242.65 840.604 241.003 838.177 237.71C835.75 234.33 834.537 230.04 834.537 224.84V221.59C832.024 228.697 828.34 233.983 823.487 237.45C818.72 240.917 812.61 242.65 805.157 242.65C796.49 242.65 789.947 240.917 785.527 237.45C781.194 233.983 779.027 228.827 779.027 221.98C779.027 216.347 780.89 211.927 784.617 208.72C788.344 205.513 794.107 203.303 801.907 202.09C795.32 197.41 788.734 193.337 782.147 189.87C787.347 183.283 793.284 178.3 799.957 174.92C806.63 171.453 814.734 169.72 824.267 169.72C837.614 169.72 847.494 172.623 853.907 178.43C860.407 184.15 863.657 192.99 863.657 204.95V220.42ZM826.997 192.6C822.577 192.6 818.677 193.337 815.297 194.81C811.917 196.283 808.884 198.493 806.197 201.44C811.397 200.833 817.897 200.53 825.697 200.53C828.904 200.53 831.157 200.14 832.457 199.36C833.757 198.58 834.407 197.583 834.407 196.37C834.407 195.33 833.757 194.463 832.457 193.77C831.157 192.99 829.337 192.6 826.997 192.6ZM813.347 221.46C818.2 221.46 822.577 220.55 826.477 218.73C830.377 216.823 833.064 214.353 834.537 211.32V207.94C832.457 208.98 830.16 209.803 827.647 210.41C825.134 210.93 822.1 211.45 818.547 211.97L813.867 212.75C809.014 213.703 806.587 215.35 806.587 217.69C806.587 220.203 808.84 221.46 813.347 221.46ZM935.574 194.29C927.601 193.77 920.321 193.38 913.734 193.12L913.604 206.9C913.604 211.58 914.601 215.263 916.594 217.95C918.674 220.55 922.314 221.85 927.514 221.85C929.508 221.85 931.414 221.677 933.234 221.33C932.888 224.537 932.714 227.787 932.714 231.08C932.714 232.64 932.801 236.193 932.974 241.74C929.161 242.433 925.954 242.867 923.354 243.04C920.754 243.213 917.374 243.3 913.214 243.3C903.074 243.3 895.881 240.873 891.634 236.02C887.474 231.08 885.394 224.233 885.394 215.48L885.524 193.51C881.451 193.683 877.204 193.943 872.784 194.29V171.28C877.291 171.28 881.104 169.85 884.224 166.99C887.344 164.13 889.208 160.707 889.814 156.72H925.174C920.754 162.787 915.858 167.64 910.484 171.28H935.574V194.29ZM969.725 206.51C969.898 210.93 971.285 214.483 973.885 217.17C976.571 219.857 980.515 221.2 985.715 221.2C988.575 221.2 991.131 220.68 993.385 219.64C995.638 218.513 997.718 216.867 999.625 214.7C1006.99 217.56 1015.61 220.03 1025.49 222.11C1022.63 228.783 1017.78 233.983 1010.93 237.71C1004.17 241.437 995.378 243.3 984.545 243.3C970.071 243.3 959.368 239.92 952.435 233.16C945.501 226.4 942.035 217.517 942.035 206.51C942.035 195.503 945.501 186.62 952.435 179.86C959.368 173.1 970.071 169.72 984.545 169.72C995.378 169.72 1004.17 171.583 1010.93 175.31C1017.78 179.037 1022.63 184.237 1025.49 190.91C1017.78 192.557 1009.16 195.027 999.625 198.32C997.718 196.153 995.638 194.55 993.385 193.51C991.131 192.383 988.575 191.82 985.715 191.82C980.515 191.82 976.571 193.163 973.885 195.85C971.285 198.537 969.898 202.09 969.725 206.51ZM1085.95 242C1086.47 229.26 1086.73 217.517 1086.73 206.77C1086.73 202.957 1085.78 199.923 1083.87 197.67C1082.05 195.417 1079.71 194.29 1076.85 194.29C1073.82 194.29 1071.22 195.763 1069.05 198.71C1066.97 201.657 1065.93 205.687 1065.93 210.8L1065.8 210.54C1065.8 224.667 1065.97 235.153 1066.32 242H1035.25C1035.94 229.52 1036.29 212.62 1036.29 191.3C1036.29 169.98 1035.94 153.08 1035.25 140.6H1066.19L1066.32 180.64L1066.19 187.53C1068.27 181.463 1071.35 177 1075.42 174.14C1079.58 171.193 1084.26 169.72 1089.46 169.72C1094.66 169.72 1099.17 170.89 1102.98 173.23C1106.79 175.483 1109.65 178.56 1111.56 182.46C1113.55 186.36 1114.55 190.737 1114.55 195.59V214.31C1114.55 225.837 1114.77 235.067 1115.2 242H1085.95Z" fill="#BC0011"/>
</svg>
