<svg width="811" height="104" viewBox="0 0 811 104" fill="none" xmlns="http://www.w3.org/2000/svg">
<path d="M109.14 7.62C108.533 22.2667 108.23 37.9967 108.23 54.81C108.23 71.6233 108.533 87.3533 109.14 102L78.59 102L78.59 66.64L30.75 66.64V102H0.2C0.893333 85.1867 1.24 69.4567 1.24 54.81C1.24 40.1633 0.893333 24.4333 0.2 7.62L30.75 7.62L30.75 42.98L78.59 42.98V7.62L109.14 7.62ZM202.866 80.42C202.866 83.3667 203.213 85.4467 203.906 86.66C204.599 87.8733 205.986 88.74 208.066 89.26L207.546 101.48C204.773 101.913 202.346 102.217 200.266 102.39C198.273 102.563 195.586 102.65 192.206 102.65C184.753 102.65 179.813 101.003 177.386 97.71C174.959 94.33 173.746 90.04 173.746 84.84V81.59C171.233 88.6967 167.549 93.9833 162.696 97.45C157.929 100.917 151.819 102.65 144.366 102.65C135.699 102.65 129.156 100.917 124.736 97.45C120.403 93.9833 118.236 88.8267 118.236 81.98C118.236 76.3467 120.099 71.9267 123.826 68.72C127.553 65.5133 133.316 63.3033 141.116 62.09C134.529 57.41 127.943 53.3367 121.356 49.87C126.556 43.2833 132.493 38.3 139.166 34.92C145.839 31.4533 153.943 29.72 163.476 29.72C176.823 29.72 186.703 32.6233 193.116 38.43C199.616 44.15 202.866 52.99 202.866 64.95V80.42ZM166.206 52.6C161.786 52.6 157.886 53.3367 154.506 54.81C151.126 56.2833 148.093 58.4933 145.406 61.44C150.606 60.8333 157.106 60.53 164.906 60.53C168.113 60.53 170.366 60.14 171.666 59.36C172.966 58.58 173.616 57.5833 173.616 56.37C173.616 55.33 172.966 54.4633 171.666 53.77C170.366 52.99 168.546 52.6 166.206 52.6ZM152.556 81.46C157.409 81.46 161.786 80.55 165.686 78.73C169.586 76.8233 172.273 74.3533 173.746 71.32V67.94C171.666 68.98 169.369 69.8033 166.856 70.41C164.343 70.93 161.309 71.45 157.756 71.97L153.076 72.75C148.223 73.7033 145.796 75.35 145.796 77.69C145.796 80.2033 148.049 81.46 152.556 81.46ZM246.443 50C246.357 55.2 246.313 63.1733 246.313 73.92C246.313 86.8333 246.4 96.1933 246.573 102H215.893L216.023 87.31C216.197 71.19 216.283 58.7533 216.283 50C216.283 41.68 216.197 29.8933 216.023 14.64L215.893 0.599996L246.573 0.599996C246.4 12.9067 246.313 22.96 246.313 30.76C246.313 39.4267 246.357 45.84 246.443 50ZM287.576 50C287.49 55.2 287.446 63.1733 287.446 73.92C287.446 86.8333 287.533 96.1933 287.706 102L257.026 102L257.156 87.31C257.33 71.19 257.416 58.7533 257.416 50C257.416 41.68 257.33 29.8933 257.156 14.64L257.026 0.599996L287.706 0.599996C287.533 12.9067 287.446 22.96 287.446 30.76C287.446 39.4267 287.49 45.84 287.576 50ZM428.574 39.08C428.574 46.62 426.711 52.99 422.984 58.19C419.344 63.39 413.061 67.16 404.134 69.5C405.174 70.8867 405.911 71.97 406.344 72.75L427.404 102H392.044C388.231 94.8933 382.208 84.84 373.974 71.84H354.864V102H324.184C324.878 85.1867 325.224 69.4567 325.224 54.81C325.224 40.1633 324.878 24.4333 324.184 7.62L354.864 7.62V7.75L381.514 7.75C399.021 7.75 411.241 10.5667 418.174 16.2C425.108 21.8333 428.574 29.46 428.574 39.08ZM354.864 32.71V47.53H372.414C379.781 47.53 385.328 47.3133 389.054 46.88C392.868 46.36 395.511 45.58 396.984 44.54C398.458 43.5 399.194 41.9833 399.194 39.99C399.194 38.0833 398.501 36.61 397.114 35.57C395.728 34.53 393.128 33.7933 389.314 33.36C385.501 32.9267 379.868 32.71 372.414 32.71H354.864ZM501.245 69.5L458.865 69.5C459.559 73.3133 461.249 76.4333 463.935 78.86C466.709 81.2 470.609 82.37 475.635 82.37C479.275 82.37 482.699 81.6767 485.905 80.29C489.112 78.8167 491.669 76.78 493.575 74.18C499.382 77.04 507.095 80.1167 516.715 83.41C514.029 89.4767 509.132 94.33 502.025 97.97C495.005 101.523 485.819 103.3 474.465 103.3C459.732 103.3 448.812 99.92 441.705 93.16C434.685 86.3133 431.175 77.3433 431.175 66.25C431.175 55.4167 434.685 46.62 441.705 39.86C448.725 33.1 459.645 29.72 474.465 29.72C483.305 29.72 490.975 31.1933 497.475 34.14C503.975 37.0867 508.959 41.2033 512.425 46.49C515.892 51.69 517.625 57.67 517.625 64.43C517.625 66.6833 517.539 68.3733 517.365 69.5H501.245ZM476.285 49.35C471.952 49.35 468.399 50.1733 465.625 51.82C462.852 53.4667 460.902 55.72 459.775 58.58L490.455 58.58C489.415 55.8067 487.725 53.5967 485.385 51.95C483.045 50.2167 480.012 49.35 476.285 49.35ZM577.375 102C577.895 89.26 578.155 77.5167 578.155 66.77C578.155 62.9567 577.201 59.9233 575.295 57.67C573.475 55.4167 571.135 54.29 568.275 54.29C565.415 54.29 562.988 55.59 560.995 58.19C559.001 60.7033 557.831 64.17 557.485 68.59C557.311 75.1767 557.225 79.8567 557.225 82.63C557.225 88.5233 557.398 94.98 557.745 102H526.675C527.368 89.52 527.715 77.7333 527.715 66.64C527.715 55.5467 527.368 43.6733 526.675 31.02C532.395 31.28 536.771 31.41 539.805 31.41C543.011 31.41 547.388 31.28 552.935 31.02L556.705 50.13C558.698 43.1967 561.818 38.0833 566.065 34.79C570.311 31.41 575.251 29.72 580.885 29.72C586.085 29.72 590.591 30.89 594.405 33.23C598.218 35.4833 601.078 38.56 602.985 42.46C604.978 46.36 605.975 50.7367 605.975 55.59V74.31C605.975 85.8367 606.191 95.0667 606.625 102H577.375ZM675.955 54.29C667.982 53.77 660.702 53.38 654.115 53.12L653.985 66.9C653.985 71.58 654.982 75.2633 656.975 77.95C659.055 80.55 662.695 81.85 667.895 81.85C669.889 81.85 671.795 81.6767 673.615 81.33C673.269 84.5367 673.095 87.7867 673.095 91.08C673.095 92.64 673.182 96.1933 673.355 101.74C669.542 102.433 666.335 102.867 663.735 103.04C661.135 103.213 657.755 103.3 653.595 103.3C643.455 103.3 636.262 100.873 632.015 96.02C627.855 91.08 625.775 84.2333 625.775 75.48L625.905 53.51C621.832 53.6833 617.585 53.9433 613.165 54.29V31.28C617.672 31.28 621.485 29.85 624.605 26.99C627.725 24.13 629.589 20.7067 630.195 16.72L665.555 16.72C661.135 22.7867 656.239 27.64 650.865 31.28L675.955 31.28V54.29ZM767.046 80.42C767.046 83.3667 767.392 85.4467 768.086 86.66C768.779 87.8733 770.166 88.74 772.246 89.26L771.726 101.48C768.952 101.913 766.526 102.217 764.446 102.39C762.452 102.563 759.766 102.65 756.386 102.65C748.932 102.65 743.992 101.003 741.566 97.71C739.139 94.33 737.926 90.04 737.926 84.84V81.59C735.412 88.6967 731.729 93.9833 726.876 97.45C722.109 100.917 715.999 102.65 708.546 102.65C699.879 102.65 693.336 100.917 688.916 97.45C684.582 93.9833 682.416 88.8267 682.416 81.98C682.416 76.3467 684.279 71.9267 688.006 68.72C691.732 65.5133 697.496 63.3033 705.296 62.09C698.709 57.41 692.122 53.3367 685.536 49.87C690.736 43.2833 696.672 38.3 703.346 34.92C710.019 31.4533 718.122 29.72 727.656 29.72C741.002 29.72 750.882 32.6233 757.296 38.43C763.796 44.15 767.046 52.99 767.046 64.95V80.42ZM730.386 52.6C725.966 52.6 722.066 53.3367 718.686 54.81C715.306 56.2833 712.272 58.4933 709.586 61.44C714.786 60.8333 721.286 60.53 729.086 60.53C732.292 60.53 734.546 60.14 735.846 59.36C737.146 58.58 737.796 57.5833 737.796 56.37C737.796 55.33 737.146 54.4633 735.846 53.77C734.546 52.99 732.726 52.6 730.386 52.6ZM716.736 81.46C721.589 81.46 725.966 80.55 729.866 78.73C733.766 76.8233 736.452 74.3533 737.926 71.32V67.94C735.846 68.98 733.549 69.8033 731.036 70.41C728.522 70.93 725.489 71.45 721.936 71.97L717.256 72.75C712.402 73.7033 709.976 75.35 709.976 77.69C709.976 80.2033 712.229 81.46 716.736 81.46ZM810.623 50C810.536 55.2 810.493 63.1733 810.493 73.92C810.493 86.8333 810.58 96.1933 810.753 102L780.073 102L780.203 87.31C780.376 71.19 780.463 58.7533 780.463 50C780.463 41.68 780.376 29.8933 780.203 14.64L780.073 0.599996H810.753C810.58 12.9067 810.493 22.96 810.493 30.76C810.493 39.4267 810.536 45.84 810.623 50Z" fill="#BC0011"/>
</svg>
