<svg width="717" height="133" viewBox="0 0 717 133" fill="none" xmlns="http://www.w3.org/2000/svg">
<path d="M109.14 7.62C108.533 22.2667 108.23 37.9967 108.23 54.81C108.23 71.6233 108.533 87.3533 109.14 102L78.59 102L78.59 66.64L30.75 66.64V102H0.2C0.893333 85.1867 1.24 69.4567 1.24 54.81C1.24 40.1633 0.893333 24.4333 0.2 7.62L30.75 7.62L30.75 42.98L78.59 42.98V7.62L109.14 7.62ZM202.866 80.42C202.866 83.3667 203.213 85.4467 203.906 86.66C204.599 87.8733 205.986 88.74 208.066 89.26L207.546 101.48C204.773 101.913 202.346 102.217 200.266 102.39C198.273 102.563 195.586 102.65 192.206 102.65C184.753 102.65 179.813 101.003 177.386 97.71C174.959 94.33 173.746 90.04 173.746 84.84V81.59C171.233 88.6967 167.549 93.9833 162.696 97.45C157.929 100.917 151.819 102.65 144.366 102.65C135.699 102.65 129.156 100.917 124.736 97.45C120.403 93.9833 118.236 88.8267 118.236 81.98C118.236 76.3467 120.099 71.9267 123.826 68.72C127.553 65.5133 133.316 63.3033 141.116 62.09C134.529 57.41 127.943 53.3367 121.356 49.87C126.556 43.2833 132.493 38.3 139.166 34.92C145.839 31.4533 153.943 29.72 163.476 29.72C176.823 29.72 186.703 32.6233 193.116 38.43C199.616 44.15 202.866 52.99 202.866 64.95V80.42ZM166.206 52.6C161.786 52.6 157.886 53.3367 154.506 54.81C151.126 56.2833 148.093 58.4933 145.406 61.44C150.606 60.8333 157.106 60.53 164.906 60.53C168.113 60.53 170.366 60.14 171.666 59.36C172.966 58.58 173.616 57.5833 173.616 56.37C173.616 55.33 172.966 54.4633 171.666 53.77C170.366 52.99 168.546 52.6 166.206 52.6ZM152.556 81.46C157.409 81.46 161.786 80.55 165.686 78.73C169.586 76.8233 172.273 74.3533 173.746 71.32V67.94C171.666 68.98 169.369 69.8033 166.856 70.41C164.343 70.93 161.309 71.45 157.756 71.97L153.076 72.75C148.223 73.7033 145.796 75.35 145.796 77.69C145.796 80.2033 148.049 81.46 152.556 81.46ZM246.443 50C246.357 55.2 246.313 63.1733 246.313 73.92C246.313 86.8333 246.4 96.1933 246.573 102H215.893L216.023 87.31C216.197 71.19 216.283 58.7533 216.283 50C216.283 41.68 216.197 29.8933 216.023 14.64L215.893 0.599996L246.573 0.599996C246.4 12.9067 246.313 22.96 246.313 30.76C246.313 39.4267 246.357 45.84 246.443 50ZM287.576 50C287.49 55.2 287.446 63.1733 287.446 73.92C287.446 86.8333 287.533 96.1933 287.706 102L257.026 102L257.156 87.31C257.33 71.19 257.416 58.7533 257.416 50C257.416 41.68 257.33 29.8933 257.156 14.64L257.026 0.599996L287.706 0.599996C287.533 12.9067 287.446 22.96 287.446 30.76C287.446 39.4267 287.49 45.84 287.576 50ZM324.184 90.82C327.131 86.4 329.558 82.2833 331.464 78.47C333.458 74.6567 335.364 70.2367 337.184 65.21C343.338 68.7633 350.488 71.5367 358.634 73.53C366.781 75.5233 374.364 76.52 381.384 76.52C388.578 76.52 393.648 75.9133 396.594 74.7C399.541 73.4 401.014 72.0133 401.014 70.54C401.014 65.2533 392.954 62.61 376.834 62.61C359.154 62.61 346.328 60.79 338.354 57.15C330.381 53.4233 326.394 47.4433 326.394 39.21C326.394 27.51 331.248 18.8867 340.954 13.34C350.661 7.79333 363.271 5.01999 378.784 5.01999C387.798 5.01999 397.028 6.18999 406.474 8.52999C416.008 10.7833 424.588 13.9033 432.214 17.89C429.701 23.61 427.058 30.5867 424.284 38.82C423.764 40.5533 423.331 41.8533 422.984 42.72C418.564 39.1667 411.891 36.22 402.964 33.88C394.038 31.4533 386.151 30.24 379.304 30.24C371.071 30.24 365.524 30.8033 362.664 31.93C359.804 32.97 358.374 34.53 358.374 36.61C358.374 38.69 360.324 40.38 364.224 41.68C368.211 42.8933 373.931 43.5 381.384 43.5C399.758 43.5 413.104 45.6233 421.424 49.87C429.744 54.03 433.904 60.4433 433.904 69.11C433.904 81.2433 429.484 89.9967 420.644 95.37C411.804 100.657 398.414 103.3 380.474 103.3C370.854 103.3 361.061 102.26 351.094 100.18C341.128 98.0133 332.158 94.8933 324.184 90.82ZM501.092 29.72C506.725 29.72 511.795 31.3233 516.302 34.53C520.809 37.7367 524.319 42.1133 526.832 47.66C529.345 53.12 530.602 59.1433 530.602 65.73C530.602 72.23 529.345 78.3833 526.832 84.19C524.319 89.91 520.765 94.5467 516.172 98.1C511.665 101.567 506.509 103.3 500.702 103.3C493.942 103.3 488.135 101.913 483.282 99.14C478.515 96.28 474.962 91.9033 472.622 86.01C472.622 90.95 472.795 98.88 473.142 109.8C473.489 120.373 473.662 127.827 473.662 132.16H444.282C444.802 116.04 445.062 99.1833 445.062 81.59C445.062 63.9967 444.802 47.14 444.282 31.02H469.242L473.012 47.27C475.439 41.2033 479.079 36.7833 483.932 34.01C488.785 31.15 494.505 29.72 501.092 29.72ZM487.182 79.9C491.082 79.9 494.332 78.6867 496.932 76.26C499.619 73.7467 500.962 70.4967 500.962 66.51C500.962 62.09 499.749 58.4933 497.322 55.72C494.895 52.9467 491.602 51.56 487.442 51.56C482.675 51.56 479.079 52.73 476.652 55.07C474.225 57.3233 473.012 61.1367 473.012 66.51C473.012 69.5433 473.792 72.1 475.352 74.18C476.912 76.1733 478.775 77.6467 480.942 78.6C483.109 79.4667 485.189 79.9 487.182 79.9ZM608.521 69.5L566.141 69.5C566.834 73.3133 568.524 76.4333 571.211 78.86C573.984 81.2 577.884 82.37 582.911 82.37C586.551 82.37 589.974 81.6767 593.181 80.29C596.387 78.8167 598.944 76.78 600.851 74.18C606.657 77.04 614.371 80.1167 623.991 83.41C621.304 89.4767 616.407 94.33 609.301 97.97C602.281 101.523 593.094 103.3 581.741 103.3C567.007 103.3 556.087 99.92 548.981 93.16C541.961 86.3133 538.451 77.3433 538.451 66.25C538.451 55.4167 541.961 46.62 548.981 39.86C556.001 33.1 566.921 29.72 581.741 29.72C590.581 29.72 598.251 31.1933 604.751 34.14C611.251 37.0867 616.234 41.2033 619.701 46.49C623.167 51.69 624.901 57.67 624.901 64.43C624.901 66.6833 624.814 68.3733 624.641 69.5H608.521ZM583.561 49.35C579.227 49.35 575.674 50.1733 572.901 51.82C570.127 53.4667 568.177 55.72 567.051 58.58L597.731 58.58C596.691 55.8067 595.001 53.5967 592.661 51.95C590.321 50.2167 587.287 49.35 583.561 49.35ZM660.34 66.51C660.513 70.93 661.9 74.4833 664.5 77.17C667.187 79.8567 671.13 81.2 676.33 81.2C679.19 81.2 681.747 80.68 684 79.64C686.253 78.5133 688.333 76.8667 690.24 74.7C697.607 77.56 706.23 80.03 716.11 82.11C713.25 88.7833 708.397 93.9833 701.55 97.71C694.79 101.437 685.993 103.3 675.16 103.3C660.687 103.3 649.983 99.92 643.05 93.16C636.117 86.4 632.65 77.5167 632.65 66.51C632.65 55.5033 636.117 46.62 643.05 39.86C649.983 33.1 660.687 29.72 675.16 29.72C685.993 29.72 694.79 31.5833 701.55 35.31C708.397 39.0367 713.25 44.2367 716.11 50.91C708.397 52.5567 699.773 55.0267 690.24 58.32C688.333 56.1533 686.253 54.55 684 53.51C681.747 52.3833 679.19 51.82 676.33 51.82C671.13 51.82 667.187 53.1633 664.5 55.85C661.9 58.5367 660.513 62.09 660.34 66.51Z" fill="#BC0011"/>
</svg>
