<svg width="468" height="104" viewBox="0 0 468 104" fill="none" xmlns="http://www.w3.org/2000/svg">
<path d="M87.23 102C85.5833 97.06 83.3733 90.8633 80.6 83.41H39.13L32.63 102H0L36.4 7.62L84.24 7.62L120.9 102L87.23 102ZM73.19 63.13C69.8967 54.03 66.5167 44.93 63.05 35.83L59.93 27.38C56.8967 35.2667 52.4333 47.1833 46.54 63.13H73.19ZM181.718 29.72C187.524 29.72 192.681 31.4967 197.188 35.05C201.781 38.5167 205.334 43.1533 207.848 48.96C210.361 54.68 211.618 60.79 211.618 67.29C211.618 73.8767 210.361 79.9433 207.848 85.49C205.334 90.95 201.824 95.2833 197.318 98.49C192.811 101.697 187.741 103.3 182.108 103.3C175.521 103.3 169.801 101.913 164.948 99.14C160.094 96.28 156.454 91.8167 154.028 85.75L150.258 102H125.298C125.818 85.7067 126.078 68.85 126.078 51.43C126.078 33.8367 125.818 16.98 125.298 0.859993H154.678L154.288 16.85C153.854 28.1167 153.638 38.17 153.638 47.01C155.978 41.1167 159.531 36.7833 164.298 34.01C169.151 31.15 174.958 29.72 181.718 29.72ZM168.458 81.46C172.618 81.46 175.911 80.0733 178.338 77.3C180.764 74.5267 181.978 70.93 181.978 66.51C181.978 62.5233 180.634 59.3167 177.948 56.89C175.348 54.3767 172.098 53.12 168.198 53.12C166.204 53.12 164.124 53.5967 161.958 54.55C159.791 55.4167 157.928 56.89 156.368 58.97C154.808 60.9633 154.028 63.4767 154.028 66.51C154.028 71.8833 155.241 75.74 157.668 78.08C160.094 80.3333 163.691 81.46 168.458 81.46ZM263.896 103.3C249.076 103.3 238.156 99.92 231.136 93.16C224.203 86.3133 220.736 77.3433 220.736 66.25C220.736 55.4167 224.203 46.62 231.136 39.86C238.156 33.1 249.076 29.72 263.896 29.72C273.863 29.72 282.183 31.3667 288.856 34.66C295.616 37.8667 300.599 42.2433 303.806 47.79C307.013 53.25 308.616 59.4033 308.616 66.25C308.616 77.43 304.889 86.4 297.436 93.16C290.069 99.92 278.889 103.3 263.896 103.3ZM264.416 81.2C270.049 81.2 274.253 79.8567 277.026 77.17C279.799 74.4833 281.186 70.8867 281.186 66.38C281.186 62.1333 279.799 58.6667 277.026 55.98C274.253 53.2067 270.049 51.82 264.416 51.82C258.783 51.82 254.666 53.1633 252.066 55.85C249.466 58.5367 248.166 62.0467 248.166 66.38C248.166 70.8867 249.466 74.4833 252.066 77.17C254.666 79.8567 258.783 81.2 264.416 81.2ZM397.709 31.02C397.102 41.94 396.799 53.7267 396.799 66.38C396.799 79.12 397.102 90.9933 397.709 102C392.162 101.74 387.785 101.61 384.579 101.61C381.545 101.61 377.169 101.74 371.449 102L367.679 82.89C365.685 89.8233 362.565 94.98 358.319 98.36C354.072 101.653 349.132 103.3 343.499 103.3C338.299 103.3 333.792 102.173 329.979 99.92C326.165 97.58 323.262 94.46 321.269 90.56C319.362 86.66 318.409 82.2833 318.409 77.43V58.71C318.409 47.1833 318.192 37.9533 317.759 31.02H347.009C346.489 43.76 346.229 56.37 346.229 68.85C346.229 72.6633 347.139 75.6967 348.959 77.95C350.865 80.2033 353.249 81.33 356.109 81.33C358.795 81.33 361.135 80.16 363.129 77.82C365.209 75.3933 366.465 72.1 366.899 67.94V64.95C367.072 58.19 367.159 53.51 367.159 50.91C367.159 44.93 366.985 38.3 366.639 31.02H397.709ZM467.039 54.29C459.066 53.77 451.786 53.38 445.199 53.12L445.069 66.9C445.069 71.58 446.066 75.2633 448.059 77.95C450.139 80.55 453.779 81.85 458.979 81.85C460.973 81.85 462.879 81.6767 464.699 81.33C464.353 84.5367 464.179 87.7867 464.179 91.08C464.179 92.64 464.266 96.1933 464.439 101.74C460.626 102.433 457.419 102.867 454.819 103.04C452.219 103.213 448.839 103.3 444.679 103.3C434.539 103.3 427.346 100.873 423.099 96.02C418.939 91.08 416.859 84.2333 416.859 75.48L416.989 53.51C412.916 53.6833 408.669 53.9433 404.249 54.29V31.28C408.756 31.28 412.569 29.85 415.689 26.99C418.809 24.13 420.673 20.7067 421.279 16.72H456.639C452.219 22.7867 447.323 27.64 441.949 31.28H467.039V54.29Z" fill="#BC0011"/>
</svg>
